<svg width="80" height="80" viewBox="0 0 80 80" fill="none" xmlns="http://www.w3.org/2000/svg">
<path d="M43.0479 67.8333L43.0869 65.6663V65.6604L43.167 62.0208L43.1904 60.9622L44.1943 60.6292L46.3281 59.9231L46.3301 59.9221C47.4289 59.56 49.0682 58.8597 49.9043 58.4114L49.9092 58.4084L51.5889 57.5159L52.5664 56.9954L53.3516 57.7766L55.9912 60.4036L55.9941 60.4055L57.5801 61.9924L59.5996 59.9993L59.6006 59.9983C60.5577 59.055 61.1898 58.4507 61.6162 57.9729C61.771 57.7995 61.8646 57.6742 61.9229 57.592C61.8979 57.5584 61.8696 57.5158 61.8311 57.469C61.6769 57.2818 61.4799 57.0737 61.2217 56.8118L60.2432 55.8313L57.8164 53.3909L57.0654 52.636L57.5303 51.679L58.6035 49.4661V49.4651C59.1766 48.2537 59.8174 46.6593 60.0244 45.9348V45.9329L60.4648 44.3997L60.7705 43.3342L61.8789 43.3137L65.5137 43.2483V43.2473L67.7002 43.1995V37.0676L65.5264 37.0198L61.8926 36.9534L60.8018 36.9329L60.4844 35.8889L59.8975 33.9563C59.6054 32.9951 58.9505 31.4077 58.4668 30.5129L58.4648 30.509L57.4912 28.6956L56.9648 27.7141L60.2168 24.4622V24.4612C61.0231 23.6513 61.5087 23.1859 61.8213 22.8069C61.8634 22.7558 61.8945 22.711 61.9209 22.675C61.8633 22.5933 61.7705 22.4675 61.6152 22.2932C61.1897 21.8156 60.5581 21.2115 59.6006 20.2678H59.5996L57.5801 18.2747L55.9912 19.8635L53.3516 22.4895L52.5615 23.2756L51.5811 22.7463L49.9043 21.842C49.0751 21.3974 47.4343 20.7078 46.3154 20.3264L44.1865 19.6077L43.1904 19.2717L43.167 18.22L43.0869 14.6741V14.6643C43.0693 13.5955 43.0308 12.8059 42.9814 12.2581C42.9067 12.2545 42.8276 12.2497 42.7451 12.2463C42.0099 12.2163 41.0431 12.1987 40.0615 12.1946C39.0803 12.1905 38.1 12.2006 37.3379 12.2239C37.2231 12.2274 37.1146 12.2325 37.0127 12.2366C36.9824 12.759 36.9668 13.5101 36.9668 14.5598C36.9668 15.5123 36.9847 16.3215 36.9648 16.8928C36.9458 17.4389 36.8937 18.1333 36.5342 18.7415C36.126 19.4317 35.496 19.7425 35.0059 19.9319C34.565 20.1022 33.8994 20.2899 33.2568 20.4954L33.2529 20.4963L32.9639 20.595C32.2273 20.8606 31.0864 21.3616 30.291 21.7649H30.29L28.5928 22.6604L27.6221 23.1721L26.8408 22.4016L24.2305 19.8313L22.6396 18.2737L21.9023 18.9778L21.8975 18.9827L21.0996 19.7512C20.2483 20.583 19.2894 21.5509 18.707 22.1721L18.7021 22.178L18.25 22.6555L19.8096 24.2219L22.3965 26.8215L23.1777 27.6067L22.6572 28.5852L21.6709 30.4377C21.1755 31.3803 20.5113 32.965 20.2373 33.8821L20.2344 33.8909L19.6611 35.7708L19.3496 36.7942L18.2803 36.8323L14.5605 36.9661L12.2998 37.0471V43.22L14.5605 43.301L18.2803 43.4338L19.3496 43.4729L19.6611 44.4954L20.2344 46.3752L20.2373 46.384C20.5112 47.3009 21.1755 48.8856 21.6709 49.8284L22.6572 51.6819L23.1777 52.6594L22.3965 53.4446L19.7969 56.0579L18.2539 57.6008L20.4473 59.7922L22.6475 61.9934L24.2139 60.4514L24.2168 60.4485L26.8438 57.8752L27.6074 57.1262L28.5635 57.6047L30.6172 58.6321L30.624 58.635C31.6916 59.175 33.2998 59.8107 34.1211 60.0305L34.123 60.0315L35.8564 60.4983L36.9668 60.7971V67.8333H43.0479ZM47.2051 51.802C37.4856 57.7071 25.1382 49.7449 26.4453 38.6086L26.5176 38.0764C27.7686 29.9598 36.1929 24.5686 43.9082 26.968L44.2744 27.0881C55.1417 30.8232 57.134 45.2778 47.6641 51.512L47.2051 51.802Z" stroke="url(#paint0_linear_3330_796)" stroke-width="3"/>
<defs>
<linearGradient id="paint0_linear_3330_796" x1="10.7989" y1="10.6943" x2="69.4379" y2="69.0942" gradientUnits="userSpaceOnUse">
<stop stop-color="#42307D"/>
<stop offset="1" stop-color="#7F56D9"/>
</linearGradient>
</defs>
</svg>
