<svg width="145" height="192" viewBox="0 0 145 192" fill="none" xmlns="http://www.w3.org/2000/svg">
<path d="M102.343 10.5433C100.87 16.9322 102.838 28.0758 106.16 32.2916C110.867 38.3226 111.304 38.6035 114.579 39.1605C120.963 40.1691 128.42 36.6164 132.982 30.5893C136.328 26.0973 137.135 21.8289 135.131 18.6903C134.407 17.5309 133.484 16.3208 133.046 16.0398C131.369 15.0409 126.099 14.8245 122.017 15.5252L117.721 16.3197L115.907 11.6816C114.488 7.9921 113.635 6.67263 111.938 5.58391C109.092 3.75767 107.432 3.69591 105.387 5.3173C103.217 7.01293 103.096 7.32147 102.343 10.5433ZM109.186 9.99366C109.788 10.38 110.798 12.4179 111.395 14.4989C113.505 21.5658 114.291 22.1472 121.212 20.8752C129.3 19.3488 131.512 19.9961 130.747 23.5967C129.784 28.2282 124.039 32.7252 117.213 34.2119L112.507 35.2839L110.79 33.0237C108.391 30.018 107.172 26.3792 106.774 21.3383C106.088 13.2555 107.106 8.6591 109.186 9.99366Z" fill="url(#paint0_linear_3323_1775)"/>
<path d="M47.3837 98.4844C44.5626 107.096 48.1805 116.751 56.1717 121.878L60.0578 124.372L54.0453 133.02C43.6385 148.035 31.2752 160.559 18.0714 169.456C13.9382 172.285 10.539 174.813 10.598 175.082C10.8492 176.015 14.3831 174.963 18.5443 172.693C32.746 165.131 49.2691 149.254 60.3651 132.443L65.492 124.694L69.0343 124.11C81.4928 121.914 91.7438 110.274 97.0997 92.1723C99.1221 85.2872 101.055 75.411 102.603 64.2073C103.764 55.5342 103.788 52.8476 102.803 52.2155C101.872 51.6184 100.666 55.7854 98.3968 67.9929C92.9103 96.895 86.9229 109.959 75.9661 116.438C73.023 118.255 68.5053 119.757 67.6843 119.23C67.4653 119.089 67.558 118.222 67.9004 117.207C68.2625 116.281 68.8324 112.864 69.2268 109.721C70.0395 103.758 69.3449 98.2172 67.2973 94.6647C65.696 91.8617 61.591 89.2277 58.7041 89.1508C54.1022 88.9771 49.197 93.009 47.3837 98.4844ZM56.9104 94.716C58.8079 93.9264 61.2667 95.2725 62.8483 97.9857C65.0994 101.823 64.8733 111.328 62.4242 117.553C61.8361 118.951 61.4965 119.119 60.0818 118.675C55.7087 117.181 51.6528 110.256 51.6922 104.414C51.6558 100.376 54.0992 95.8457 56.9104 94.716Z" fill="url(#paint1_linear_3323_1775)"/>
<defs>
<linearGradient id="paint0_linear_3323_1775" x1="91.6906" y1="25.4946" x2="136.43" y2="10.5859" gradientUnits="userSpaceOnUse">
<stop stop-color="#42307D"/>
<stop offset="1" stop-color="#7F56D9"/>
</linearGradient>
<linearGradient id="paint1_linear_3323_1775" x1="1.39507" y1="169.291" x2="78.094" y2="193.446" gradientUnits="userSpaceOnUse">
<stop stop-color="#42307D"/>
<stop offset="1" stop-color="#7F56D9"/>
</linearGradient>
</defs>
</svg>
