<svg width="141" height="145" viewBox="0 0 141 145" fill="none" xmlns="http://www.w3.org/2000/svg">
<path d="M109.132 2.11529C108.051 2.80363 103.809 6.07467 99.7619 9.33893L92.3615 15.2577L87.2826 13.1569C80.4233 10.3372 70.2457 7.43772 67.3887 7.53714C65.8952 7.5891 64.6773 8.08698 63.9275 8.95901C62.1795 11.0371 63.6872 13.2621 73.3118 22.688C78.0916 27.4021 81.877 31.5651 81.763 32.0246C81.6467 32.419 78.9987 34.7887 75.9007 37.3042C72.8027 39.8196 69.275 43.0658 68.0238 44.4758C65.7722 47.0269 65.7722 47.0269 65.6404 54.4497C65.414 66.626 61.0038 81.8761 54.6104 92.445C46.0687 106.668 30.817 122.36 13.8177 134.534C6.144 140.072 4.2012 142.157 4.98104 144.017C5.97151 146.325 12.9186 144.196 31.0971 136.015C44.2183 130.093 64.0166 118.016 77.1206 107.865C90.415 97.5763 103.112 83.2091 107.829 73.0239C108.614 71.3047 109.977 69.3702 110.803 68.8209C112.26 67.729 113.088 65.3576 115.842 52.9632L117.023 47.6513L120.766 46.8703C127.731 45.2615 134.862 42.8009 136.183 41.5186C136.937 40.7766 137.478 39.5214 137.449 38.6765C137.381 36.7267 135.657 35.7455 124.384 31.2574C119.768 29.4007 115.675 27.591 115.341 27.3423C114.938 26.9659 114.871 23.1941 115.203 17.7816C115.706 7.93824 115.012 2.95183 113.015 1.58977C111.483 0.536855 111.483 0.536855 109.132 2.11529ZM111.477 11.5992C111.575 14.3939 111.485 19.2775 111.269 22.4084L110.948 28.1459L112.894 29.9002C114.032 30.8367 118.397 32.9623 122.549 34.5748C130.326 37.6229 132.774 38.8391 132.21 39.4444C132.019 39.5812 128.292 40.8171 123.848 42.0129C115.546 44.4491 113.381 45.7608 112.847 49.098C111.927 54.4009 110.087 63.1845 109.604 64.2425C109.058 65.3677 108.926 65.3073 107.698 63.6581C106.947 62.6431 104.604 58.8203 102.46 55.1207C100.316 51.4212 97.7151 47.6724 96.7049 46.6664C94.4898 44.6612 91.9506 44.5543 82.4576 46.3813C75.6759 47.6584 70.8127 48.0228 70.7856 47.2429C70.7765 46.9829 74.1789 43.8713 78.3491 40.4075C84.7935 35.0426 85.9216 33.832 85.8696 32.3372C85.7904 30.0624 83.6154 27.34 75.7311 19.3502C70.2053 13.7511 68.8456 12.0415 69.8845 12.0053C70.0793 11.9985 75.1425 13.6444 81.061 15.5858L91.8501 19.2449L96.1728 16.4265C98.5256 14.9131 102.647 11.9065 105.176 9.86634C107.768 7.75892 110.246 6.11097 110.576 6.22966C111.035 6.34384 111.371 8.54455 111.477 11.5992ZM89.9529 56.2717C82.3892 81.7828 65.6867 104.358 42.4529 120.459C36.6774 124.499 26.8542 129.916 26.8248 129.071C26.8203 128.941 30.095 125.899 34.0636 122.247C43.2656 113.923 52.1468 103.853 56.9537 96.2678C64.4103 84.4906 68.9307 70.5381 69.0385 58.6913L69.1862 51.7235L74.1188 51.4867C76.8459 51.3919 81.7023 50.8325 84.8682 50.2668C88.099 49.6989 90.9515 49.4695 91.2202 49.7204C91.5517 49.9041 90.9415 52.9186 89.9529 56.2717ZM98.3451 56.4352C99.1763 57.9029 101.237 61.0848 102.882 63.5003C104.591 65.9136 105.966 68.0782 105.973 68.2731C106 69.0531 100.755 77.1093 96.2831 83.1213C84.793 98.5527 65.1191 114.204 40.7378 127.221C28.3535 133.768 23.867 135.616 32.4029 130.569C47.2472 121.853 56.6197 114.695 66.6048 104.587C80.0435 90.9744 89.9475 72.9303 93.5061 55.6275C94.4472 50.9096 94.4449 50.8446 95.6657 52.2988C96.2772 53.0583 97.5116 54.9025 98.3451 56.4352Z" fill="url(#paint0_linear_3323_1733)"/>
<path d="M49.1277 30.1668C49.0069 30.4313 48.7559 36.2965 48.6037 43.1343C48.2329 58.6343 46.9042 69.027 43.6169 81.0495C40.9066 90.9697 40.6543 93.0608 42.0179 93.0133C43.9009 92.9478 46.6465 87.7767 49.3998 79.0914C51.6298 72.1812 52.5369 66.4884 52.847 56.7168C53.3506 43.1644 51.0902 26.7798 49.1277 30.1668Z" fill="url(#paint1_linear_3323_1733)"/>
<path d="M130.106 55.5906C129.616 56.4536 128.231 59.6253 126.971 62.6624C122.356 73.8852 114.516 85.8709 103.516 98.5523C97.5129 105.398 96.4769 107.387 98.8144 107.305C100.438 107.249 108.453 100.333 113.015 95.0332C117.14 90.2696 124.106 79.3554 126.946 73.1399C130.693 65.0056 133.367 54.0456 131.549 54.1088C131.225 54.1201 130.598 54.7927 130.106 55.5906Z" fill="url(#paint2_linear_3323_1733)"/>
<path d="M26.7902 107.534C24.0394 110.688 23.5833 112.526 25.4663 112.46C26.7 112.417 31.2502 106.793 31.2004 105.363C31.1416 103.673 29.3506 104.516 26.7902 107.534Z" fill="url(#paint3_linear_3323_1733)"/>
<path d="M74.6744 117.906C71.4821 119.579 69.4517 121.016 69.4743 121.666C69.5218 123.031 70.816 122.855 75.7479 120.732C80.4224 118.682 82.6989 116.846 82.0111 115.763C81.2584 114.683 80.2263 114.915 74.6744 117.906Z" fill="url(#paint4_linear_3323_1733)"/>
<defs>
<linearGradient id="paint0_linear_3323_1733" x1="-0.00149323" y1="4.73665" x2="144.899" y2="135.902" gradientUnits="userSpaceOnUse">
<stop stop-color="#42307D"/>
<stop offset="1" stop-color="#7F56D9"/>
</linearGradient>
<linearGradient id="paint1_linear_3323_1733" x1="39.0593" y1="30.0855" x2="64.4046" y2="34.4573" gradientUnits="userSpaceOnUse">
<stop stop-color="#42307D"/>
<stop offset="1" stop-color="#7F56D9"/>
</linearGradient>
<linearGradient id="paint2_linear_3323_1733" x1="95.8729" y1="55.3505" x2="145.824" y2="87.6212" gradientUnits="userSpaceOnUse">
<stop stop-color="#42307D"/>
<stop offset="1" stop-color="#7F56D9"/>
</linearGradient>
<linearGradient id="paint3_linear_3323_1733" x1="24.085" y1="104.729" x2="32.0674" y2="111.514" gradientUnits="userSpaceOnUse">
<stop stop-color="#42307D"/>
<stop offset="1" stop-color="#7F56D9"/>
</linearGradient>
<linearGradient id="paint4_linear_3323_1733" x1="69.2624" y1="115.579" x2="75.5132" y2="126.158" gradientUnits="userSpaceOnUse">
<stop stop-color="#42307D"/>
<stop offset="1" stop-color="#7F56D9"/>
</linearGradient>
</defs>
</svg>
