<svg width="268" height="271" viewBox="0 0 268 271" fill="none" xmlns="http://www.w3.org/2000/svg">
<path d="M6.21604 158.675C8.51272 167.214 12.9831 174.502 20.4836 181.619C27.2293 188.021 31.247 190.4 39.6855 193.034C44.5082 194.565 47.0911 194.867 54.6266 194.673C63.2649 194.451 63.9106 194.526 66.858 196.427C78.2304 203.905 98.4525 203.569 118.702 195.646C136.995 188.462 161.803 172.146 174.869 158.66C179.344 154.039 180.321 152.726 180.112 151.812C179.654 150.123 178.705 150.745 171.293 157.326C154.051 172.851 134.023 185.642 116.545 192.345C103.166 197.563 89.5129 199.385 79.2064 197.397C75.0913 196.537 68.4485 193.995 68.3817 193.216C68.3743 192.94 70.3171 191.648 72.6721 190.301C77.6976 187.367 79.981 185.055 82.0787 180.955C84.2635 176.669 83.967 172.446 81.2138 169.207C78.3688 165.969 76.7373 165.138 73.1013 165.001C68.9586 164.832 65.2845 166.72 61.9872 170.667C57.6215 175.928 56.6706 181.654 59.1646 187.246C59.8495 188.791 60.1668 190.346 59.809 190.723C58.9145 191.666 48.7961 191.558 43.9857 190.487C29.9739 187.49 16.8893 176.148 10.1467 161.241C8.77689 158.15 7.32986 155.612 7.007 155.574C5.805 155.329 5.59853 156.208 6.21604 158.675ZM68.0328 169.775C70.7952 168.187 75.765 168.335 77.6519 170.126C81.3314 173.617 80.7285 178.599 75.8512 183.644C71.8261 187.885 65.914 190.336 64.0271 188.546C61.6684 186.308 60.7986 181.272 62.0294 177.424C63.3522 173.574 64.776 171.79 68.0328 169.775Z" fill="url(#paint0_linear_3323_1770)"/>
<path d="M101.373 185.47C102.599 186.634 110.132 186.349 116.119 184.953C124.022 183.049 130.051 179.813 138.69 172.694C142.65 169.466 143.982 167.684 143.038 166.789C142.284 166.073 140.194 167.046 134.182 170.925C123.468 177.775 114.967 181.443 106.311 182.723C101.319 183.449 100.052 184.217 101.373 185.47Z" fill="url(#paint1_linear_3323_1770)"/>
<path d="M190.474 102.349C190.645 103.586 192.722 107.348 196.852 113.955L199.737 118.663L195.461 129.026C190.536 140.923 190.118 142.497 191.392 143.706C192.902 145.138 195.629 143.965 202.936 138.627C206.769 135.816 210.2 133.429 210.657 133.325C211.616 133.07 215.531 136.786 221.556 143.758C227.202 150.279 227.899 150.583 230.717 147.614C231.701 146.577 236.796 137.618 241.958 127.738C247.212 117.855 252.514 108.018 253.833 105.777C256.649 101.014 257.226 98.5168 255.821 97.5414C255.212 97.1432 251.167 97.1553 246.671 97.5468C242.175 97.9383 232.114 98.2431 224.295 98.1683C200.427 98.0005 198.498 98.0501 195.609 98.3543C192.72 98.6585 190.288 100.56 190.474 102.349ZM207.475 101.911C213.684 101.982 222.789 102.023 227.662 101.99C232.535 101.957 236.814 102.076 237.139 102.206C237.743 102.42 234.469 103.792 214.448 111.663C205.619 115.109 202.745 115.964 202.314 115.286C197.501 107.225 195.222 102.824 195.67 102.353C195.938 102.07 201.221 101.888 207.475 101.911ZM225.741 111.005C243.32 104.668 246.241 103.857 243.317 106.277C233.509 114.346 216.399 126.234 210.182 129.291C207.958 130.406 204.473 132.472 202.398 133.997C200.322 135.43 198.287 136.724 197.875 136.78C197.462 136.837 197.992 134.294 199.106 131.231C200.128 128.17 201.359 124.322 201.777 122.748L202.575 119.923L205.755 118.462C207.573 117.679 216.54 114.276 225.741 111.005ZM220.338 127.375C224.362 124.834 244.53 110.384 245.782 109.064C246.992 107.884 245.65 110.999 242.193 117.571C240.177 121.301 236.427 128.938 233.817 134.522C231.251 140.06 228.895 144.81 228.627 145.093C228.135 145.611 226.528 143.998 217.949 134.333C216.337 132.535 215.235 130.862 215.504 130.579C215.727 130.344 217.941 128.862 220.338 127.375Z" fill="url(#paint2_linear_3323_1770)"/>
<defs>
<linearGradient id="paint0_linear_3323_1770" x1="-0.000984301" y1="162.183" x2="180.933" y2="162.619" gradientUnits="userSpaceOnUse">
<stop stop-color="#42307D"/>
<stop offset="1" stop-color="#7F56D9"/>
</linearGradient>
<linearGradient id="paint1_linear_3323_1770" x1="100.581" y1="184.72" x2="134.456" y2="196.044" gradientUnits="userSpaceOnUse">
<stop stop-color="#42307D"/>
<stop offset="1" stop-color="#7F56D9"/>
</linearGradient>
<linearGradient id="paint2_linear_3323_1770" x1="169.685" y1="123.108" x2="265.436" y2="132.088" gradientUnits="userSpaceOnUse">
<stop stop-color="#42307D"/>
<stop offset="1" stop-color="#7F56D9"/>
</linearGradient>
</defs>
</svg>
