<svg width="60" height="60" viewBox="0 0 60 60" fill="none" xmlns="http://www.w3.org/2000/svg">
<path d="M25.7998 0.839917C25.5598 0.946584 25.4665 1.94658 25.4665 4.55992C25.4665 8.61325 25.7598 8.11992 22.7998 9.06658C21.9998 9.31992 20.5598 9.94658 19.6131 10.4266L17.8931 11.3333L15.2798 8.75992L12.6531 6.18658L10.8665 7.89325C9.8798 8.82658 8.41314 10.2933 7.61314 11.1466L6.1598 12.6799L8.74647 15.2799L11.3331 17.8799L10.3465 19.7333C9.81314 20.7466 9.10647 22.4266 8.7998 23.4533L8.22647 25.3333L4.50647 25.4666L0.799805 25.5999V30.1333V34.6666L4.50647 34.7999L8.22647 34.9333L8.7998 36.8133C9.10647 37.8399 9.81314 39.5199 10.3465 40.5333L11.3331 42.3866L8.73314 44.9999L6.13314 47.5999L9.38647 50.8533L12.6398 54.1066L15.2665 51.5199L17.8931 48.9466L19.9465 49.9733C21.0798 50.5466 22.7865 51.2266 23.7331 51.4799L25.4665 51.9466V55.6399V59.3333H29.9865H34.5198L34.5865 55.6933L34.6665 52.0533L36.7998 51.3466C37.9731 50.9599 39.6931 50.2266 40.6131 49.7333L42.2931 48.8399L44.9331 51.4666L47.5731 54.1066L50.6531 51.0666C54.3465 47.4266 54.3065 47.7866 51.3065 44.7733L48.8798 42.3333L49.9598 40.1066C50.5465 38.8666 51.2265 37.1866 51.4665 36.3466L51.9065 34.8133L55.5465 34.7466L59.1998 34.6666V30.1333V25.5999L55.5598 25.5199L51.9198 25.4533L51.3331 23.5199C51.0131 22.4666 50.3198 20.7866 49.7865 19.7999L48.8131 17.9866L51.2798 15.5199C54.3065 12.4799 54.3465 12.8399 50.6531 9.19992L47.5731 6.15992L44.9331 8.79992L42.2931 11.4266L40.6131 10.5199C39.6931 10.0266 37.9731 9.30658 36.7998 8.90658L34.6665 8.18658L34.5865 4.63992C34.5465 2.21325 34.4131 1.02658 34.1865 0.879917C33.8398 0.653251 26.3465 0.626584 25.7998 0.839917ZM33.7865 18.5066C43.6798 21.9066 45.2798 35.1466 36.4265 40.5199C27.6265 45.8666 16.4265 38.4399 17.9998 28.3066C19.1331 20.9466 26.8931 16.1333 33.7865 18.5066Z" fill="url(#paint0_linear_3330_791)"/>
<defs>
<linearGradient id="paint0_linear_3330_791" x1="0.798895" y1="0.694334" x2="59.4379" y2="59.0942" gradientUnits="userSpaceOnUse">
<stop stop-color="#42307D"/>
<stop offset="1" stop-color="#7F56D9"/>
</linearGradient>
</defs>
</svg>
