<svg width="125" height="114" viewBox="0 0 125 114" fill="none" xmlns="http://www.w3.org/2000/svg">
<path d="M20.1787 45.6628C9.97483 60.4814 17.8195 94.6775 33.472 103.686C46.0205 110.922 52.4396 106.908 56.8098 89.111C61.9492 68.2304 73.0072 60.9412 94.057 64.5461C106.895 66.7472 111.684 65.7437 115.03 60.1069C123.934 45.0651 101.735 17.9365 77.2636 13.9218C65.4507 11.9901 59.2899 16.0361 55.9248 27.8838C52.8524 38.7924 49.399 41.1472 38.4067 39.7898C29.364 38.6655 23.7583 40.481 20.1787 45.6628ZM30.5294 44.2613C31.8772 44.0461 35.4406 44.1589 38.4706 44.4893C50.6924 45.9131 56.4131 42.3279 59.7763 31.0911C60.4491 28.7827 61.6574 25.5439 62.4378 23.9093C70.4551 7.01632 112.035 30.4214 112.063 51.8427C112.052 60.7244 108.695 62.304 94.7685 59.8411C71.4097 55.7671 57.5177 65.1701 52.0409 88.8144C49.2708 100.742 46.8817 103.374 40.4881 101.647C20.2273 96.1652 11.7232 47.1641 30.5294 44.2613Z" fill="url(#paint0_linear_3330_765)"/>
<path d="M31.6663 61.8323L33.8648 65.1521L30.5685 67.335L27.2723 69.5179L29.4396 72.7906L31.6069 76.0633L34.879 74.0996L38.1511 72.136L40.3973 75.2209L42.6435 78.3059L45.9162 76.1386L49.1889 73.9713L47.006 70.675L44.8231 67.3788L48.1193 65.1959L51.4156 63.013L49.2327 59.7167L47.0498 56.4205L43.7771 58.5878L40.5044 60.7551L38.2581 57.6702L36.0119 54.5852L32.7399 56.5489L29.4678 58.5125L31.6663 61.8323Z" fill="url(#paint1_linear_3330_765)"/>
<path d="M70.8713 32.0416C69.1231 35.13 72.0493 38.6792 75.561 37.7423C79.8567 36.5571 78.2813 29.2683 73.8853 29.944C71.9419 30.2827 71.8477 30.3451 70.8713 32.0416Z" fill="url(#paint2_linear_3330_765)"/>
<path d="M69.0816 43.6591C67.0918 46.3317 68.569 49.892 71.7951 50.1604C76.6264 50.5512 77.9391 43.89 73.2752 42.5755C71.6553 42.1241 69.8916 42.5808 69.0816 43.6591Z" fill="url(#paint3_linear_3330_765)"/>
<path d="M83.1047 34.9143C81.8179 38.2391 83.8766 41.1433 87.1208 40.6207C89.3697 40.283 90.0216 39.6819 90.459 37.5294C91.3974 32.9112 84.802 30.5726 83.1047 34.9143Z" fill="url(#paint4_linear_3330_765)"/>
<path d="M81.0775 47.0952C79.3779 49.6432 80.5369 52.2628 83.6287 52.891C87.3311 53.6229 89.6444 50.1604 87.5394 46.9819C85.8555 44.439 82.8086 44.4923 81.0775 47.0952Z" fill="url(#paint5_linear_3330_765)"/>
<defs>
<linearGradient id="paint0_linear_3330_765" x1="-0.000899282" y1="57.7398" x2="102.829" y2="103.397" gradientUnits="userSpaceOnUse">
<stop stop-color="#42307D"/>
<stop offset="1" stop-color="#7F56D9"/>
</linearGradient>
<linearGradient id="paint1_linear_3330_765" x1="22.8751" y1="62.8787" x2="55.7971" y2="69.5276" gradientUnits="userSpaceOnUse">
<stop stop-color="#42307D"/>
<stop offset="1" stop-color="#7F56D9"/>
</linearGradient>
<linearGradient id="paint2_linear_3330_765" x1="68.7363" y1="32.655" x2="79.8425" y2="34.6113" gradientUnits="userSpaceOnUse">
<stop stop-color="#42307D"/>
<stop offset="1" stop-color="#7F56D9"/>
</linearGradient>
<linearGradient id="paint3_linear_3330_765" x1="66.6125" y1="45.1139" x2="77.6967" y2="47.354" gradientUnits="userSpaceOnUse">
<stop stop-color="#42307D"/>
<stop offset="1" stop-color="#7F56D9"/>
</linearGradient>
<linearGradient id="paint4_linear_3330_765" x1="80.9506" y1="35.494" x2="92.2769" y2="37.5995" gradientUnits="userSpaceOnUse">
<stop stop-color="#42307D"/>
<stop offset="1" stop-color="#7F56D9"/>
</linearGradient>
<linearGradient id="paint5_linear_3330_765" x1="78.79" y1="48.1268" x2="89.7981" y2="50.3444" gradientUnits="userSpaceOnUse">
<stop stop-color="#42307D"/>
<stop offset="1" stop-color="#7F56D9"/>
</linearGradient>
</defs>
</svg>
