<svg width="234" height="241" viewBox="0 0 234 241" fill="none" xmlns="http://www.w3.org/2000/svg">
<path d="M177.52 51.7504C174.957 51.3354 170.237 51.3793 167.117 51.8774C160.02 53.0816 146.782 58.3694 139.231 63.0546C136.069 64.9889 133.338 66.5593 133.11 66.4202C132.958 66.3275 132.847 64.7986 133.028 63.1341C133.305 58.9184 131.685 51.1442 130.012 48.2445C129.167 46.8939 126.937 44.9073 124.96 43.7017C121.692 41.7079 120.898 41.6413 116.275 42.8931C110.061 44.5312 104.975 48.4235 100.203 55.2214C93.8564 64.0867 94.8822 63.7729 87.2806 59.1361C77.7786 53.3401 70.2585 51.9893 64.3996 55.0969C58.8023 57.9466 57.2803 63.1776 59.8167 70.9886C60.6537 73.3783 62.5508 76.9366 64.1856 78.8734C67.3326 82.7765 82.5286 94.9689 90.6456 100.129C107.412 110.773 169.242 146.713 172.518 147.668C177.501 149.246 187.903 147.239 193.644 143.642C198.494 140.649 203.481 133.67 203.805 129.378C204.463 119.235 197.676 112.068 181.258 105.811C177.191 104.27 173.766 102.703 173.631 102.412C173.618 102.091 175.868 99.6005 178.7 96.8387C189.073 86.6717 194.312 74.8341 192.43 65.4383C190.856 57.5881 186.26 53.3235 177.52 51.7504ZM185.902 64.1708C189.679 71.4861 184.44 83.3237 172.425 94.4727C166.638 100.026 166.098 100.74 166.112 102.941C166.299 106.396 166.831 106.72 180.462 111.903C188.519 114.938 190.436 115.899 193.545 118.839C197.807 122.796 198.969 126.533 197.438 130.923C195.705 135.817 191.784 139.167 185.384 141.109C175.05 144.201 178.095 145.536 136.315 120.157C115.973 107.852 94.0168 94.773 87.4162 91.0599C73.9869 83.4948 69.7844 79.783 66.1421 72.759C64.9379 70.4585 64.0793 66.9073 64.2474 64.9219C64.3811 61.4539 64.5203 61.2256 67.0193 60.0356C71.5571 57.8969 76.6494 59.124 85.7714 64.6881C91.6246 68.2585 94.3188 69.4843 95.3447 69.1704C96.172 68.8399 99.2992 65.4232 102.278 61.3941C111.136 49.7801 117.843 45.6239 122.936 48.7306C126.281 50.7708 128.028 59.8753 126.608 67.6743C125.728 72.8792 125.796 73.9647 127.393 74.9384C128.989 75.9121 130.597 75.3272 138.393 70.5826C149.98 63.5566 153.598 61.9005 163.303 59.1556C175.09 55.9055 182.471 57.4845 185.902 64.1708Z" fill="url(#paint0_linear_3323_1721)"/>
<path d="M86.1078 159.394C81.8525 160.557 74.626 164.709 73.4657 166.612C72.2126 168.666 74.4003 170.209 77.537 169.513C84.3297 168.123 92.7205 161.549 90.7985 159.228C90.4056 158.675 88.2819 158.737 86.1078 159.394Z" fill="url(#paint1_linear_3323_1721)"/>
<path d="M114.517 179.333C113.369 179.677 110.562 181.201 108.076 182.712C99.9253 187.867 99.7076 192.328 107.829 188.93C115.905 185.608 121.821 177.107 114.517 179.333Z" fill="url(#paint2_linear_3323_1721)"/>
<path d="M45.636 140.762C42.6681 141.353 36.6531 144.888 35.6321 146.562C34.6574 148.159 35.6248 149.48 37.8077 149.663C42.1439 149.907 51.8854 142.486 49.3008 140.91C48.6927 140.539 47.0587 140.482 45.636 140.762Z" fill="url(#paint3_linear_3323_1721)"/>
<path d="M75.6571 187.471C72.8709 188.277 68.9788 189.87 66.9991 191.063C64.0824 192.938 63.6351 193.501 64.0832 194.818C64.8145 197.039 67.6224 197.394 72.093 196.05C76.3651 194.689 81.2527 190.78 81.7288 188.46C82.1586 186.217 81.2127 186.057 75.6571 187.471Z" fill="url(#paint4_linear_3323_1721)"/>
<path d="M40.3819 166.475C38.9632 166.236 32.9482 169.771 31.8807 171.521C31.5095 172.129 31.6407 172.94 32.1728 173.265C33.9972 174.378 36.7834 173.572 39.9193 170.995C43.4858 168.055 43.6162 166.987 40.3819 166.475Z" fill="url(#paint5_linear_3323_1721)"/>
<defs>
<linearGradient id="paint0_linear_3323_1721" x1="95.9888" y1="-0.000855511" x2="89.0504" y2="154.613" gradientUnits="userSpaceOnUse">
<stop stop-color="#42307D"/>
<stop offset="1" stop-color="#7F56D9"/>
</linearGradient>
<linearGradient id="paint1_linear_3323_1721" x1="81.4682" y1="153.492" x2="89.4579" y2="171.441" gradientUnits="userSpaceOnUse">
<stop stop-color="#42307D"/>
<stop offset="1" stop-color="#7F56D9"/>
</linearGradient>
<linearGradient id="paint2_linear_3323_1721" x1="110.236" y1="174.787" x2="118.396" y2="189.268" gradientUnits="userSpaceOnUse">
<stop stop-color="#42307D"/>
<stop offset="1" stop-color="#7F56D9"/>
</linearGradient>
<linearGradient id="paint3_linear_3323_1721" x1="41.851" y1="136.366" x2="48.2526" y2="150.97" gradientUnits="userSpaceOnUse">
<stop stop-color="#42307D"/>
<stop offset="1" stop-color="#7F56D9"/>
</linearGradient>
<linearGradient id="paint4_linear_3323_1721" x1="71.7555" y1="180.866" x2="79.0428" y2="199.591" gradientUnits="userSpaceOnUse">
<stop stop-color="#42307D"/>
<stop offset="1" stop-color="#7F56D9"/>
</linearGradient>
<linearGradient id="paint5_linear_3323_1721" x1="36.6899" y1="163.636" x2="41.5405" y2="174.789" gradientUnits="userSpaceOnUse">
<stop stop-color="#42307D"/>
<stop offset="1" stop-color="#7F56D9"/>
</linearGradient>
</defs>
</svg>
