<svg width="178" height="100" viewBox="0 0 178 100" fill="none" xmlns="http://www.w3.org/2000/svg">
<path d="M36.6022 0.87793C6.91011 6.27563 0.802765 27.9315 23.153 48.6768C38.2265 62.5938 63.8254 75.1451 83.057 78.0065C90.3338 79.047 101.119 78.4617 106.577 76.7059C114.633 74.1696 119.636 67.5363 118.467 61.033C116.647 51.2131 104.043 41.5233 87.3451 37.2311C76.8847 34.5648 60.057 34.3046 59.2124 36.8409C58.8875 37.8164 60.1869 38.0115 71.1022 38.8569C82.0824 39.7024 90.2689 41.7834 98.3903 45.7504C108.461 50.6928 114.308 57.1961 114.308 63.4392C114.308 70.0725 105.472 74.6898 92.6079 74.6898C71.3621 74.6898 42.1248 61.6183 24.9723 44.4497C16.8508 36.3207 13.992 31.2481 13.992 24.6148C13.9271 21.1031 14.2519 19.8674 15.7463 17.2661C24.3225 2.63381 55.8988 0.227608 92.8677 11.4132C113.074 17.4612 127.758 23.6393 139.907 31.053C148.484 36.3207 155.241 39.052 150.888 35.4752C147.379 32.5488 131.461 22.7939 125.029 19.6073C108.591 11.4132 83.5118 3.54427 65.5146 0.87793C57.2632 -0.292656 43.0344 -0.292656 36.6022 0.87793Z" fill="url(#paint0_linear_3323_1728)"/>
<path d="M56.8081 22.7292C51.5454 23.5096 46.4776 26.1109 44.8533 28.7772C42.8392 32.0289 43.0341 36.6462 45.3731 40.288C49.5313 46.9213 61.551 53.9448 74.1556 57.1314C80.2629 58.6922 90.5285 59.6026 91.1782 58.5621C91.8279 57.5216 90.9183 57.1964 85.3307 56.4161C70.0623 54.335 50.116 43.5396 47.972 36.256C46.8674 32.6792 47.972 30.6632 52.1951 28.5821C54.9239 27.2165 56.5482 26.9563 63.89 26.6962C73.051 26.371 78.5736 27.1514 90.2686 30.2079C104.822 34.0449 122.04 41.5886 133.41 49.1324C141.141 54.205 150.237 63.1144 152.901 68.1219C156.41 74.6902 155.11 81.0634 149.263 86.0709C137.503 96.1509 113.399 98.8173 84.3561 93.1594C69.6725 90.298 64.9296 88.6072 38.4211 76.6412C35.0426 75.1454 32.1838 74.1049 31.9889 74.3C31.0143 75.2105 32.8985 76.9013 39.0058 80.4781C51.6753 88.0219 68.503 94.1349 84.681 97.0614C109.565 101.679 129.901 100.508 143.87 93.6147C150.108 90.4931 154.006 87.3065 156.41 83.2745C157.904 80.6732 158.164 79.5026 158.164 75.3405C158.164 71.2435 157.839 69.8128 156.215 66.5611C153.551 61.2285 143.74 51.4736 135.814 46.206C111.774 30.338 75.9748 19.6727 56.8081 22.7292Z" fill="url(#paint1_linear_3323_1728)"/>
<path d="M0.283044 53.9445C-0.626561 55.3102 0.737846 60.5128 3.20677 65.4553C7.10508 73.1941 15.5514 82.6238 15.5514 79.1771C15.5514 78.7219 13.4723 75.2101 10.9384 71.3082C8.40451 67.4713 5.2209 61.8134 3.79152 58.7569C2.36214 55.7004 1.0627 53.2291 0.932761 53.2291C0.802818 53.2291 0.477959 53.5543 0.283044 53.9445Z" fill="url(#paint2_linear_3323_1728)"/>
<path d="M173.108 68.1869C172.913 68.5121 173.238 70.4631 173.823 72.414C174.798 75.7957 174.798 76.316 173.758 79.4376C173.173 81.3235 171.809 84.315 170.769 86.1359C168.69 89.8428 168.365 91.5986 169.86 91.5986C171.029 91.5986 174.343 87.1764 176.422 82.8192C178.631 78.2019 178.501 74.43 176.032 70.5931C174.018 67.3415 173.758 67.1464 173.108 68.1869Z" fill="url(#paint3_linear_3323_1728)"/>
<defs>
<linearGradient id="paint0_linear_3323_1728" x1="9.67454" y1="0.000475703" x2="76.0379" y2="120.495" gradientUnits="userSpaceOnUse">
<stop stop-color="#42307D"/>
<stop offset="1" stop-color="#7F56D9"/>
</linearGradient>
<linearGradient id="paint1_linear_3323_1728" x1="31.7441" y1="22.2066" x2="100.968" y2="134.947" gradientUnits="userSpaceOnUse">
<stop stop-color="#42307D"/>
<stop offset="1" stop-color="#7F56D9"/>
</linearGradient>
<linearGradient id="paint2_linear_3323_1728" x1="-0.000242182" y1="53.2293" x2="23.2149" y2="66.7614" gradientUnits="userSpaceOnUse">
<stop stop-color="#42307D"/>
<stop offset="1" stop-color="#7F56D9"/>
</linearGradient>
<linearGradient id="paint3_linear_3323_1728" x1="168.934" y1="67.6258" x2="184.78" y2="73.6088" gradientUnits="userSpaceOnUse">
<stop stop-color="#42307D"/>
<stop offset="1" stop-color="#7F56D9"/>
</linearGradient>
</defs>
</svg>
