<svg width="225" height="197" viewBox="0 0 225 197" fill="none" xmlns="http://www.w3.org/2000/svg">
<path d="M221.148 117.661C219.3 117.245 217.619 118.293 218.425 119.41C219.07 120.415 223.405 120.899 224.485 120.146C225.219 119.547 223.337 118.157 221.148 117.661Z" fill="url(#paint0_linear_3323_1741)"/>
<path d="M147.375 72.2696C146.88 72.6383 145.908 74.2599 145.24 76.0138C143.358 80.6468 143.028 80.8926 139.412 80.5128C133.836 79.8768 133.44 81.5822 138.111 85.7888L140.942 88.317L139.416 93.1195C138.531 95.7528 138.008 98.3212 138.286 98.8319C138.869 100.268 142.349 99.365 146.008 96.8421L149.322 94.4744L151.342 96.1205C152.814 97.3045 153.655 97.5741 154.528 97.231C155.619 96.8022 155.671 96.0458 155.144 92.8249C154.456 88.6989 154.742 87.9472 157.97 85.3614C160.868 83.0214 160.552 81.7705 156.915 81.5346C155.44 81.3784 153.895 81.0947 153.575 80.8718C153.202 80.6117 152.251 78.6807 151.465 76.6268C149.84 72.4819 148.8 71.3606 147.375 72.2696ZM149.351 79.4336L149.908 81.2484L148.289 81.0713C146.851 80.8618 146.728 80.697 147.104 79.1356C147.342 78.1124 147.612 77.2702 147.723 77.1101C148.095 76.5766 148.848 77.6559 149.351 79.4336ZM150.153 88.3953C148.889 90.2093 148.798 90.2255 146.773 88.8138C145.387 87.8479 144.773 87.0239 144.969 86.2884C145.424 84.3859 146.046 83.9476 148.171 84.0808C151.052 84.2654 151.827 85.9944 150.153 88.3953ZM141.761 84.5281C141.575 84.7949 141.176 84.913 140.856 84.6901C140.59 84.5044 140.509 84.0519 140.695 83.7851C140.918 83.465 141.334 83.4373 141.6 83.6231C141.92 83.846 141.984 84.208 141.761 84.5281ZM144.774 93.8412C141.95 96.0745 141.417 95.703 142.818 92.5572C143.576 90.787 143.794 90.7013 145.02 91.5557C146.3 92.4473 146.279 92.5912 144.774 93.8412Z" fill="url(#paint1_linear_3323_1741)"/>
<path d="M192.456 105.195C191.146 104.916 190.007 105.073 189.906 105.558C189.44 107.136 195.54 109.406 197.152 108.23C198.05 107.509 195.364 105.795 192.456 105.195Z" fill="url(#paint2_linear_3323_1741)"/>
<path d="M178.938 99.0238C176.61 98.2733 175.726 98.2914 175.349 99.0593C174.856 100.222 175.48 100.577 180.615 102.412C182.639 103.03 184.168 103.224 184.503 102.744C185.172 101.783 183.003 100.351 178.938 99.0238Z" fill="url(#paint3_linear_3323_1741)"/>
<path d="M162.299 92.1042C159.503 91.3442 157.783 91.652 158.025 93.0096C158.202 94.0051 167.482 96.8262 168.381 96.105C169.279 95.3837 165.634 93.0014 162.299 92.1042Z" fill="url(#paint4_linear_3323_1741)"/>
<path d="M154.92 99.1687C153.973 99.6184 155.763 103.64 157.758 105.665C161.534 109.565 160.919 104.538 157.057 100.42C156.247 99.5382 155.356 98.9972 154.92 99.1687Z" fill="url(#paint5_linear_3323_1741)"/>
<path d="M42.6554 22.193C42.3579 22.6198 41.7593 24.5014 41.3045 26.4039C40.8496 28.3064 40.3254 30.0813 40.1394 30.3481C39.9535 30.6148 38.2925 30.7255 36.4021 30.597C31.5244 30.2096 31.1539 31.5367 35.3016 34.9032L38.527 37.5475L37.31 42.2481C36.4424 45.7655 36.3755 47.225 37.154 47.9261C38.2846 49.0311 39.6567 48.085 42.2597 44.3503L44.0073 41.8427L47.9567 44.3575C53.1159 47.6362 54.0679 46.9521 51.6741 41.6373C50.7282 39.4719 49.9955 37.4552 50.0215 37.077C50.0475 36.6988 51.3825 35.806 53.0212 35.0456C57.5009 32.936 56.6257 31.6919 50.5394 31.3342L46.7587 31.0773L45.736 27.4315C45.1843 25.3823 44.8991 23.5189 45.0478 23.3055C45.1966 23.0921 44.8656 22.5443 44.2792 22.1357C43.6929 21.727 42.9529 21.7661 42.6554 22.193ZM44.622 36.643C43.2349 38.2922 42.7131 38.2455 42.4068 36.526C42.1378 34.7531 43.7702 33.4335 44.8636 34.5918C45.3917 35.1977 45.3235 35.8636 44.622 36.643ZM47.7694 40.422C47.7434 40.8002 47.4508 40.9927 47.1843 40.8069C46.8645 40.584 46.7839 40.1315 46.9698 39.8647C47.1929 39.5446 47.4483 39.4055 47.5549 39.4798C47.7148 39.5913 47.8326 39.9904 47.7694 40.422Z" fill="url(#paint6_linear_3323_1741)"/>
<path d="M123.719 78.3731C121.2 78.1237 121.681 79.2516 125.145 81.6664C127.064 83.0038 128.759 83.8677 128.908 83.6543C129.986 82.1071 126.509 78.5739 123.719 78.3731Z" fill="url(#paint7_linear_3323_1741)"/>
<path d="M111.429 71.235C110.108 70.6311 109.064 70.5378 108.549 71.0504C107.831 71.7392 108.092 72.1593 110.278 73.6825C111.664 74.6484 113.481 75.6771 114.285 76C116.022 76.5762 117.149 75.3005 115.71 74.2975C115.123 73.8888 114.451 73.262 114.099 72.8581C113.801 72.4913 112.591 71.7274 111.429 71.235Z" fill="url(#paint8_linear_3323_1741)"/>
<path d="M185.823 125.621L182.613 126.476L179.894 123.788C176.416 120.254 173.283 118.387 172.326 119.306C171.938 119.749 171.851 122.146 172.228 124.787L172.795 129.541L169.91 130.385C168.314 130.857 166.803 131.548 166.58 131.868C166.059 132.615 168.138 134.064 171.697 135.435L174.595 136.503L175.449 141.3C176.663 147.853 177.755 148.218 181.229 143.347L183.886 139.649L186.378 140.277C189.803 141.158 190.615 139.425 188.342 136.096C186.298 133.007 186.264 132.032 188.458 128.885C190.838 125.47 189.958 124.46 185.823 125.621ZM178.727 126.938C179.123 127.848 179.011 128.008 177.563 128.267C176.078 128.58 176.009 128.452 175.59 126.099L175.101 123.618L176.701 124.733C177.607 125.364 178.487 126.374 178.727 126.938ZM182.761 132.286C182.874 132.92 182.583 133.906 182.099 134.599C181.021 136.146 178.129 135.637 177.088 133.722C176.276 132.047 176.85 131.337 179.367 130.793C181.613 130.297 182.471 130.657 182.761 132.286ZM179.633 140.411C178.852 141.531 178.799 141.494 178.455 139.828C178.176 138.524 178.33 138.076 178.996 138.143C180.311 138.188 180.562 139.077 179.633 140.411Z" fill="url(#paint9_linear_3323_1741)"/>
<path d="M93.0099 59.8246C92.3653 59.6131 91.6575 59.8332 91.4295 60.3877C91.0688 61.2461 91.5274 61.7243 93.7339 63.1036C96.8676 64.9706 98.5237 65.0943 97.8555 63.4396C97.4278 62.3488 95.0131 60.5865 93.0099 59.8246Z" fill="url(#paint10_linear_3323_1741)"/>
<path d="M76.275 49.7465C75.9503 49.7579 75.4557 50.1267 75.1582 50.5535C74.8235 51.0337 75.581 51.8786 78.0862 53.6247C81.4976 56.0023 83.5106 56.2955 82.7036 54.3855C82.2226 53.2576 77.1266 49.5473 76.275 49.7465Z" fill="url(#paint11_linear_3323_1741)"/>
<path d="M132.444 91.1929C130.012 91.9552 128.997 93.0708 130.063 93.8139C130.969 94.4454 134.758 93.44 135.502 92.373C136.357 91.1459 134.658 90.5163 132.444 91.1929Z" fill="url(#paint12_linear_3323_1741)"/>
<path d="M163.418 112.543C162.637 113.663 166.018 120.062 167.194 119.851C168.552 119.608 168.346 117.404 166.776 114.883C165.223 112.453 164.05 111.636 163.418 112.543Z" fill="url(#paint13_linear_3323_1741)"/>
<path d="M62.4522 42.6493C61.1308 42.0454 60.1404 41.9893 59.8057 42.4695C58.6158 44.1767 65.3357 47.8297 66.8454 46.3453C67.7279 45.5336 66.5763 44.5724 62.4522 42.6493Z" fill="url(#paint14_linear_3323_1741)"/>
<path d="M123.052 94.5556C120.157 95.0741 116.747 96.8988 116.908 97.8038C117.23 99.6138 124.495 97.9394 126.094 95.6453C127.061 94.2581 126.219 93.9885 123.052 94.5556Z" fill="url(#paint15_linear_3323_1741)"/>
<path d="M52.102 52.9541C51.5442 53.7543 52.4976 57.2725 53.462 57.7068C55.0338 58.406 55.6919 57.1208 54.5973 55.1688C53.4544 52.9454 52.6226 52.2071 52.102 52.9541Z" fill="url(#paint16_linear_3323_1741)"/>
<path d="M160.051 128.508C156.713 128.639 158.032 131.064 161.44 131.061C162.377 131.08 163.319 130.865 163.542 130.544C164.026 129.851 161.675 128.451 160.051 128.508Z" fill="url(#paint17_linear_3323_1741)"/>
<path d="M150.316 126.796C147.674 126.381 145.557 127.601 147.05 128.641C148.489 129.644 153.564 130.09 154.159 129.236C154.902 128.169 153.426 127.219 150.316 126.796Z" fill="url(#paint18_linear_3323_1741)"/>
<path d="M56.4472 63.1958C55.5746 63.5388 56.2813 69.3425 57.3474 70.0855C58.5734 70.9399 59.4323 68.6849 58.6835 66.5776C57.5281 63.2357 57.2665 62.8156 56.4472 63.1958Z" fill="url(#paint19_linear_3323_1741)"/>
<path d="M102.791 100.331C99.2572 101.198 98.0871 101.967 98.6214 103.133C98.878 103.787 107.314 102.136 107.909 101.283C108.765 100.056 105.963 99.5299 102.791 100.331Z" fill="url(#paint20_linear_3323_1741)"/>
<path d="M58.6114 77.7037C57.8677 78.7708 58.8967 82.9758 60.0854 83.8836C61.5246 84.8866 62.0811 83.2928 61.3472 80.4824C60.6133 77.6721 59.4666 76.4766 58.6114 77.7037Z" fill="url(#paint21_linear_3323_1741)"/>
<path d="M116.462 118.896C112.526 118.293 110.723 119.176 112.855 120.662C114.401 121.74 121.644 122.824 122.579 122.05C123.643 121.205 120.451 119.536 116.462 118.896Z" fill="url(#paint22_linear_3323_1741)"/>
<path d="M89.6253 103.996C86.2289 104.324 82.4198 106.267 82.6616 107.625C82.9034 108.982 83.6434 108.943 88.3685 107.163C91.2207 106.139 92.4281 105.316 92.3152 104.682C92.2024 104.048 91.3768 103.869 89.6253 103.996Z" fill="url(#paint23_linear_3323_1741)"/>
<path d="M101.867 115.065C96.7328 114.023 94.8909 114.167 95.8516 115.629C97.0577 117.421 107.209 119.105 107.259 117.555C107.337 116.421 106.48 116.06 101.867 115.065Z" fill="url(#paint24_linear_3323_1741)"/>
<path d="M71.2162 98.934L68.747 99.7497L66.4215 97.1777C65.1893 95.764 63.5629 94.2342 62.8167 93.7141C60.8445 92.3395 59.7141 94.6432 60.4282 98.3909L61.0295 101.505L57.2824 102.223C54.9297 102.644 53.3282 103.351 53.0791 104.049C52.6068 105.068 53.0122 105.509 57.2281 108.209L61.8171 111.17L61.6399 113.583C60.925 122.676 64.2459 125.07 67.0396 117.426L68.227 114.131L69.836 114.777C74.5724 116.731 75.2542 116.889 75.7748 116.142C76.0723 115.715 75.3074 113.517 74.0739 111.31C71.5053 106.587 71.4297 105.9 73.2889 103.232C76.0778 99.2309 75.3352 97.6829 71.2162 98.934ZM64.7978 100.644C64.6119 100.91 64.3193 101.103 64.2127 101.029C64.0528 100.917 63.9722 100.465 63.9982 100.086C64.0614 99.6548 64.3168 99.5157 64.5833 99.7015C64.9031 99.9244 65.0209 100.324 64.7978 100.644ZM67.7655 105.249C67.8783 105.882 67.364 107.188 66.6574 108.202L65.3188 110.123L64.803 107.227C64.3678 104.783 64.5215 104.335 65.5912 104.05C67.0973 103.594 67.5076 103.801 67.7655 105.249ZM61.2082 106.703C61.0546 107.151 60.3889 107.083 59.5361 106.489C58.2568 105.597 58.2246 105.416 59.2943 105.131C60.6727 104.744 61.5416 105.429 61.2082 106.703Z" fill="url(#paint25_linear_3323_1741)"/>
<path d="M83.8946 109.832C81.4501 109.476 79.8499 110.976 81.7787 111.845C83.8141 112.788 89.0067 113.633 89.4157 113.046C89.9735 112.245 86.5733 110.193 83.8946 109.832Z" fill="url(#paint26_linear_3323_1741)"/>
<defs>
<linearGradient id="paint0_linear_3323_1741" x1="219.944" y1="116.097" x2="219.528" y2="122.337" gradientUnits="userSpaceOnUse">
<stop stop-color="#42307D"/>
<stop offset="1" stop-color="#7F56D9"/>
</linearGradient>
<linearGradient id="paint1_linear_3323_1741" x1="143.741" y1="68.5777" x2="152.16" y2="105.404" gradientUnits="userSpaceOnUse">
<stop stop-color="#42307D"/>
<stop offset="1" stop-color="#7F56D9"/>
</linearGradient>
<linearGradient id="paint2_linear_3323_1741" x1="191.433" y1="103.318" x2="190.274" y2="109.308" gradientUnits="userSpaceOnUse">
<stop stop-color="#42307D"/>
<stop offset="1" stop-color="#7F56D9"/>
</linearGradient>
<linearGradient id="paint3_linear_3323_1741" x1="177.081" y1="96.5487" x2="175.482" y2="103.638" gradientUnits="userSpaceOnUse">
<stop stop-color="#42307D"/>
<stop offset="1" stop-color="#7F56D9"/>
</linearGradient>
<linearGradient id="paint4_linear_3323_1741" x1="160.122" y1="89.4224" x2="158.34" y2="97.1115" gradientUnits="userSpaceOnUse">
<stop stop-color="#42307D"/>
<stop offset="1" stop-color="#7F56D9"/>
</linearGradient>
<linearGradient id="paint5_linear_3323_1741" x1="155.081" y1="98.8528" x2="153.877" y2="106.388" gradientUnits="userSpaceOnUse">
<stop stop-color="#42307D"/>
<stop offset="1" stop-color="#7F56D9"/>
</linearGradient>
<linearGradient id="paint6_linear_3323_1741" x1="40.6149" y1="19.5819" x2="46.9676" y2="54.644" gradientUnits="userSpaceOnUse">
<stop stop-color="#42307D"/>
<stop offset="1" stop-color="#7F56D9"/>
</linearGradient>
<linearGradient id="paint7_linear_3323_1741" x1="123.193" y1="77.1522" x2="121.684" y2="81.8615" gradientUnits="userSpaceOnUse">
<stop stop-color="#42307D"/>
<stop offset="1" stop-color="#7F56D9"/>
</linearGradient>
<linearGradient id="paint8_linear_3323_1741" x1="109.52" y1="69.5871" x2="107.907" y2="74.9138" gradientUnits="userSpaceOnUse">
<stop stop-color="#42307D"/>
<stop offset="1" stop-color="#7F56D9"/>
</linearGradient>
<linearGradient id="paint9_linear_3323_1741" x1="175.059" y1="115.38" x2="180.199" y2="150.356" gradientUnits="userSpaceOnUse">
<stop stop-color="#42307D"/>
<stop offset="1" stop-color="#7F56D9"/>
</linearGradient>
<linearGradient id="paint10_linear_3323_1741" x1="92.3903" y1="58.97" x2="91.0366" y2="63.8172" gradientUnits="userSpaceOnUse">
<stop stop-color="#42307D"/>
<stop offset="1" stop-color="#7F56D9"/>
</linearGradient>
<linearGradient id="paint11_linear_3323_1741" x1="76.1463" y1="49.1356" x2="74.5348" y2="53.8168" gradientUnits="userSpaceOnUse">
<stop stop-color="#42307D"/>
<stop offset="1" stop-color="#7F56D9"/>
</linearGradient>
<linearGradient id="paint12_linear_3323_1741" x1="132.325" y1="89.0664" x2="133.993" y2="95.6548" gradientUnits="userSpaceOnUse">
<stop stop-color="#42307D"/>
<stop offset="1" stop-color="#7F56D9"/>
</linearGradient>
<linearGradient id="paint13_linear_3323_1741" x1="163.892" y1="111.862" x2="163.534" y2="119.969" gradientUnits="userSpaceOnUse">
<stop stop-color="#42307D"/>
<stop offset="1" stop-color="#7F56D9"/>
</linearGradient>
<linearGradient id="paint14_linear_3323_1741" x1="60.8678" y1="40.9454" x2="59.485" y2="46.4909" gradientUnits="userSpaceOnUse">
<stop stop-color="#42307D"/>
<stop offset="1" stop-color="#7F56D9"/>
</linearGradient>
<linearGradient id="paint15_linear_3323_1741" x1="121.436" y1="91.0658" x2="124.474" y2="100.783" gradientUnits="userSpaceOnUse">
<stop stop-color="#42307D"/>
<stop offset="1" stop-color="#7F56D9"/>
</linearGradient>
<linearGradient id="paint16_linear_3323_1741" x1="52.4435" y1="52.4639" x2="52.6507" y2="58.4296" gradientUnits="userSpaceOnUse">
<stop stop-color="#42307D"/>
<stop offset="1" stop-color="#7F56D9"/>
</linearGradient>
<linearGradient id="paint17_linear_3323_1741" x1="159.606" y1="127.15" x2="159.269" y2="132.508" gradientUnits="userSpaceOnUse">
<stop stop-color="#42307D"/>
<stop offset="1" stop-color="#7F56D9"/>
</linearGradient>
<linearGradient id="paint18_linear_3323_1741" x1="148.868" y1="124.416" x2="148.542" y2="132.017" gradientUnits="userSpaceOnUse">
<stop stop-color="#42307D"/>
<stop offset="1" stop-color="#7F56D9"/>
</linearGradient>
<linearGradient id="paint19_linear_3323_1741" x1="56.6495" y1="62.8225" x2="58.0228" y2="70.5752" gradientUnits="userSpaceOnUse">
<stop stop-color="#42307D"/>
<stop offset="1" stop-color="#7F56D9"/>
</linearGradient>
<linearGradient id="paint20_linear_3323_1741" x1="102.451" y1="96.6698" x2="104.54" y2="106.787" gradientUnits="userSpaceOnUse">
<stop stop-color="#42307D"/>
<stop offset="1" stop-color="#7F56D9"/>
</linearGradient>
<linearGradient id="paint21_linear_3323_1741" x1="59.1489" y1="76.9322" x2="60.0552" y2="84.6061" gradientUnits="userSpaceOnUse">
<stop stop-color="#42307D"/>
<stop offset="1" stop-color="#7F56D9"/>
</linearGradient>
<linearGradient id="paint22_linear_3323_1741" x1="114.606" y1="115.581" x2="113.297" y2="124.723" gradientUnits="userSpaceOnUse">
<stop stop-color="#42307D"/>
<stop offset="1" stop-color="#7F56D9"/>
</linearGradient>
<linearGradient id="paint23_linear_3323_1741" x1="87.1069" y1="100.809" x2="90.2343" y2="110.832" gradientUnits="userSpaceOnUse">
<stop stop-color="#42307D"/>
<stop offset="1" stop-color="#7F56D9"/>
</linearGradient>
<linearGradient id="paint24_linear_3323_1741" x1="98.4825" y1="110.731" x2="97.0585" y2="120.66" gradientUnits="userSpaceOnUse">
<stop stop-color="#42307D"/>
<stop offset="1" stop-color="#7F56D9"/>
</linearGradient>
<linearGradient id="paint25_linear_3323_1741" x1="62.5541" y1="90.4085" x2="68.8346" y2="125.941" gradientUnits="userSpaceOnUse">
<stop stop-color="#42307D"/>
<stop offset="1" stop-color="#7F56D9"/>
</linearGradient>
<linearGradient id="paint26_linear_3323_1741" x1="82.9536" y1="107.817" x2="81.8223" y2="114.967" gradientUnits="userSpaceOnUse">
<stop stop-color="#42307D"/>
<stop offset="1" stop-color="#7F56D9"/>
</linearGradient>
</defs>
</svg>
