<svg width="101" height="86" viewBox="0 0 101 86" fill="none" xmlns="http://www.w3.org/2000/svg">
<path d="M47.2971 1.04439C43.0331 3.78673 43.0724 11.5969 47.3364 13.7908C48.2403 14.2515 48.2796 14.427 48.2796 18.9903V23.7291L35.016 23.8607C22.1847 23.9923 21.6934 24.0143 19.8267 24.9796C15.1893 27.3709 12.2812 31.8464 11.7899 37.2872L11.5345 40.227L7.52592 40.4464C0.275139 40.8413 -0.117857 41.675 0.0196915 55.8913C0.17689 69.4714 0.569886 70.2393 7.72242 70.6342L11.6327 70.8316L11.8685 72.7403C12.4187 77.1281 15.3269 81.5816 19.0604 83.6878L21.3594 84.9821L49.9105 85.1138C78.4224 85.2235 78.4617 85.2235 80.7411 84.2582C84.9461 82.5031 88.1687 78.225 89.1512 73.0913L89.5835 70.8316L93.3366 70.6122C100.293 70.2173 100.705 69.3837 100.862 55.8913C101 41.6969 100.391 40.4464 93.2777 40.4464H89.6621L89.4067 37.7699C88.8958 32.2413 85.7518 27.2173 81.3895 24.9796C79.6014 24.0362 78.9726 23.9923 66.0627 23.8607L52.6026 23.7291V19.1439V14.5587L53.8798 13.6372C60.9144 8.48163 54.5676 -3.60663 47.2971 1.04439ZM80.8786 28.8628C86.0858 32.1536 86.4788 34.1061 86.3216 55.8694L86.2037 72.6964L85.1033 75.2194C82.1755 81.8449 82.9615 81.6913 50.2642 81.6913H22.9314L20.9664 80.6602C15.1304 77.6107 14.816 76.2505 14.9535 53.8291L15.0714 35.4005L16.1522 33.3383C19.3944 27.1735 18.5495 27.327 51.2271 27.4148L78.7368 27.5025L80.8786 28.8628ZM11.731 55.3648V66.773H8.19401C2.86891 66.773 3.08506 67.2556 3.08506 55.3648C3.08506 43.474 2.86891 43.9566 8.19401 43.9566H11.731V55.3648ZM96.9915 44.9219C97.7578 45.8214 97.7971 46.4138 97.7971 55.4525C97.7971 67.1898 97.974 66.773 92.8847 66.773H89.5442V55.3648V43.9566H92.865C95.7928 43.9566 96.2841 44.0663 96.9915 44.9219Z" fill="url(#paint0_linear_3340_783)"/>
<path d="M31.007 40.578C27.6273 41.7847 25.3086 46.5892 26.2518 50.4724C27.8827 57.2076 36.116 58.853 39.5154 53.1051C43.4454 46.5015 37.7862 38.1648 31.007 40.578ZM35.0942 44.1321C37.8648 45.4265 38.4936 49.2658 36.3321 51.679C34.8387 53.3464 33.2864 53.6097 31.4393 52.5566C26.8216 49.8801 30.2996 41.8944 35.0942 44.1321Z" fill="url(#paint1_linear_3340_783)"/>
<path d="M65.3753 40.5342C60.3646 42.4868 58.5765 49.222 61.8973 53.6098C66.3578 59.5332 75.0037 56.1108 75.0037 48.4103C75.0037 42.9475 69.8948 38.7791 65.3753 40.5342ZM69.2857 44.1322C73.1763 45.9531 72.1152 53.171 67.9495 53.171C62.9584 53.171 61.7205 46.0848 66.3578 44.0006C67.6744 43.4302 67.753 43.4302 69.2857 44.1322Z" fill="url(#paint2_linear_3340_783)"/>
<path d="M38.533 65.1055C37.6684 66.0708 38.0025 67.5627 39.3583 68.7035C45.6855 74.1004 54.6066 74.2101 61.4054 68.9887C65.7087 65.6979 62.4468 63.0433 57.8684 66.1147C52.7398 69.5591 47.6898 69.4933 42.9149 65.8953C41.0875 64.5132 39.3387 64.206 38.533 65.1055Z" fill="url(#paint3_linear_3340_783)"/>
<defs>
<linearGradient id="paint0_linear_3340_783" x1="-0.00157098" y1="0.00046317" x2="83.954" y2="99.4498" gradientUnits="userSpaceOnUse">
<stop stop-color="#42307D"/>
<stop offset="1" stop-color="#7F56D9"/>
</linearGradient>
<linearGradient id="paint1_linear_3340_783" x1="26.0398" y1="40.1522" x2="42.3981" y2="54.8348" gradientUnits="userSpaceOnUse">
<stop stop-color="#42307D"/>
<stop offset="1" stop-color="#7F56D9"/>
</linearGradient>
<linearGradient id="paint2_linear_3340_783" x1="60.2068" y1="40.1278" x2="76.5955" y2="54.8387" gradientUnits="userSpaceOnUse">
<stop stop-color="#42307D"/>
<stop offset="1" stop-color="#7F56D9"/>
</linearGradient>
<linearGradient id="paint3_linear_3340_783" x1="38.0562" y1="64.5956" x2="42.8927" y2="79.4931" gradientUnits="userSpaceOnUse">
<stop stop-color="#42307D"/>
<stop offset="1" stop-color="#7F56D9"/>
</linearGradient>
</defs>
</svg>
