<svg width="107" height="104" viewBox="0 0 107 104" fill="none" xmlns="http://www.w3.org/2000/svg">
<g clip-path="url(#clip0_3330_785)">
<path d="M38.7218 23.6234C38.5308 24.1842 38.4276 25.0131 38.5256 25.4762C38.8626 27.2147 60.5232 80.0979 61.3072 81.0688C63.6923 84.068 68.1239 83.1778 68.138 79.6873C68.1453 77.874 46.795 25.1017 45.3043 23.2556C43.2172 20.6711 39.7206 20.8739 38.7218 23.6234Z" fill="url(#paint0_linear_3330_785)"/>
<path d="M19.2085 43.6728C18.6164 44.648 17.4339 73.6621 17.9146 75.5558C18.2642 76.9227 19.07 78.0116 20.2989 78.7363C21.8489 79.6535 51.1158 84.6895 52.1166 84.1976C54.9854 82.8073 54.7249 78.6122 51.6365 76.6555C51.0941 76.3027 45.5278 75.127 38.4857 73.8778C31.7652 72.6852 26.2318 71.5958 26.1768 71.4595C26.1329 71.3368 26.299 65.9387 26.547 59.4805C26.795 53.0222 26.9074 47.1705 26.7992 46.4671C26.2047 42.5417 21.0962 40.6574 19.2085 43.6728Z" fill="url(#paint1_linear_3330_785)"/>
<path d="M50.6165 18.6722C49.7981 20.7339 51.0077 23.5074 53.2226 24.6558C53.732 24.9222 59.5204 26.0767 66.108 27.2186C72.6955 28.3604 78.1626 29.3677 78.2399 29.4635C78.3284 29.5502 78.1947 35.1706 77.9564 41.9825C77.6941 49.2431 77.6717 54.7962 77.9022 55.4234C79.1756 58.8683 83.2106 60.0154 85.1851 57.4947C85.8767 56.62 87.1174 26.9262 86.536 25.2268C86.0975 23.8865 85.2027 22.8695 83.9401 22.2399C81.9686 21.2563 53.5887 16.4303 52.3773 16.8664C51.0547 17.347 51.1884 17.2164 50.6165 18.6722Z" fill="url(#paint2_linear_3330_785)"/>
</g>
<defs>
<linearGradient id="paint0_linear_3330_785" x1="23.9955" y1="34.8637" x2="66.4226" y2="20.7361" gradientUnits="userSpaceOnUse">
<stop stop-color="#42307D"/>
<stop offset="1" stop-color="#7F56D9"/>
</linearGradient>
<linearGradient id="paint1_linear_3330_785" x1="2.35206" y1="57.0528" x2="48.3647" y2="47.0488" gradientUnits="userSpaceOnUse">
<stop stop-color="#42307D"/>
<stop offset="1" stop-color="#7F56D9"/>
</linearGradient>
<linearGradient id="paint2_linear_3330_785" x1="48.5447" y1="19.5528" x2="94.5556" y2="9.48414" gradientUnits="userSpaceOnUse">
<stop stop-color="#42307D"/>
<stop offset="1" stop-color="#7F56D9"/>
</linearGradient>
<clipPath id="clip0_3330_785">
<rect width="85.866" height="63.9798" fill="white" transform="translate(0 54.1685) rotate(-38.9212)"/>
</clipPath>
</defs>
</svg>
