<svg width="43" height="50" viewBox="0 0 43 50" fill="none" xmlns="http://www.w3.org/2000/svg">
<path d="M7.02755 10.0362C6.98949 11.1927 7.60216 14.0004 8.39217 16.1931L9.8488 20.22L5.73013 25.9248C0.958195 32.6083 0.268957 34.2359 1.28396 36.3632C2.47211 38.8908 4.40136 39.3249 11.2288 38.7852C14.7511 38.4368 17.9806 38.4364 18.3289 38.7294C18.6773 39.0225 20.4648 41.5448 22.2681 44.2502C24.0794 47.0472 26.0919 49.5041 26.7071 49.682C28.3277 50.281 29.3774 48.0227 30.6631 41.0386C31.259 37.8044 31.9286 34.8867 32.1377 34.6381C32.3887 34.3398 34.3819 33.3844 36.5584 32.4134C41.178 30.3562 42.7493 28.7913 42.7936 26.1118C42.8338 24.4476 42.3043 23.6626 39.2447 20.8343L35.6296 17.454L36.2816 12.7387C36.9897 6.54228 36.8689 3.55405 35.5611 1.77485C33.5746 -0.914882 29.2895 0.744556 24.932 5.824C22.3808 8.85701 20.3797 9.72073 18.4525 8.77893C15.7529 7.4421 11.4047 6.24675 9.71422 6.43795C7.69924 6.61087 7.12167 7.39855 7.02755 10.0362ZM15.1682 13.9969C15.5663 14.3318 15.5722 14.9311 15.2376 15.3288C14.5266 16.1741 14.3853 16.1401 13.6668 14.7716C13.0637 13.6701 14.0733 13.076 15.1682 13.9969ZM13.0649 27.5097C13.7118 28.0539 15.296 31.424 15.0451 31.7223C14.5432 32.319 9.62915 33.1098 9.13147 32.6911C8.88263 32.4818 9.05202 31.7753 9.49617 31.0452C10.2251 29.8755 12.816 27.3004 13.0649 27.5097ZM20.9174 18.5781C22.5025 17.704 23.259 17.9159 26.7052 19.8806C28.6482 21.0056 28.7059 21.139 27.9326 24.9882L27.0756 28.9369L24.059 29.7955L21.0006 30.7038L19.4879 28.1579C16.7352 23.5503 17.1798 20.698 20.9174 18.5781ZM30.5679 9.63065C31.1133 10.5988 30.2843 13.8069 29.4341 14.1105C29.1673 14.2257 28.3191 14.0217 27.6462 13.7104C26.5413 13.2055 26.6508 12.8731 28.2819 10.934C29.6202 9.34292 30.1878 8.9713 30.5679 9.63065ZM24.8799 36.5988C25.0292 36.7243 25.1108 37.1325 25.0092 37.5564C24.9494 37.9306 24.6407 38.0955 24.3919 37.8862C24.0933 37.635 24.0535 37.1771 24.2626 36.9285C24.5136 36.6302 24.7804 36.515 24.8799 36.5988Z" fill="url(#paint0_linear_3323_1781)"/>
<defs>
<linearGradient id="paint0_linear_3323_1781" x1="-9.59613" y1="27.8123" x2="54.8344" y2="26.7395" gradientUnits="userSpaceOnUse">
<stop stop-color="#42307D"/>
<stop offset="1" stop-color="#7F56D9"/>
</linearGradient>
</defs>
</svg>
