<svg width="86" height="142" viewBox="0 0 86 142" fill="none" xmlns="http://www.w3.org/2000/svg">
<path d="M1.90729 11.5677C2.32888 12.6213 3.55536 16.8388 4.56959 20.9569C7.43196 32.5499 11.8108 40.2353 16.1136 41.2962C17.8277 41.761 18.4611 41.6 20.3097 40.3363C22.4604 38.8957 25.2244 34.5376 25.6288 31.9801C25.7893 31.2989 26.2168 30.6432 26.6026 30.5852C27.6413 30.4946 37.7919 37.64 41.3108 40.9214C44.1349 43.5188 46.6442 47.0834 46.9053 48.8181C47.147 50.4243 43.9231 54.7859 39.8662 58.4186C30.9937 66.324 27.6993 71.0904 27.6173 76.2276C27.5846 84.314 38.5838 90.5433 61.8148 95.4578C74.112 98.0753 76.7331 99.3235 75.2066 101.853C74.8434 102.499 71.6704 105.013 68.1566 107.447C57.2582 115 54.1789 119.012 55.02 124.601C55.8707 130.255 63.3297 136.557 72.5947 139.565C78.319 141.332 84.3388 142.003 85.2131 140.82C86.0327 139.711 85.0614 138.938 82.2347 138.509C73.6712 137.104 62.7748 131.122 60.664 126.709C58.6175 122.286 59.2635 121.335 70.747 113.299C78.7809 107.688 81.0473 105.705 81.9438 103.796C84.8873 97.5709 80.7829 93.4579 68.9648 90.9654C52.9179 87.4667 46.9557 85.8671 42.3696 83.7976C37.433 81.5838 34.3613 79.0893 34.052 77.0334C33.6749 74.5277 36.3524 70.9053 43.415 64.5207C52.3774 56.339 53.8943 53.7454 53.0339 48.0273C52.5989 45.1361 51.9327 43.331 50.3628 41.2019C47.8728 37.7658 39.5552 31.0015 34.4865 28.3476L30.8394 26.3997L34.6622 24.7075C39.1731 22.7804 40.9056 20.7458 41.8144 16.7325C44.2803 5.58616 30.5154 -1.54108 11.9945 1.24572C4.66331 2.34883 1.6572 3.7867 1.07926 6.50178C0.597585 8.54536 0.7489 9.11392 1.90729 11.5677ZM11.4817 6.57913C27.3113 4.26298 39.9343 9.91949 35.3158 17.2504C34.0334 19.2174 33.8502 19.3106 27.3647 20.3522C23.7088 20.968 20.3744 21.5354 19.9339 21.6674C18.86 21.9604 19.2786 23.8685 20.7712 25.4836C21.8552 26.5689 22.0161 27.2017 21.6824 29.3544C21.3873 31.7641 18.662 36.3792 17.5045 36.5534C16.7971 36.6598 13.7409 32.5204 12.5342 29.7454C11.9357 28.39 10.3616 23.1735 9.07371 18.111C7.73121 13.1224 6.50472 8.90488 6.35677 8.79574C5.32111 8.03173 7.17303 7.22744 11.4817 6.57913Z" fill="url(#paint0_linear_3323_1778)"/>
<defs>
<linearGradient id="paint0_linear_3323_1778" x1="22.2067" y1="150.632" x2="125.533" y2="83.7655" gradientUnits="userSpaceOnUse">
<stop stop-color="#42307D"/>
<stop offset="1" stop-color="#7F56D9"/>
</linearGradient>
</defs>
</svg>
