<svg width="99" height="82" viewBox="0 0 99 82" fill="none" xmlns="http://www.w3.org/2000/svg">
<path d="M27.4499 2.4156C24.4096 3.947 20.8436 7.74444 19.6961 10.7614C17.8536 15.6169 16.989 23.7155 17.9897 27.8894C18.8842 31.6205 18.5657 31.9644 15.0377 31.7402C8.13838 31.388 1.99457 34.4659 0.912774 38.8716C0.0938439 42.1442 1.48621 46.5585 4.53899 50.3741C7.3896 53.9039 13.3083 57.9687 16.7983 58.8707C19.2826 59.4789 19.4367 59.8432 17.9178 62.1467C16.0627 64.999 16.328 66.9417 19.1635 70.4081C22.9036 74.8615 27.9984 77.7195 35.9213 79.8325C47.0991 82.7034 57.6782 82.2403 61.2265 78.6477C62.4826 77.4772 65.5762 70.3155 66.4128 66.8381C66.4456 66.6964 67.7194 66.9929 69.2761 67.3553C71.3358 67.8647 72.7233 67.7996 74.6844 67.0619C84.4119 63.3254 97.0816 43.4354 98.3128 29.8989C98.7324 25.5183 96.9156 17.6613 94.8762 15.0071C91.4671 10.5413 85.3664 9.06134 81.1661 11.6065C78.3608 13.2821 75.975 15.5929 73.3086 19.2415C72.1435 20.7915 71.0441 22.0582 70.7914 22.1187C70.5387 22.1793 69.639 20.6563 68.7116 18.7386C65.6993 12.3051 60.6551 9.10065 55.3504 10.1049C52.4921 10.7233 52.3354 10.6271 50.2808 7.90965C48.1328 5.08086 43.4802 2.11687 39.8486 1.18189C38.1503 0.786539 30.6798 0.83877 29.7144 1.27085C29.54 1.37953 28.5114 1.82676 27.4499 2.4156ZM36.4569 6.54255C40.2351 6.97426 43.6695 8.75901 46.1183 11.4488L48.2386 13.883L46.6286 17.479C44.5991 22.1118 44.129 25.1671 44.7151 29.8416C45.2028 33.269 45.041 33.7091 43.1935 35.757C39.9459 39.2106 38.452 48.8644 40.0111 55.6463C40.3143 56.9111 40.3977 58.0949 40.2536 58.33C40.1247 58.6285 38.0625 58.3872 35.6718 57.8904C33.281 57.3935 29.7378 57.1061 27.7514 57.1811C21.2868 57.5272 14.0868 53.9702 9.11589 48.0062C6.49777 44.8889 5.53246 41.9772 6.41959 39.8251C7.3699 37.6579 12.6746 36.6536 17.9287 37.6678C22.2856 38.5626 24.7623 38.3032 25.2476 36.9831C25.4094 36.5431 24.9647 33.5734 24.2546 30.333C22.2357 20.5183 23.7624 12.3947 28.3343 8.89112C31.0814 6.69438 32.8985 6.19187 36.4569 6.54255ZM58.206 14.7703C61.2564 15.5103 63.8694 19.1638 65.656 25.2224C68.2688 33.8917 70.0025 33.8773 75.8711 24.9135C80.668 17.6109 83.8448 14.9768 87.1176 15.5297C89.8242 15.9508 91.5502 18.4126 92.7783 23.5351C93.9154 28.2781 93.0079 34.247 90.0913 41.0319C86.2875 49.9688 76.944 61.4377 72.5844 62.4828C70.5626 62.9675 67.0675 62.6017 66.9007 61.9061C66.9184 61.7012 66.8426 59.7131 66.8478 57.505C66.8808 52.3477 65.0463 44.6956 62.8907 40.9992C60.3787 36.6527 56.7017 33.856 52.2032 32.9283C48.4756 32.15 48.3189 32.0539 48.228 30.0025C48.0664 25.4269 49.7548 20.2071 52.4615 17.2844C55.3755 14.1114 55.5019 14.0811 58.206 14.7703ZM54.7075 39.751C57.447 41.7024 59.6177 45.462 60.8155 50.458C62.5262 57.8723 61.3127 69.532 58.0726 75.5251L56.5006 78.4432L51.5068 78.2361C41.456 77.8369 31.0565 74.3113 25.1935 69.3638C22.0042 66.6508 21.6606 64.6601 24.1322 63.265C26.8415 61.7461 29.8666 61.8234 36.7381 63.4529C43.2482 64.9684 44.9819 64.954 45.8008 63.3533C46.0586 62.7565 45.8691 59.4582 45.4143 55.8891C44.4466 48.2298 44.7096 43.7529 46.2994 40.6299C47.28 38.5892 47.74 38.2783 49.7744 38.1249C51.3994 37.936 52.9385 38.5033 54.7075 39.751Z" fill="url(#paint0_linear_3323_1795)"/>
<defs>
<linearGradient id="paint0_linear_3323_1795" x1="-7.00164" y1="10.0577" x2="96.1019" y2="85.6574" gradientUnits="userSpaceOnUse">
<stop stop-color="#42307D"/>
<stop offset="1" stop-color="#7F56D9"/>
</linearGradient>
</defs>
</svg>
