<svg width="111" height="79" viewBox="0 0 111 79" fill="none" xmlns="http://www.w3.org/2000/svg">
<path d="M69.14 2.46752C58.9541 -1.60098 43.8456 -0.10005 32.7366 6.06359C28.8195 8.28412 27.9076 8.38827 24.2601 6.60722C19.5351 4.3499 9.39044 2.62419 5.15216 3.44542C1.20403 4.18357 -1.0346 8.435 0.571274 12.1349C1.91814 15.2027 8.97428 23.1499 14.2691 27.6771C16.6212 29.5936 17.5433 31.4487 17.8435 35.5226C20.4733 62.8677 44.8649 80.6847 70.2844 73.7981C78.5952 71.5752 78.7403 71.5336 86.9989 74.8983C100.615 80.2607 109.495 79.2089 110.086 72.2113C110.418 67.8779 105.725 61.6088 99.2486 57.8908C94.2645 55.0012 93.9019 54.5557 94.6793 52.0569C99.2607 36.7744 93.9151 19.1544 81.9369 10.1836C79.906 8.56751 77.4088 6.69255 76.4348 6.02962C75.5126 5.27337 72.2382 3.69945 69.14 2.46752ZM82.0399 17.6888C86.7337 22.8591 90.8672 35.4106 90.3485 42.9369C90.0581 46.3165 88.9179 50.5673 87.5706 52.9938C84.7723 58.0333 80.0674 62.991 77.912 63.1373C75.8084 63.1903 58.214 52.6883 43.4691 42.5475C22.8906 28.1908 23.0667 28.5328 27.7823 20.0402C34.2079 8.4678 47.752 2.31321 59.9898 5.32323C67.3158 7.07119 77.7088 12.9641 82.0399 17.6888ZM22.7048 18.1977C19.803 23.4239 19.4092 23.6937 17.544 22.658C15.0261 21.2599 8.80915 14.8776 6.74729 11.7791C6.03237 10.6496 5.89777 9.35387 6.58172 9.00104C8.5403 7.89078 19.659 9.18057 22.8298 10.9411L25.814 12.5982L22.7048 18.1977ZM102.066 67.758C103.517 69.5403 104.201 71.3851 103.651 71.9348C101.91 73.5322 96.3563 72.7681 90.1287 69.9207L84.3156 67.4255L86.3779 65.0298C91.1451 59.7404 91 59.7819 95.3831 62.2156C97.7145 63.5102 100.709 66.0276 102.066 67.758ZM50.4732 53.8846C61.0111 60.8347 69.7772 66.801 69.9016 67.2364C70.3263 68.449 63.5596 69.2094 56.8448 68.7776C47.4669 68.0882 37.1672 62.2471 31.3027 54.351C27.4276 49.0248 23.3767 38.9612 24.4131 37.0947C24.6722 36.6281 26.3094 37.415 28.1123 38.7824C29.822 40.0981 39.9352 46.9344 50.4732 53.8846Z" fill="url(#paint0_linear_3323_1784)"/>
<defs>
<linearGradient id="paint0_linear_3323_1784" x1="18.9208" y1="-26.0006" x2="21.1385" y2="102.109" gradientUnits="userSpaceOnUse">
<stop stop-color="#42307D"/>
<stop offset="1" stop-color="#7F56D9"/>
</linearGradient>
</defs>
</svg>
