<svg width="167" height="174" viewBox="0 0 167 174" fill="none" xmlns="http://www.w3.org/2000/svg">
<path d="M2.42199 32.0403C-0.30627 37.0412 0.118677 42.9805 3.73477 49.9112C11.3693 64.4443 34.3616 75.6369 56.4149 75.4952C62.6176 75.4451 62.3983 75.3624 62.088 77.8268C61.6886 80.8355 63.816 82.3503 67.7659 81.8362C70.3486 81.423 70.878 81.6033 73.1207 83.8359C76.4848 87.1848 78.8493 92.3722 79.9174 98.6503C80.6871 103.622 80.6458 105.012 79.48 120.099C78.7354 129.2 79.1145 132.29 81.4015 136.813C84.973 144.016 90.9198 146.951 100.876 146.448C102.999 146.285 109.886 145.183 116.206 143.848C131.194 140.773 133.097 140.527 137.971 140.631C143.041 140.674 147.572 142.864 151.815 147.103C156.301 151.568 158.921 156.332 161.923 165.304C163.958 171.369 164.68 172.932 165.587 173.081C167.091 173.282 167.087 171.605 165.58 165.161C163.644 156.784 161.835 153.039 156.959 146.693C153.236 141.84 151.986 140.656 149.042 139.007C141.626 134.805 136.609 134.724 118.54 138.41C102.925 141.615 98.129 142.176 93.3513 141.203C88.5357 140.177 85.945 137.794 84.1017 132.553C82.875 128.95 82.8606 123.917 84.1152 110.847C85.1717 99.8416 82.8933 90.4295 77.6626 84.2577C76.0103 82.4019 74.1534 80.3726 73.5779 79.9051C72.6692 79.1965 72.6528 78.728 73.5187 77.706C75.2506 75.6621 75.4471 73.0392 73.9679 70.9789C72.7163 69.2356 72.6784 69.1828 76.3731 63.9684C89.7368 44.9273 95.0956 21.8664 89.0012 9.58992C83.667 -1.07076 73.122 -2.94687 62.4839 4.85079C56.7162 9.0717 52.751 14.8005 49.008 24.2926C47.2826 28.5735 45.5704 32.2045 45.1399 32.2734C44.6946 32.433 41.5332 31.2603 38.0155 29.7028C22.281 22.8263 6.93169 23.839 2.42199 32.0403ZM14.7467 30.1568C20.6296 29.2156 25.9663 30.1876 34.9064 33.6162C39.5504 35.4057 44.0955 36.946 45.0702 36.9667C48.108 37.1875 50.0213 35.1734 51.8425 30.0231C54.0019 24.2298 57.6984 17.0127 60.0999 14.0076C62.8858 10.6466 68.5034 6.77363 71.848 5.97349C80.6814 3.79461 86.1777 10.3361 86.221 22.8739C86.2679 33.9683 80.2433 51.4229 72.1792 63.697C70.4489 66.3002 68.4465 68.8586 67.7604 69.3512C66.0187 70.6016 53.6513 70.7545 46.38 69.6503C35.5712 67.9637 25.2162 63.7897 16.8733 57.8508C12.6566 54.874 7.27092 47.3724 6.12512 42.9913C4.32976 36.0344 7.48185 31.2897 14.7467 30.1568Z" fill="url(#paint0_linear_3323_1740)"/>
<defs>
<linearGradient id="paint0_linear_3323_1740" x1="-6.00079" y1="36.8218" x2="161.113" y2="1.84827" gradientUnits="userSpaceOnUse">
<stop stop-color="#42307D"/>
<stop offset="1" stop-color="#7F56D9"/>
</linearGradient>
</defs>
</svg>
