<svg width="1966" height="827" viewBox="0 0 1966 827" fill="none" xmlns="http://www.w3.org/2000/svg">
<g filter="url(#filter0_d_3279_3805)">
<g filter="url(#filter1_d_3279_3805)">
<path d="M67 475L114.928 522.707" stroke="#FF8235" stroke-width="12" stroke-linecap="round"/>
</g>
<mask id="path-2-inside-1_3279_3805" fill="white">
<path d="M242.56 467.001C249.412 490.091 259.993 512.053 274.015 531.974C300.095 569.025 336.834 597.261 379.349 612.93C421.199 628.353 466.694 630.879 509.968 620.209L512.026 619.691C555.913 608.426 595.332 584.07 625.044 549.862L720.355 632.645C712.952 637.108 708 645.226 708 654.501C708 664.131 713.339 672.513 721.218 676.851C673.887 722.683 615.314 755.579 551.136 772.053L549.382 772.498C475.672 791.045 398.095 787.093 326.652 761.148L324.952 760.526C252.475 733.815 189.844 685.678 145.384 622.515C125.84 594.749 110.215 564.657 98.7803 533.089L159.532 467.001H242.56ZM318.571 48.8925C390.557 20.8863 469.363 15.4515 544.512 33.3114C619.661 51.1715 687.595 91.4808 739.283 148.88L733.603 153.994C731.475 142.06 721.046 133 708.5 133C694.417 133 683 144.417 683 158.5C683 170.118 690.77 179.92 701.396 182.996L622.393 254.142L620.964 252.57C591.304 220.257 552.779 197.399 510.204 186.851L508.141 186.351C464.059 175.874 417.832 179.062 375.605 195.49L373.63 196.269C332.249 212.824 296.755 241.396 271.74 278.322L270.558 280.086C253.829 305.295 242.481 333.52 237.041 363.001H159.532L92.918 291.41C103.774 256.195 119.746 222.549 140.495 191.602L141.507 190.101C162.459 159.171 187.725 131.678 216.375 108.365C221.048 113.66 227.883 117 235.5 117C249.583 117 261 105.583 261 91.4999C261 86.9776 259.821 82.7314 257.756 79.0487C276.488 67.5724 296.263 57.6892 316.886 49.5526L318.571 48.8925Z"/>
</mask>
<path d="M242.56 467.001C249.412 490.091 259.993 512.053 274.015 531.974C300.095 569.025 336.834 597.261 379.349 612.93C421.199 628.353 466.694 630.879 509.968 620.209L512.026 619.691C555.913 608.426 595.332 584.07 625.044 549.862L720.355 632.645C712.952 637.108 708 645.226 708 654.501C708 664.131 713.339 672.513 721.218 676.851C673.887 722.683 615.314 755.579 551.136 772.053L549.382 772.498C475.672 791.045 398.095 787.093 326.652 761.148L324.952 760.526C252.475 733.815 189.844 685.678 145.384 622.515C125.84 594.749 110.215 564.657 98.7803 533.089L159.532 467.001H242.56ZM318.571 48.8925C390.557 20.8863 469.363 15.4515 544.512 33.3114C619.661 51.1715 687.595 91.4808 739.283 148.88L733.603 153.994C731.475 142.06 721.046 133 708.5 133C694.417 133 683 144.417 683 158.5C683 170.118 690.77 179.92 701.396 182.996L622.393 254.142L620.964 252.57C591.304 220.257 552.779 197.399 510.204 186.851L508.141 186.351C464.059 175.874 417.832 179.062 375.605 195.49L373.63 196.269C332.249 212.824 296.755 241.396 271.74 278.322L270.558 280.086C253.829 305.295 242.481 333.52 237.041 363.001H159.532L92.918 291.41C103.774 256.195 119.746 222.549 140.495 191.602L141.507 190.101C162.459 159.171 187.725 131.678 216.375 108.365C221.048 113.66 227.883 117 235.5 117C249.583 117 261 105.583 261 91.4999C261 86.9776 259.821 82.7314 257.756 79.0487C276.488 67.5724 296.263 57.6892 316.886 49.5526L318.571 48.8925Z" fill="#02071B"/>
<path d="M242.56 467.001L247.353 465.578L246.291 462.001H242.56V467.001ZM274.015 531.974L269.926 534.852L269.926 534.852L274.015 531.974ZM379.349 612.93L377.62 617.621L377.62 617.621L379.349 612.93ZM509.968 620.209L511.165 625.063L511.176 625.061L511.187 625.058L509.968 620.209ZM512.026 619.691L513.246 624.54L513.258 624.537L513.27 624.534L512.026 619.691ZM625.044 549.862L628.323 546.087L624.548 542.809L621.269 546.583L625.044 549.862ZM720.355 632.645L722.937 636.928L728.825 633.379L723.634 628.871L720.355 632.645ZM708 654.501L703 654.501L703 654.501L708 654.501ZM721.218 676.851L724.696 680.443L729.557 675.736L723.63 672.472L721.218 676.851ZM551.136 772.053L552.366 776.899L552.379 776.896L551.136 772.053ZM549.382 772.498L550.602 777.347L550.612 777.344L549.382 772.498ZM326.652 761.148L324.934 765.844L324.946 765.848L326.652 761.148ZM324.952 760.526L323.223 765.218L323.234 765.222L324.952 760.526ZM145.384 622.515L141.295 625.393L141.295 625.393L145.384 622.515ZM98.7803 533.089L95.0993 529.705L93.0458 531.939L94.0792 534.792L98.7803 533.089ZM159.532 467.001V462.001H157.337L155.851 463.617L159.532 467.001ZM318.571 48.8925L316.758 44.2327L316.748 44.2368L318.571 48.8925ZM544.512 33.3114L545.668 28.4469L545.668 28.4469L544.512 33.3114ZM739.283 148.88L742.629 152.596L746.345 149.25L742.999 145.534L739.283 148.88ZM733.603 153.994L728.68 154.872L730.26 163.731L736.948 157.71L733.603 153.994ZM683 158.5L678 158.5V158.5H683ZM701.396 182.996L704.742 186.711L711.425 180.694L702.787 178.193L701.396 182.996ZM622.393 254.142L618.693 257.505L622.041 261.187L625.738 257.857L622.393 254.142ZM620.964 252.57L624.663 249.207L624.655 249.198L624.647 249.189L620.964 252.57ZM510.204 186.851L511.406 181.998L511.395 181.995L511.384 181.993L510.204 186.851ZM508.141 186.351L509.32 181.492L509.309 181.489L509.297 181.486L508.141 186.351ZM375.605 195.49L373.793 190.83L373.782 190.835L373.771 190.839L375.605 195.49ZM373.63 196.269L371.795 191.618L371.784 191.623L371.773 191.627L373.63 196.269ZM271.74 278.322L267.601 275.518L267.594 275.528L267.587 275.538L271.74 278.322ZM270.558 280.086L266.405 277.301L266.398 277.311L266.392 277.321L270.558 280.086ZM237.041 363.001V368.001H241.203L241.958 363.908L237.041 363.001ZM159.532 363.001L155.872 366.407L157.355 368.001H159.532V363.001ZM92.918 291.41L88.1398 289.937L87.2882 292.7L89.2575 294.816L92.918 291.41ZM140.495 191.602L136.349 188.808L136.342 188.818L140.495 191.602ZM141.507 190.101L137.367 187.297L137.361 187.307L141.507 190.101ZM216.375 108.365L220.124 105.057L216.945 101.455L213.219 104.487L216.375 108.365ZM261 91.4999L266 91.4999L266 91.4999L261 91.4999ZM257.756 79.0487L255.144 74.7853L251.042 77.2982L253.395 81.494L257.756 79.0487ZM316.886 49.5526L315.062 44.897L315.051 44.9016L316.886 49.5526ZM242.56 467.001L237.766 468.423C244.772 492.031 255.59 514.485 269.926 534.852L274.015 531.974L278.103 529.096C264.396 509.622 254.052 488.152 247.353 465.578L242.56 467.001ZM274.015 531.974L269.926 534.852C296.59 572.733 334.153 601.602 377.62 617.621L379.349 612.93L381.078 608.238C339.516 592.921 303.599 565.317 278.103 529.096L274.015 531.974ZM379.349 612.93L377.62 617.621C420.407 633.39 466.922 635.973 511.165 625.063L509.968 620.209L508.771 615.354C466.467 625.786 421.99 623.316 381.078 608.238L379.349 612.93ZM509.968 620.209L511.187 625.058L513.246 624.54L512.026 619.691L510.807 614.842L508.749 615.36L509.968 620.209ZM512.026 619.691L513.27 624.534C558.139 613.017 598.442 588.115 628.819 553.141L625.044 549.862L621.269 546.583C592.223 580.025 553.687 603.835 510.783 614.848L512.026 619.691ZM625.044 549.862L621.765 553.637L717.077 636.42L720.355 632.645L723.634 628.871L628.323 546.087L625.044 549.862ZM720.355 632.645L717.774 628.363C708.932 633.693 703 643.402 703 654.501H708H713C713 647.051 716.971 640.523 722.937 636.928L720.355 632.645ZM708 654.501L703 654.501C703 666.027 709.396 676.049 718.806 681.231L721.218 676.851L723.63 672.472C717.282 668.976 713 662.235 713 654.501L708 654.501ZM721.218 676.851L717.74 673.259C671.031 718.489 613.227 750.952 549.893 767.21L551.136 772.053L552.379 776.896C617.4 760.205 676.743 726.877 724.696 680.443L721.218 676.851ZM551.136 772.053L549.905 767.206L548.151 767.652L549.382 772.498L550.612 777.344L552.366 776.899L551.136 772.053ZM549.382 772.498L548.162 767.649C475.421 785.953 398.863 782.052 328.359 756.449L326.652 761.148L324.946 765.848C397.327 792.133 475.924 796.138 550.602 777.347L549.382 772.498ZM326.652 761.148L328.37 756.453L326.67 755.831L324.952 760.526L323.234 765.222L324.934 765.844L326.652 761.148ZM324.952 760.526L326.681 755.835C255.157 729.475 193.348 681.97 149.472 619.637L145.384 622.515L141.295 625.393C186.34 689.386 249.794 738.156 323.223 765.218L324.952 760.526ZM145.384 622.515L149.472 619.637C130.185 592.236 114.766 562.539 103.481 531.386L98.7803 533.089L94.0792 534.792C105.664 566.774 121.494 597.262 141.295 625.393L145.384 622.515ZM98.7803 533.089L102.461 536.473L163.213 470.385L159.532 467.001L155.851 463.617L95.0993 529.705L98.7803 533.089ZM159.532 467.001V472.001H242.56V467.001V462.001H159.532V467.001ZM318.571 48.8925L320.384 53.5523C391.424 25.9141 469.194 20.5507 543.356 38.1759L544.512 33.3114L545.668 28.4469C469.531 10.3523 389.69 15.8585 316.758 44.2327L318.571 48.8925ZM544.512 33.3114L543.356 38.1759C617.517 55.8013 684.558 95.581 735.568 152.226L739.283 148.88L742.999 145.534C690.631 87.3807 621.804 46.5417 545.668 28.4469L544.512 33.3114ZM739.283 148.88L735.938 145.164L730.257 150.278L733.603 153.994L736.948 157.71L742.629 152.596L739.283 148.88ZM733.603 153.994L738.525 153.116C735.979 138.839 723.511 128 708.5 128V133V138C718.58 138 726.97 145.281 728.68 154.872L733.603 153.994ZM708.5 133V128C691.655 128 678 141.655 678 158.5L683 158.5L688 158.5C688 147.178 697.178 138 708.5 138V133ZM683 158.5H678C678 172.404 687.299 184.12 700.006 187.799L701.396 182.996L702.787 178.193C694.24 175.719 688 167.832 688 158.5H683ZM701.396 182.996L698.051 179.281L619.047 250.426L622.393 254.142L625.738 257.857L704.742 186.711L701.396 182.996ZM622.393 254.142L626.092 250.778L624.663 249.207L620.964 252.57L617.264 255.934L618.693 257.505L622.393 254.142ZM620.964 252.57L624.647 249.189C594.323 216.152 554.935 192.782 511.406 181.998L510.204 186.851L509.002 191.705C550.623 202.016 588.285 224.362 617.28 255.951L620.964 252.57ZM510.204 186.851L511.384 181.993L509.32 181.492L508.141 186.351L506.961 191.209L509.024 191.71L510.204 186.851ZM508.141 186.351L509.297 181.486C464.227 170.775 416.965 174.034 373.793 190.83L375.605 195.49L377.418 200.15C418.699 184.09 463.89 180.973 506.985 191.215L508.141 186.351ZM375.605 195.49L373.771 190.839L371.795 191.618L373.63 196.269L375.465 200.921L377.44 200.141L375.605 195.49ZM373.63 196.269L371.773 191.627C329.465 208.552 293.175 237.764 267.601 275.518L271.74 278.322L275.88 281.126C300.334 245.027 335.033 217.095 375.487 200.912L373.63 196.269ZM271.74 278.322L267.587 275.538L266.405 277.301L270.558 280.086L274.71 282.87L275.893 281.107L271.74 278.322ZM270.558 280.086L266.392 277.321C249.287 303.095 237.686 331.953 232.124 362.094L237.041 363.001L241.958 363.908C247.276 335.087 258.37 307.495 274.724 282.851L270.558 280.086ZM237.041 363.001V358.001H159.532V363.001V368.001H237.041V363.001ZM159.532 363.001L163.193 359.595L96.5784 288.004L92.918 291.41L89.2575 294.816L155.872 366.407L159.532 363.001ZM92.918 291.41L97.6961 292.883C108.409 258.13 124.171 224.927 144.648 194.387L140.495 191.602L136.342 188.818C115.32 220.171 99.138 254.259 88.1398 289.937L92.918 291.41ZM140.495 191.602L144.641 194.397L145.653 192.896L141.507 190.101L137.361 187.307L136.349 188.808L140.495 191.602ZM141.507 190.101L145.646 192.906C166.324 162.381 191.257 135.25 219.531 112.243L216.375 108.365L213.219 104.487C184.193 128.106 158.595 155.96 137.367 187.297L141.507 190.101ZM216.375 108.365L212.626 111.674C218.207 117.998 226.389 122 235.5 122V117V112C229.378 112 223.888 109.322 220.124 105.057L216.375 108.365ZM235.5 117V122C252.345 122 266 108.345 266 91.4999H261H256C256 102.822 246.822 112 235.5 112V117ZM261 91.4999L266 91.4999C266 86.0975 264.589 81.0121 262.117 76.6035L257.756 79.0487L253.395 81.494C255.052 84.4507 256 87.8577 256 91.5L261 91.4999ZM257.756 79.0487L260.368 83.3122C278.853 71.9868 298.368 62.2335 318.721 54.2037L316.886 49.5526L315.051 44.9016C294.157 53.145 274.122 63.1581 255.144 74.7853L257.756 79.0487ZM316.886 49.5526L318.709 54.2083L320.395 53.5481L318.571 48.8925L316.748 44.2368L315.062 44.897L316.886 49.5526Z" fill="#AEAEAE" mask="url(#path-2-inside-1_3279_3805)"/>
<mask id="mask0_3279_3805" style="mask-type:alpha" maskUnits="userSpaceOnUse" x="85" y="22" width="659" height="762">
<path d="M242.56 467.001C249.412 490.091 259.993 512.053 274.015 531.973C300.095 569.024 336.834 597.26 379.349 612.929C421.199 628.352 466.694 630.879 509.968 620.208L512.026 619.691C555.913 608.425 595.332 584.069 625.044 549.861L743.804 653.01C693.153 711.327 625.952 752.847 551.136 772.052L549.382 772.497C475.672 791.045 398.095 787.092 326.652 761.148L324.952 760.526C252.475 733.815 189.844 685.677 145.384 622.514C125.84 594.748 110.215 564.656 98.7803 533.088L159.531 467.001H242.56ZM318.571 48.8917C390.557 20.8856 469.363 15.4508 544.512 33.3107C619.661 51.1707 687.595 91.4802 739.283 148.879L622.393 254.141L620.964 252.569C591.304 220.256 552.779 197.398 510.204 186.851L508.141 186.35C464.059 175.873 417.832 179.061 375.605 195.489L373.63 196.269C332.249 212.823 296.755 241.395 271.74 278.321L270.558 280.085C253.828 305.294 242.48 333.52 237.04 363.001H159.532V363L85 321.378C95.1907 275.275 113.928 231.226 140.495 191.602L141.507 190.101C184.489 126.65 245.621 77.6683 316.886 49.5519L318.571 48.8917Z" fill="black"/>
</mask>
<g mask="url(#mask0_3279_3805)">
<path d="M174 553L157 594" stroke="#497E96" stroke-width="12" stroke-linecap="round"/>
<path d="M284 502L236 541" stroke="#497E96" stroke-width="12" stroke-linecap="round"/>
<path d="M236 794L236 541" stroke="#497E96" stroke-width="12" stroke-linecap="round"/>
<path d="M160 731L157 594" stroke="#497E96" stroke-width="12" stroke-linecap="round"/>
<circle cx="296.5" cy="143.5" r="18.5" stroke="#497E96" stroke-width="14"/>
<circle cx="309.5" cy="236.5" r="18.5" stroke="#497E96" stroke-width="14"/>
<circle cx="498.5" cy="158.5" r="18.5" stroke="#497E96" stroke-width="14"/>
<circle cx="590.5" cy="158.5" r="18.5" stroke="#497E96" stroke-width="14"/>
<circle cx="297.5" cy="657.5" r="18.5" stroke="#497E96" stroke-width="14"/>
<circle cx="401.5" cy="654.5" r="18.5" stroke="#497E96" stroke-width="14"/>
<circle cx="516.5" cy="654.5" r="18.5" stroke="#497E96" stroke-width="14"/>
<circle cx="600.5" cy="651.5" r="18.5" stroke="#497E96" stroke-width="14"/>
<path d="M422 659H499" stroke="#497E96" stroke-width="12" stroke-linecap="round"/>
<path d="M317 670L380 728" stroke="#497E96" stroke-width="12" stroke-linecap="round"/>
<path d="M294 638L287.001 582.5L344.5 535.5" stroke="#497E96" stroke-width="12" stroke-linecap="round"/>
<path d="M587 666L531 728" stroke="#497E96" stroke-width="12" stroke-linecap="round"/>
<path d="M331 827.5L380.5 728H531.5L595.5 806" stroke="#497E96" stroke-width="12" stroke-linecap="round"/>
<path d="M388.501 207L374.5 186L399 159L477 158" stroke="#497E96" stroke-width="12" stroke-linecap="round"/>
<path d="M375 92L534 91.0185" stroke="#497E96" stroke-width="12" stroke-linecap="round"/>
<path d="M530 91L578 146" stroke="#497E96" stroke-width="12" stroke-linecap="round"/>
<path d="M565 33L530 92" stroke="#497E96" stroke-width="12" stroke-linecap="round"/>
<path d="M335 27L375 92" stroke="#497E96" stroke-width="12" stroke-linecap="round"/>
<path d="M281 151L224 200" stroke="#497E96" stroke-width="12" stroke-linecap="round"/>
<path d="M224 298L224 200" stroke="#497E96" stroke-width="12" stroke-linecap="round"/>
<path d="M224 298L268 322" stroke="#497E96" stroke-width="12" stroke-linecap="round"/>
<path d="M174 295L207 339" stroke="#497E96" stroke-width="12" stroke-linecap="round"/>
<path d="M174 295V231" stroke="#497E96" stroke-width="12" stroke-linecap="round"/>
<path d="M111 148L174 227" stroke="#497E96" stroke-width="12" stroke-linecap="round"/>
</g>
<path d="M255 83.4999C267.5 75.5 285 64.5 296.5 59.9999" stroke="#497E96" stroke-width="10" stroke-linecap="round" stroke-linejoin="round"/>
<path d="M369.5 37.4999C398.5 28.5 433.5 24 476.5 26.5" stroke="#497E96" stroke-width="10" stroke-linecap="round" stroke-linejoin="round"/>
<path d="M383.5 774.5C404 778.5 441 784 470 780.5" stroke="#497E96" stroke-width="10" stroke-linecap="round" stroke-linejoin="round"/>
<path d="M236 707.5C240.5 711.839 265 731 291 741" stroke="#497E96" stroke-width="10" stroke-linecap="round" stroke-linejoin="round"/>
<path d="M693.5 108C715.5 126.5 723.11 134.335 735.802 151.192" stroke="#497E96" stroke-width="10" stroke-linecap="round" stroke-linejoin="round"/>
<path d="M622.5 252C644.5 233.5 680 202.5 709.5 178" stroke="#497E96" stroke-width="10" stroke-linecap="round" stroke-linejoin="round"/>
<path d="M626 555C656.499 582 694.5 614 725 639.5" stroke="#497E96" stroke-width="10" stroke-linecap="round" stroke-linejoin="round"/>
<path d="M181.999 143C190 134.5 204.999 121.5 220.999 108.5" stroke="#497E96" stroke-width="10" stroke-linecap="round" stroke-linejoin="round"/>
<circle cx="457" cy="404" r="124.5" stroke="#FF8235" stroke-width="19"/>
<circle cx="457" cy="404" r="67.5" stroke="#FF8235" stroke-width="19"/>
<circle cx="456.5" cy="404.5" r="38.5" fill="#FF8235"/>
<circle cx="50.5" cy="459.5" r="18.5" stroke="#FF8235" stroke-width="14"/>
<circle cx="118.5" cy="432.5" r="18.5" stroke="#FF8235" stroke-width="14"/>
<circle cx="63.5" cy="378.5" r="18.5" stroke="#FF8235" stroke-width="14"/>
<circle cx="45.5" cy="278.5" r="18.5" stroke="#FF8235" stroke-width="14"/>
<circle cx="708.5" cy="158.5" r="18.5" stroke="#FF8235" stroke-width="14"/>
<circle cx="733.5" cy="654.5" r="18.5" stroke="#FF8235" stroke-width="14"/>
<circle cx="235.5" cy="91.5" r="18.5" stroke="#FF8235" stroke-width="14"/>
<path d="M233 360L160 360L97.5001 291.5C97.5001 291.5 97.5001 288 112 250.5" stroke="#497E96" stroke-width="10" stroke-linecap="round" stroke-linejoin="round"/>
<path d="M80.9058 377.001L335 378" stroke="#FF8235" stroke-width="12" stroke-linecap="round"/>
<path d="M137 432H335" stroke="#FF8235" stroke-width="12" stroke-linecap="round"/>
<path d="M221 481L358 481" stroke="#FF8235" stroke-width="12" stroke-linecap="round"/>
<path d="M187.638 513.88L221 481" stroke="#FF8235" stroke-width="12" stroke-linecap="round"/>
<path d="M67.1465 278.002L108.146 279.002" stroke="#FF8235" stroke-width="12" stroke-linecap="round"/>
<path d="M109 279L160 339" stroke="#FF8235" stroke-width="12" stroke-linecap="round"/>
<path d="M160 339H350" stroke="#FF8235" stroke-width="12" stroke-linecap="round"/>
<circle cx="178.5" cy="533.5" r="18.5" stroke="#497E96" stroke-width="14"/>
<g filter="url(#filter2_d_3279_3805)">
<mask id="path-60-inside-2_3279_3805" fill="white">
<path fill-rule="evenodd" clip-rule="evenodd" d="M1243.77 311.733C1255.89 313.571 1269.67 318.473 1276.71 323.455C1284.19 328.754 1295.18 343.096 1295.18 347.561C1295.18 349.121 1295.84 351.144 1296.66 352.058C1302.25 358.321 1304.92 422.137 1300.59 446.306C1298.27 459.293 1297.72 461.046 1292.02 473.395C1287.68 482.797 1278.65 492.601 1274.34 492.601C1273.34 492.601 1272.52 493.224 1272.52 493.986C1272.52 495.529 1258 500.424 1247.25 502.501C1237.82 504.325 1172.94 504.22 1160.99 502.361C1139.43 499.011 1120.28 484.909 1114.39 468.053C1109.01 452.637 1108.05 443.359 1108.05 407C1108.06 371.004 1109.93 352.839 1114.08 348.564C1114.96 347.651 1115.69 345.49 1115.69 343.76C1115.69 342.031 1116.47 340.615 1117.43 340.615C1118.39 340.615 1119.17 339.59 1119.17 338.337C1119.17 335.768 1127.86 327.194 1135.73 321.991C1142.4 317.578 1157.81 312.723 1165.99 312.458C1169.47 312.344 1174.67 311.618 1177.55 310.844C1183.17 309.331 1232.26 309.99 1243.77 311.733ZM1699.24 312.061L1720.48 313.207L1719.99 332.588C1719.53 350.856 1719.3 351.939 1716.02 351.42C1714.1 351.118 1694.88 350.432 1673.31 349.895C1640.08 349.071 1632.04 349.38 1620.6 351.932C1613.18 353.587 1607.1 355.65 1607.1 356.513C1607.1 357.377 1606.01 358.085 1604.68 358.085C1603.35 358.085 1600.41 361.82 1598.15 366.383C1594.27 374.202 1594.03 376.545 1594.03 407C1594.03 442.386 1595.16 447.992 1603.93 456.07C1607.74 459.576 1612.13 461.105 1623.47 462.873C1638.04 465.146 1676.03 464.67 1680.07 462.167C1681.26 461.43 1682.03 455.499 1682.03 447.133V433.314L1661.56 432.823L1641.08 432.331L1640.59 413.551L1640.09 394.771H1683.72H1727.34L1727.58 410.931C1728.21 453.609 1726.89 498.768 1724.98 499.999C1723.88 500.705 1715.93 501.306 1707.3 501.336C1698.68 501.364 1680.25 502.186 1666.35 503.165C1633.71 505.46 1600.78 502.918 1584.44 496.841C1564.34 489.362 1552.64 473.839 1547.69 448.053C1542.7 422.05 1545.61 362.648 1552.52 349.375C1553.77 346.959 1554.81 344.001 1554.81 342.799C1554.82 341.599 1555.61 340.615 1556.57 340.615C1557.53 340.615 1558.31 339.796 1558.31 338.795C1558.31 332.555 1574.32 320.337 1587.93 316.191C1602.87 311.644 1655.36 309.696 1699.24 312.061ZM1084.32 332.754V352.844H1033.01H981.701L976.862 357.018C972.258 360.987 972.021 361.941 971.972 376.671L971.922 392.151L1023.76 392.614L1075.61 393.077V411.393V429.71H1023.36H971.122L970.65 465.96L970.179 502.209L951.01 502.718C940.468 502.997 930.076 502.786 927.921 502.248L924 501.269V434.481C924 361.726 925.063 350.667 933.438 336.342C935.913 332.108 940.095 327.021 942.731 325.04C945.368 323.058 948.309 320.798 949.268 320.017C950.838 318.736 961.011 315.711 970.179 313.798C972.096 313.396 998.563 312.978 1028.99 312.867L1084.32 312.664V332.754ZM1473.36 315.629C1480.79 317.292 1486.86 319.271 1486.86 320.026C1486.86 320.78 1487.89 321.399 1489.15 321.399C1492.13 321.399 1502.13 331.255 1505.22 337.242C1511.31 349.05 1512.95 357.54 1512.95 377.302C1512.95 402.225 1509.56 413.74 1499.06 424.408C1494.51 429.032 1483.29 434.951 1479.06 434.951C1474.34 434.951 1474.41 438.651 1479.24 445.071C1481.93 448.633 1484.94 452.4 1485.93 453.443C1486.92 454.486 1489.3 457.517 1491.22 460.181C1493.14 462.845 1496.41 467.102 1498.49 469.641C1513.14 487.474 1521.67 499.063 1521.69 501.136C1521.71 503.132 1517.06 503.408 1495.28 502.707C1469.95 501.891 1468.7 501.68 1465.52 497.665C1463.7 495.361 1460.75 491.766 1458.98 489.678C1457.2 487.589 1454.34 483.658 1452.61 480.943C1450.89 478.227 1449.01 475.612 1448.45 475.131C1447.88 474.651 1443.94 469.541 1439.7 463.778C1435.45 458.013 1431.19 452.237 1430.23 450.945C1422.59 440.643 1421.54 440.192 1405.18 440.192C1396.59 440.192 1388.32 440.669 1386.81 441.253C1384.44 442.161 1384.05 446.504 1384.05 471.583V500.855L1369.67 501.888C1361.76 502.456 1353.34 502.663 1350.94 502.351C1348.54 502.038 1344.82 501.682 1342.66 501.559L1338.74 501.336V407V312.664L1399.3 312.634C1450.44 312.608 1461.95 313.075 1473.36 315.629ZM1924.26 332.754V352.844H1871.43H1818.61L1813.93 357.736C1809.99 361.864 1809.08 364.731 1808.12 376.079L1806.99 389.53H1862.11H1917.22L1918.21 393.466C1918.75 395.632 1918.96 403.689 1918.68 411.373L1918.16 425.343L1863.27 426.216L1808.37 427.09L1808.76 438.967C1809.31 455.621 1812.51 460.528 1823.92 462.23C1828.79 462.955 1852.77 463.598 1877.21 463.663C1901.65 463.725 1922.62 464.412 1923.82 465.189C1925.32 466.164 1926 471.994 1926 483.969V501.336L1897.68 501.472C1801.19 501.938 1799.25 501.872 1790.91 497.823C1781.95 493.476 1772.65 484.252 1767.09 474.212C1763.35 467.457 1763.24 465.712 1763.16 409.62C1763.07 355.784 1763.3 351.422 1766.55 343.68C1768.47 339.118 1770.63 335.385 1771.34 335.382C1772.06 335.378 1772.65 334.532 1772.65 333.503C1772.65 331.266 1774.96 328.907 1783.11 322.845C1794.83 314.119 1804.79 312.928 1867.19 312.79L1924.26 312.664V332.754ZM1178.22 351.995C1157.76 357.615 1155.77 362.58 1155.77 407.805C1155.77 426.655 1156.48 442.177 1157.38 442.729C1158.26 443.277 1159.5 446.102 1160.14 449.006C1161.38 454.657 1166.66 458.965 1176.6 462.438C1184.66 465.256 1221.24 465.285 1231.98 462.485C1241.07 460.116 1249.87 452.824 1249.87 447.664C1249.87 445.861 1250.83 443.415 1252.01 442.232C1255.11 439.125 1255.14 371.786 1252.05 370.75C1250.85 370.35 1249.87 368.623 1249.87 366.912C1249.87 362.031 1241.85 355.222 1232.5 352.154C1222.14 348.76 1190.33 348.665 1178.22 351.995ZM1384.05 378.175V403.506H1419.48H1454.92L1459.56 398.281C1463.81 393.508 1464.21 391.793 1464.21 378.519C1464.21 366.177 1463.66 363.392 1460.56 360.054C1454.58 353.618 1449.81 352.844 1416.17 352.844H1384.05V378.175Z"/>
</mask>
<path fill-rule="evenodd" clip-rule="evenodd" d="M1243.77 311.733C1255.89 313.571 1269.67 318.473 1276.71 323.455C1284.19 328.754 1295.18 343.096 1295.18 347.561C1295.18 349.121 1295.84 351.144 1296.66 352.058C1302.25 358.321 1304.92 422.137 1300.59 446.306C1298.27 459.293 1297.72 461.046 1292.02 473.395C1287.68 482.797 1278.65 492.601 1274.34 492.601C1273.34 492.601 1272.52 493.224 1272.52 493.986C1272.52 495.529 1258 500.424 1247.25 502.501C1237.82 504.325 1172.94 504.22 1160.99 502.361C1139.43 499.011 1120.28 484.909 1114.39 468.053C1109.01 452.637 1108.05 443.359 1108.05 407C1108.06 371.004 1109.93 352.839 1114.08 348.564C1114.96 347.651 1115.69 345.49 1115.69 343.76C1115.69 342.031 1116.47 340.615 1117.43 340.615C1118.39 340.615 1119.17 339.59 1119.17 338.337C1119.17 335.768 1127.86 327.194 1135.73 321.991C1142.4 317.578 1157.81 312.723 1165.99 312.458C1169.47 312.344 1174.67 311.618 1177.55 310.844C1183.17 309.331 1232.26 309.99 1243.77 311.733ZM1699.24 312.061L1720.48 313.207L1719.99 332.588C1719.53 350.856 1719.3 351.939 1716.02 351.42C1714.1 351.118 1694.88 350.432 1673.31 349.895C1640.08 349.071 1632.04 349.38 1620.6 351.932C1613.18 353.587 1607.1 355.65 1607.1 356.513C1607.1 357.377 1606.01 358.085 1604.68 358.085C1603.35 358.085 1600.41 361.82 1598.15 366.383C1594.27 374.202 1594.03 376.545 1594.03 407C1594.03 442.386 1595.16 447.992 1603.93 456.07C1607.74 459.576 1612.13 461.105 1623.47 462.873C1638.04 465.146 1676.03 464.67 1680.07 462.167C1681.26 461.43 1682.03 455.499 1682.03 447.133V433.314L1661.56 432.823L1641.08 432.331L1640.59 413.551L1640.09 394.771H1683.72H1727.34L1727.58 410.931C1728.21 453.609 1726.89 498.768 1724.98 499.999C1723.88 500.705 1715.93 501.306 1707.3 501.336C1698.68 501.364 1680.25 502.186 1666.35 503.165C1633.71 505.46 1600.78 502.918 1584.44 496.841C1564.34 489.362 1552.64 473.839 1547.69 448.053C1542.7 422.05 1545.61 362.648 1552.52 349.375C1553.77 346.959 1554.81 344.001 1554.81 342.799C1554.82 341.599 1555.61 340.615 1556.57 340.615C1557.53 340.615 1558.31 339.796 1558.31 338.795C1558.31 332.555 1574.32 320.337 1587.93 316.191C1602.87 311.644 1655.36 309.696 1699.24 312.061ZM1084.32 332.754V352.844H1033.01H981.701L976.862 357.018C972.258 360.987 972.021 361.941 971.972 376.671L971.922 392.151L1023.76 392.614L1075.61 393.077V411.393V429.71H1023.36H971.122L970.65 465.96L970.179 502.209L951.01 502.718C940.468 502.997 930.076 502.786 927.921 502.248L924 501.269V434.481C924 361.726 925.063 350.667 933.438 336.342C935.913 332.108 940.095 327.021 942.731 325.04C945.368 323.058 948.309 320.798 949.268 320.017C950.838 318.736 961.011 315.711 970.179 313.798C972.096 313.396 998.563 312.978 1028.99 312.867L1084.32 312.664V332.754ZM1473.36 315.629C1480.79 317.292 1486.86 319.271 1486.86 320.026C1486.86 320.78 1487.89 321.399 1489.15 321.399C1492.13 321.399 1502.13 331.255 1505.22 337.242C1511.31 349.05 1512.95 357.54 1512.95 377.302C1512.95 402.225 1509.56 413.74 1499.06 424.408C1494.51 429.032 1483.29 434.951 1479.06 434.951C1474.34 434.951 1474.41 438.651 1479.24 445.071C1481.93 448.633 1484.94 452.4 1485.93 453.443C1486.92 454.486 1489.3 457.517 1491.22 460.181C1493.14 462.845 1496.41 467.102 1498.49 469.641C1513.14 487.474 1521.67 499.063 1521.69 501.136C1521.71 503.132 1517.06 503.408 1495.28 502.707C1469.95 501.891 1468.7 501.68 1465.52 497.665C1463.7 495.361 1460.75 491.766 1458.98 489.678C1457.2 487.589 1454.34 483.658 1452.61 480.943C1450.89 478.227 1449.01 475.612 1448.45 475.131C1447.88 474.651 1443.94 469.541 1439.7 463.778C1435.45 458.013 1431.19 452.237 1430.23 450.945C1422.59 440.643 1421.54 440.192 1405.18 440.192C1396.59 440.192 1388.32 440.669 1386.81 441.253C1384.44 442.161 1384.05 446.504 1384.05 471.583V500.855L1369.67 501.888C1361.76 502.456 1353.34 502.663 1350.94 502.351C1348.54 502.038 1344.82 501.682 1342.66 501.559L1338.74 501.336V407V312.664L1399.3 312.634C1450.44 312.608 1461.95 313.075 1473.36 315.629ZM1924.26 332.754V352.844H1871.43H1818.61L1813.93 357.736C1809.99 361.864 1809.08 364.731 1808.12 376.079L1806.99 389.53H1862.11H1917.22L1918.21 393.466C1918.75 395.632 1918.96 403.689 1918.68 411.373L1918.16 425.343L1863.27 426.216L1808.37 427.09L1808.76 438.967C1809.31 455.621 1812.51 460.528 1823.92 462.23C1828.79 462.955 1852.77 463.598 1877.21 463.663C1901.65 463.725 1922.62 464.412 1923.82 465.189C1925.32 466.164 1926 471.994 1926 483.969V501.336L1897.68 501.472C1801.19 501.938 1799.25 501.872 1790.91 497.823C1781.95 493.476 1772.65 484.252 1767.09 474.212C1763.35 467.457 1763.24 465.712 1763.16 409.62C1763.07 355.784 1763.3 351.422 1766.55 343.68C1768.47 339.118 1770.63 335.385 1771.34 335.382C1772.06 335.378 1772.65 334.532 1772.65 333.503C1772.65 331.266 1774.96 328.907 1783.11 322.845C1794.83 314.119 1804.79 312.928 1867.19 312.79L1924.26 312.664V332.754ZM1178.22 351.995C1157.76 357.615 1155.77 362.58 1155.77 407.805C1155.77 426.655 1156.48 442.177 1157.38 442.729C1158.26 443.277 1159.5 446.102 1160.14 449.006C1161.38 454.657 1166.66 458.965 1176.6 462.438C1184.66 465.256 1221.24 465.285 1231.98 462.485C1241.07 460.116 1249.87 452.824 1249.87 447.664C1249.87 445.861 1250.83 443.415 1252.01 442.232C1255.11 439.125 1255.14 371.786 1252.05 370.75C1250.85 370.35 1249.87 368.623 1249.87 366.912C1249.87 362.031 1241.85 355.222 1232.5 352.154C1222.14 348.76 1190.33 348.665 1178.22 351.995ZM1384.05 378.175V403.506H1419.48H1454.92L1459.56 398.281C1463.81 393.508 1464.21 391.793 1464.21 378.519C1464.21 366.177 1463.66 363.392 1460.56 360.054C1454.58 353.618 1449.81 352.844 1416.17 352.844H1384.05V378.175Z" fill="#FF8235"/>
<path fill-rule="evenodd" clip-rule="evenodd" d="M1243.77 311.733C1255.89 313.571 1269.67 318.473 1276.71 323.455C1284.19 328.754 1295.18 343.096 1295.18 347.561C1295.18 349.121 1295.84 351.144 1296.66 352.058C1302.25 358.321 1304.92 422.137 1300.59 446.306C1298.27 459.293 1297.72 461.046 1292.02 473.395C1287.68 482.797 1278.65 492.601 1274.34 492.601C1273.34 492.601 1272.52 493.224 1272.52 493.986C1272.52 495.529 1258 500.424 1247.25 502.501C1237.82 504.325 1172.94 504.22 1160.99 502.361C1139.43 499.011 1120.28 484.909 1114.39 468.053C1109.01 452.637 1108.05 443.359 1108.05 407C1108.06 371.004 1109.93 352.839 1114.08 348.564C1114.96 347.651 1115.69 345.49 1115.69 343.76C1115.69 342.031 1116.47 340.615 1117.43 340.615C1118.39 340.615 1119.17 339.59 1119.17 338.337C1119.17 335.768 1127.86 327.194 1135.73 321.991C1142.4 317.578 1157.81 312.723 1165.99 312.458C1169.47 312.344 1174.67 311.618 1177.55 310.844C1183.17 309.331 1232.26 309.99 1243.77 311.733ZM1699.24 312.061L1720.48 313.207L1719.99 332.588C1719.53 350.856 1719.3 351.939 1716.02 351.42C1714.1 351.118 1694.88 350.432 1673.31 349.895C1640.08 349.071 1632.04 349.38 1620.6 351.932C1613.18 353.587 1607.1 355.65 1607.1 356.513C1607.1 357.377 1606.01 358.085 1604.68 358.085C1603.35 358.085 1600.41 361.82 1598.15 366.383C1594.27 374.202 1594.03 376.545 1594.03 407C1594.03 442.386 1595.16 447.992 1603.93 456.07C1607.74 459.576 1612.13 461.105 1623.47 462.873C1638.04 465.146 1676.03 464.67 1680.07 462.167C1681.26 461.43 1682.03 455.499 1682.03 447.133V433.314L1661.56 432.823L1641.08 432.331L1640.59 413.551L1640.09 394.771H1683.72H1727.34L1727.58 410.931C1728.21 453.609 1726.89 498.768 1724.98 499.999C1723.88 500.705 1715.93 501.306 1707.3 501.336C1698.68 501.364 1680.25 502.186 1666.35 503.165C1633.71 505.46 1600.78 502.918 1584.44 496.841C1564.34 489.362 1552.64 473.839 1547.69 448.053C1542.7 422.05 1545.61 362.648 1552.52 349.375C1553.77 346.959 1554.81 344.001 1554.81 342.799C1554.82 341.599 1555.61 340.615 1556.57 340.615C1557.53 340.615 1558.31 339.796 1558.31 338.795C1558.31 332.555 1574.32 320.337 1587.93 316.191C1602.87 311.644 1655.36 309.696 1699.24 312.061ZM1084.32 332.754V352.844H1033.01H981.701L976.862 357.018C972.258 360.987 972.021 361.941 971.972 376.671L971.922 392.151L1023.76 392.614L1075.61 393.077V411.393V429.71H1023.36H971.122L970.65 465.96L970.179 502.209L951.01 502.718C940.468 502.997 930.076 502.786 927.921 502.248L924 501.269V434.481C924 361.726 925.063 350.667 933.438 336.342C935.913 332.108 940.095 327.021 942.731 325.04C945.368 323.058 948.309 320.798 949.268 320.017C950.838 318.736 961.011 315.711 970.179 313.798C972.096 313.396 998.563 312.978 1028.99 312.867L1084.32 312.664V332.754ZM1473.36 315.629C1480.79 317.292 1486.86 319.271 1486.86 320.026C1486.86 320.78 1487.89 321.399 1489.15 321.399C1492.13 321.399 1502.13 331.255 1505.22 337.242C1511.31 349.05 1512.95 357.54 1512.95 377.302C1512.95 402.225 1509.56 413.74 1499.06 424.408C1494.51 429.032 1483.29 434.951 1479.06 434.951C1474.34 434.951 1474.41 438.651 1479.24 445.071C1481.93 448.633 1484.94 452.4 1485.93 453.443C1486.92 454.486 1489.3 457.517 1491.22 460.181C1493.14 462.845 1496.41 467.102 1498.49 469.641C1513.14 487.474 1521.67 499.063 1521.69 501.136C1521.71 503.132 1517.06 503.408 1495.28 502.707C1469.95 501.891 1468.7 501.68 1465.52 497.665C1463.7 495.361 1460.75 491.766 1458.98 489.678C1457.2 487.589 1454.34 483.658 1452.61 480.943C1450.89 478.227 1449.01 475.612 1448.45 475.131C1447.88 474.651 1443.94 469.541 1439.7 463.778C1435.45 458.013 1431.19 452.237 1430.23 450.945C1422.59 440.643 1421.54 440.192 1405.18 440.192C1396.59 440.192 1388.32 440.669 1386.81 441.253C1384.44 442.161 1384.05 446.504 1384.05 471.583V500.855L1369.67 501.888C1361.76 502.456 1353.34 502.663 1350.94 502.351C1348.54 502.038 1344.82 501.682 1342.66 501.559L1338.74 501.336V407V312.664L1399.3 312.634C1450.44 312.608 1461.95 313.075 1473.36 315.629ZM1924.26 332.754V352.844H1871.43H1818.61L1813.93 357.736C1809.99 361.864 1809.08 364.731 1808.12 376.079L1806.99 389.53H1862.11H1917.22L1918.21 393.466C1918.75 395.632 1918.96 403.689 1918.68 411.373L1918.16 425.343L1863.27 426.216L1808.37 427.09L1808.76 438.967C1809.31 455.621 1812.51 460.528 1823.92 462.23C1828.79 462.955 1852.77 463.598 1877.21 463.663C1901.65 463.725 1922.62 464.412 1923.82 465.189C1925.32 466.164 1926 471.994 1926 483.969V501.336L1897.68 501.472C1801.19 501.938 1799.25 501.872 1790.91 497.823C1781.95 493.476 1772.65 484.252 1767.09 474.212C1763.35 467.457 1763.24 465.712 1763.16 409.62C1763.07 355.784 1763.3 351.422 1766.55 343.68C1768.47 339.118 1770.63 335.385 1771.34 335.382C1772.06 335.378 1772.65 334.532 1772.65 333.503C1772.65 331.266 1774.96 328.907 1783.11 322.845C1794.83 314.119 1804.79 312.928 1867.19 312.79L1924.26 312.664V332.754ZM1178.22 351.995C1157.76 357.615 1155.77 362.58 1155.77 407.805C1155.77 426.655 1156.48 442.177 1157.38 442.729C1158.26 443.277 1159.5 446.102 1160.14 449.006C1161.38 454.657 1166.66 458.965 1176.6 462.438C1184.66 465.256 1221.24 465.285 1231.98 462.485C1241.07 460.116 1249.87 452.824 1249.87 447.664C1249.87 445.861 1250.83 443.415 1252.01 442.232C1255.11 439.125 1255.14 371.786 1252.05 370.75C1250.85 370.35 1249.87 368.623 1249.87 366.912C1249.87 362.031 1241.85 355.222 1232.5 352.154C1222.14 348.76 1190.33 348.665 1178.22 351.995ZM1384.05 378.175V403.506H1419.48H1454.92L1459.56 398.281C1463.81 393.508 1464.21 391.793 1464.21 378.519C1464.21 366.177 1463.66 363.392 1460.56 360.054C1454.58 353.618 1449.81 352.844 1416.17 352.844H1384.05V378.175Z" stroke="#02071B" stroke-width="20" mask="url(#path-60-inside-2_3279_3805)"/>
</g>
<g filter="url(#filter3_d_3279_3805)">
<path d="M842.167 416.255C842.167 400.928 841.315 386.164 840.273 383.445C838.616 379.121 828.654 378.502 760.689 378.502H683V411.311V444.121H762.584H842.167V416.255Z" fill="#02071B"/>
<path d="M760.689 383.502C794.734 383.502 814.034 383.659 825.036 384.343C830.603 384.689 833.629 385.15 835.265 385.639C835.446 385.693 835.593 385.743 835.712 385.786C835.793 386.238 835.912 386.99 836.04 388.124C836.252 390.006 836.45 392.486 836.619 395.41C836.956 401.248 837.168 408.674 837.168 416.255V439.121H688V383.502H760.689Z" stroke="#497E96" stroke-width="10"/>
</g>
</g>
<defs>
<filter id="filter0_d_3279_3805" x="0" y="0.81543" width="1966" height="825.799" filterUnits="userSpaceOnUse" color-interpolation-filters="sRGB">
<feFlood flood-opacity="0" result="BackgroundImageFix"/>
<feColorMatrix in="SourceAlpha" type="matrix" values="0 0 0 0 0 0 0 0 0 0 0 0 0 0 0 0 0 0 127 0" result="hardAlpha"/>
<feOffset dx="10" dy="10"/>
<feGaussianBlur stdDeviation="15"/>
<feComposite in2="hardAlpha" operator="out"/>
<feColorMatrix type="matrix" values="0 0 0 0 1 0 0 0 0 1 0 0 0 0 1 0 0 0 0.5 0"/>
<feBlend mode="normal" in2="BackgroundImageFix" result="effect1_dropShadow_3279_3805"/>
<feBlend mode="normal" in="SourceGraphic" in2="effect1_dropShadow_3279_3805" result="shape"/>
</filter>
<filter id="filter1_d_3279_3805" x="57" y="469" width="67.9277" height="67.7068" filterUnits="userSpaceOnUse" color-interpolation-filters="sRGB">
<feFlood flood-opacity="0" result="BackgroundImageFix"/>
<feColorMatrix in="SourceAlpha" type="matrix" values="0 0 0 0 0 0 0 0 0 0 0 0 0 0 0 0 0 0 127 0" result="hardAlpha"/>
<feOffset dy="4"/>
<feGaussianBlur stdDeviation="2"/>
<feComposite in2="hardAlpha" operator="out"/>
<feColorMatrix type="matrix" values="0 0 0 0 0 0 0 0 0 0 0 0 0 0 0 0 0 0 0.25 0"/>
<feBlend mode="normal" in2="BackgroundImageFix" result="effect1_dropShadow_3279_3805"/>
<feBlend mode="normal" in="SourceGraphic" in2="effect1_dropShadow_3279_3805" result="shape"/>
</filter>
<filter id="filter2_d_3279_3805" x="920.3" y="306.3" width="1017.4" height="209.4" filterUnits="userSpaceOnUse" color-interpolation-filters="sRGB">
<feFlood flood-opacity="0" result="BackgroundImageFix"/>
<feColorMatrix in="SourceAlpha" type="matrix" values="0 0 0 0 0 0 0 0 0 0 0 0 0 0 0 0 0 0 127 0" result="hardAlpha"/>
<feOffset dx="4" dy="4"/>
<feGaussianBlur stdDeviation="3.85"/>
<feComposite in2="hardAlpha" operator="out"/>
<feColorMatrix type="matrix" values="0 0 0 0 0 0 0 0 0 0 0 0 0 0 0 0 0 0 0.25 0"/>
<feBlend mode="normal" in2="BackgroundImageFix" result="effect1_dropShadow_3279_3805"/>
<feBlend mode="normal" in="SourceGraphic" in2="effect1_dropShadow_3279_3805" result="shape"/>
</filter>
<filter id="filter3_d_3279_3805" x="679.3" y="374.802" width="174.568" height="81.0191" filterUnits="userSpaceOnUse" color-interpolation-filters="sRGB">
<feFlood flood-opacity="0" result="BackgroundImageFix"/>
<feColorMatrix in="SourceAlpha" type="matrix" values="0 0 0 0 0 0 0 0 0 0 0 0 0 0 0 0 0 0 127 0" result="hardAlpha"/>
<feOffset dx="4" dy="4"/>
<feGaussianBlur stdDeviation="3.85"/>
<feComposite in2="hardAlpha" operator="out"/>
<feColorMatrix type="matrix" values="0 0 0 0 0 0 0 0 0 0 0 0 0 0 0 0 0 0 0.25 0"/>
<feBlend mode="normal" in2="BackgroundImageFix" result="effect1_dropShadow_3279_3805"/>
<feBlend mode="normal" in="SourceGraphic" in2="effect1_dropShadow_3279_3805" result="shape"/>
</filter>
</defs>
</svg>
