<svg width="857" height="991" viewBox="0 0 857 991" fill="none" xmlns="http://www.w3.org/2000/svg">
<g filter="url(#filter0_d_3281_3879)">
<g filter="url(#filter1_d_3281_3879)">
<path d="M67 475L114.928 522.707" stroke="#FF8235" stroke-width="12" stroke-linecap="round"/>
</g>
<path d="M242.56 467.001C249.412 490.091 259.993 512.053 274.015 531.974C300.095 569.025 336.834 597.261 379.349 612.93C421.199 628.353 466.694 630.879 509.968 620.209L512.026 619.691C555.913 608.426 595.332 584.07 625.044 549.862L720.355 632.645C712.952 637.108 708 645.226 708 654.501C708 664.131 713.339 672.513 721.218 676.851C673.887 722.683 615.314 755.579 551.136 772.053L549.382 772.498C475.672 791.045 398.095 787.093 326.652 761.148L324.952 760.526C252.475 733.815 189.844 685.678 145.384 622.515C125.84 594.749 110.215 564.657 98.7803 533.089L159.532 467.001H242.56ZM318.571 48.8925C390.557 20.8863 469.363 15.4515 544.512 33.3114C619.661 51.1715 687.595 91.4808 739.283 148.88L733.603 153.994C731.475 142.06 721.046 133 708.5 133C694.417 133 683 144.417 683 158.5C683 170.118 690.77 179.92 701.396 182.996L622.393 254.142L620.964 252.57C591.304 220.257 552.779 197.399 510.204 186.851L508.141 186.351C464.059 175.874 417.832 179.062 375.605 195.49L373.63 196.269C332.249 212.824 296.755 241.396 271.74 278.322L270.558 280.086C253.829 305.295 242.481 333.52 237.041 363.001H159.532L92.918 291.41C103.774 256.195 119.746 222.549 140.495 191.602L141.507 190.101C162.459 159.171 187.725 131.678 216.375 108.365C221.048 113.66 227.883 117 235.5 117C249.583 117 261 105.583 261 91.4999C261 86.9776 259.821 82.7314 257.756 79.0487C276.488 67.5724 296.263 57.6892 316.886 49.5526L318.571 48.8925Z" fill="#02071B"/>
<mask id="mask0_3281_3879" style="mask-type:alpha" maskUnits="userSpaceOnUse" x="85" y="22" width="659" height="762">
<path d="M242.56 467.001C249.412 490.091 259.993 512.053 274.015 531.973C300.095 569.024 336.834 597.26 379.349 612.929C421.199 628.352 466.694 630.879 509.968 620.208L512.026 619.691C555.913 608.425 595.332 584.069 625.044 549.861L743.804 653.01C693.153 711.327 625.952 752.847 551.136 772.052L549.382 772.497C475.672 791.045 398.095 787.092 326.652 761.148L324.952 760.526C252.475 733.815 189.844 685.677 145.384 622.514C125.84 594.748 110.215 564.656 98.7803 533.088L159.531 467.001H242.56ZM318.571 48.8917C390.557 20.8856 469.363 15.4508 544.512 33.3107C619.661 51.1707 687.595 91.4802 739.283 148.879L622.393 254.141L620.964 252.569C591.304 220.256 552.779 197.398 510.204 186.851L508.141 186.35C464.059 175.873 417.832 179.061 375.605 195.489L373.63 196.269C332.249 212.823 296.755 241.395 271.74 278.321L270.558 280.085C253.828 305.294 242.48 333.52 237.04 363.001H159.532V363L85 321.378C95.1907 275.275 113.928 231.226 140.495 191.602L141.507 190.101C184.489 126.65 245.621 77.6683 316.886 49.5519L318.571 48.8917Z" fill="black"/>
</mask>
<g mask="url(#mask0_3281_3879)">
<path d="M174 553L157 594" stroke="#497E96" stroke-width="12" stroke-linecap="round"/>
<path d="M284 502L236 541" stroke="#497E96" stroke-width="12" stroke-linecap="round"/>
<path d="M236 794L236 541" stroke="#497E96" stroke-width="12" stroke-linecap="round"/>
<path d="M160 731L157 594" stroke="#497E96" stroke-width="12" stroke-linecap="round"/>
<circle cx="296.5" cy="143.5" r="18.5" stroke="#497E96" stroke-width="14"/>
<circle cx="309.5" cy="236.5" r="18.5" stroke="#497E96" stroke-width="14"/>
<circle cx="498.5" cy="158.5" r="18.5" stroke="#497E96" stroke-width="14"/>
<circle cx="590.5" cy="158.5" r="18.5" stroke="#497E96" stroke-width="14"/>
<circle cx="297.5" cy="657.5" r="18.5" stroke="#497E96" stroke-width="14"/>
<circle cx="401.5" cy="654.5" r="18.5" stroke="#497E96" stroke-width="14"/>
<circle cx="516.5" cy="654.5" r="18.5" stroke="#497E96" stroke-width="14"/>
<circle cx="600.5" cy="651.5" r="18.5" stroke="#497E96" stroke-width="14"/>
<path d="M422 659H499" stroke="#497E96" stroke-width="12" stroke-linecap="round"/>
<path d="M317 670L380 728" stroke="#497E96" stroke-width="12" stroke-linecap="round"/>
<path d="M294 638L287.001 582.5L344.5 535.5" stroke="#497E96" stroke-width="12" stroke-linecap="round"/>
<path d="M587 666L531 728" stroke="#497E96" stroke-width="12" stroke-linecap="round"/>
<path d="M331 827.5L380.5 728H531.5L595.5 806" stroke="#497E96" stroke-width="12" stroke-linecap="round"/>
<path d="M388.501 207L374.5 186L399 159L477 158" stroke="#497E96" stroke-width="12" stroke-linecap="round"/>
<path d="M375 92L534 91.0185" stroke="#497E96" stroke-width="12" stroke-linecap="round"/>
<path d="M530 91L578 146" stroke="#497E96" stroke-width="12" stroke-linecap="round"/>
<path d="M565 33L530 92" stroke="#497E96" stroke-width="12" stroke-linecap="round"/>
<path d="M335 27L375 92" stroke="#497E96" stroke-width="12" stroke-linecap="round"/>
<path d="M281 151L224 200" stroke="#497E96" stroke-width="12" stroke-linecap="round"/>
<path d="M224 298L224 200" stroke="#497E96" stroke-width="12" stroke-linecap="round"/>
<path d="M224 298L268 322" stroke="#497E96" stroke-width="12" stroke-linecap="round"/>
<path d="M174 295L207 339" stroke="#497E96" stroke-width="12" stroke-linecap="round"/>
<path d="M174 295V231" stroke="#497E96" stroke-width="12" stroke-linecap="round"/>
<path d="M111 148L174 227" stroke="#497E96" stroke-width="12" stroke-linecap="round"/>
</g>
<path d="M255 83.4999C267.5 75.5 285 64.5 296.5 59.9999" stroke="#497E96" stroke-width="10" stroke-linecap="round" stroke-linejoin="round"/>
<path d="M369.5 37.4999C398.5 28.5 433.5 24 476.5 26.5" stroke="#497E96" stroke-width="10" stroke-linecap="round" stroke-linejoin="round"/>
<path d="M383.5 774.5C404 778.5 441 784 470 780.5" stroke="#497E96" stroke-width="10" stroke-linecap="round" stroke-linejoin="round"/>
<path d="M236 707.5C240.5 711.839 265 731 291 741" stroke="#497E96" stroke-width="10" stroke-linecap="round" stroke-linejoin="round"/>
<path d="M693.5 108C715.5 126.5 723.11 134.335 735.802 151.192" stroke="#497E96" stroke-width="10" stroke-linecap="round" stroke-linejoin="round"/>
<path d="M622.5 252C644.5 233.5 680 202.5 709.5 178" stroke="#497E96" stroke-width="10" stroke-linecap="round" stroke-linejoin="round"/>
<path d="M626 555C656.499 582 694.5 614 725 639.5" stroke="#497E96" stroke-width="10" stroke-linecap="round" stroke-linejoin="round"/>
<path d="M181.999 143C190 134.5 204.999 121.5 220.999 108.5" stroke="#497E96" stroke-width="10" stroke-linecap="round" stroke-linejoin="round"/>
<circle cx="457" cy="404" r="124.5" stroke="#FF8235" stroke-width="19"/>
<circle cx="457" cy="404" r="67.5" stroke="#FF8235" stroke-width="19"/>
<circle cx="456.5" cy="404.5" r="38.5" fill="#FF8235"/>
<circle cx="50.5" cy="459.5" r="18.5" stroke="#FF8235" stroke-width="14"/>
<circle cx="118.5" cy="432.5" r="18.5" stroke="#FF8235" stroke-width="14"/>
<circle cx="63.5" cy="378.5" r="18.5" stroke="#FF8235" stroke-width="14"/>
<circle cx="45.5" cy="278.5" r="18.5" stroke="#FF8235" stroke-width="14"/>
<circle cx="708.5" cy="158.5" r="18.5" stroke="#FF8235" stroke-width="14"/>
<circle cx="733.5" cy="654.5" r="18.5" stroke="#FF8235" stroke-width="14"/>
<circle cx="235.5" cy="91.5" r="18.5" stroke="#FF8235" stroke-width="14"/>
<path d="M233 360L160 360L97.5001 291.5C97.5001 291.5 97.5001 288 112 250.5" stroke="#497E96" stroke-width="10" stroke-linecap="round" stroke-linejoin="round"/>
<path d="M80.9058 377.001L335 378" stroke="#FF8235" stroke-width="12" stroke-linecap="round"/>
<path d="M137 432H335" stroke="#FF8235" stroke-width="12" stroke-linecap="round"/>
<path d="M221 481L358 481" stroke="#FF8235" stroke-width="12" stroke-linecap="round"/>
<path d="M187.638 513.88L221 481" stroke="#FF8235" stroke-width="12" stroke-linecap="round"/>
<path d="M67.1465 278.002L108.146 279.002" stroke="#FF8235" stroke-width="12" stroke-linecap="round"/>
<path d="M109 279L160 339" stroke="#FF8235" stroke-width="12" stroke-linecap="round"/>
<path d="M160 339H350" stroke="#FF8235" stroke-width="12" stroke-linecap="round"/>
<circle cx="178.5" cy="533.5" r="18.5" stroke="#497E96" stroke-width="14"/>
<g filter="url(#filter2_d_3281_3879)">
<mask id="path-59-inside-1_3281_3879" fill="white">
<path fill-rule="evenodd" clip-rule="evenodd" d="M424.916 839.992C431.874 841.044 439.781 843.85 443.818 846.702C448.111 849.735 454.416 857.945 454.416 860.501C454.416 861.394 454.799 862.552 455.267 863.075C458.477 866.66 460.007 903.19 457.525 917.025C456.192 924.459 455.874 925.462 452.604 932.531C450.114 937.913 444.935 943.525 442.458 943.525C441.885 943.525 441.416 943.882 441.416 944.318C441.416 945.201 433.08 948.003 426.916 949.192C421.505 950.236 384.273 950.176 377.416 949.112C365.041 947.194 354.05 939.122 350.673 929.473C347.584 920.649 347.032 915.338 347.036 894.525C347.041 873.92 348.115 863.522 350.493 861.075C351.001 860.552 351.416 859.315 351.416 858.325C351.416 857.335 351.866 856.525 352.416 856.525C352.966 856.525 353.416 855.938 353.416 855.221C353.416 853.75 358.399 848.842 362.916 845.864C366.748 843.338 375.589 840.559 380.281 840.407C382.28 840.342 385.266 839.926 386.916 839.483C390.14 838.617 418.314 838.994 424.916 839.992ZM150.076 840.525H156.416V851.475V862.425L134.166 861.844C116.121 861.372 110.337 861.564 103.564 862.858C94.2889 864.63 92.5149 865.944 89.2539 873.459C87.5459 877.394 87.3719 879.808 87.7019 894.959C87.9069 904.345 88.4889 913.503 88.9949 915.309C89.5019 917.115 91.3939 920.104 93.2009 921.95C96.2349 925.053 97.2309 925.403 106.287 926.558C112.65 927.369 123.163 927.637 136.253 927.322L156.416 926.836V937.575V948.314L140.666 949.057C108.106 950.592 87.0649 949.006 77.4159 944.289C73.7129 942.479 67.4989 935.587 65.4569 931.025C59.6609 918.082 58.1069 882.427 62.6229 866.025C64.0539 860.827 67.5419 853.525 68.5929 853.525C69.0459 853.525 69.4159 853.043 69.4159 852.454C69.4159 851.069 71.9599 848.525 73.3449 848.525C73.9339 848.525 74.4159 848.084 74.4159 847.544C74.4159 847.005 75.5409 846.281 76.9159 845.936C78.2909 845.591 79.4159 844.907 79.4159 844.417C79.4159 843.926 80.3459 843.525 81.4819 843.525C82.6179 843.525 84.5299 842.991 85.7319 842.338C88.9929 840.565 105.668 839.638 125.826 840.108C135.677 840.337 146.589 840.525 150.076 840.525ZM686.29 840.18L698.479 840.836L698.197 851.93C697.932 862.387 697.801 863.007 695.916 862.71C694.816 862.537 683.789 862.144 671.411 861.837C652.341 861.365 647.724 861.542 641.161 863.003C636.901 863.95 633.416 865.131 633.416 865.625C633.416 866.12 632.791 866.525 632.026 866.525C631.262 866.525 629.574 868.663 628.276 871.275C626.052 875.751 625.916 877.092 625.916 894.525C625.916 914.781 626.565 917.99 631.598 922.614C633.782 924.621 636.3 925.496 642.807 926.508C651.17 927.809 672.969 927.537 675.289 926.104C675.971 925.682 676.416 922.287 676.416 917.498V909.588L664.666 909.307L652.916 909.025L652.632 898.275L652.348 887.525H677.382H702.416L702.552 896.775C702.912 921.205 702.155 947.055 701.059 947.76C700.43 948.164 695.866 948.508 690.916 948.525C685.966 948.541 675.391 949.012 667.416 949.572C648.684 950.886 629.79 949.431 620.413 945.952C608.874 941.671 602.165 932.785 599.324 918.025C596.46 903.14 598.126 869.137 602.092 861.539C602.813 860.156 603.406 858.463 603.41 857.775C603.413 857.088 603.866 856.525 604.416 856.525C604.966 856.525 605.416 856.056 605.416 855.483C605.416 851.911 614.605 844.917 622.416 842.544C630.985 839.941 661.111 838.826 686.29 840.18ZM333.416 852.025V863.525H303.972H274.528L271.751 865.914C269.109 868.186 268.973 868.732 268.945 877.164L268.916 886.025L298.666 886.29L328.416 886.555V897.04V907.525H298.436H268.457L268.186 928.275L267.916 949.025L256.916 949.316C250.866 949.476 244.903 949.355 243.666 949.047L241.416 948.487V910.256C241.416 868.609 242.026 862.279 246.832 854.079C248.252 851.655 250.652 848.743 252.165 847.609C253.678 846.475 255.366 845.181 255.916 844.734C256.817 844.001 262.655 842.269 267.916 841.174C269.016 840.944 284.204 840.705 301.666 840.641L333.416 840.525V852.025ZM556.666 842.222C560.929 843.174 564.416 844.307 564.416 844.739C564.416 845.171 565.006 845.525 565.726 845.525C567.44 845.525 573.179 851.167 574.952 854.594C578.447 861.353 579.387 866.213 579.387 877.525C579.387 891.792 577.439 898.383 571.416 904.49C568.806 907.137 562.363 910.525 559.941 910.525C557.231 910.525 557.269 912.643 560.044 916.318C561.584 918.357 563.31 920.513 563.88 921.11C564.45 921.707 565.816 923.442 566.916 924.967C568.016 926.492 569.895 928.929 571.091 930.382C579.495 940.59 584.393 947.224 584.403 948.411C584.414 949.553 581.747 949.711 569.246 949.31C554.711 948.843 553.996 948.722 552.17 946.424C551.122 945.105 549.431 943.047 548.413 941.852C547.395 940.656 545.753 938.406 544.762 936.852C543.772 935.297 542.697 933.8 542.372 933.525C542.048 933.25 539.787 930.325 537.349 927.026C534.911 923.726 532.466 920.42 531.916 919.68C527.534 913.783 526.931 913.525 517.543 913.525C512.613 913.525 507.868 913.798 506.998 914.132C505.642 914.652 505.416 917.138 505.416 931.494V948.25L497.166 948.841C492.628 949.166 487.791 949.285 486.416 949.106C485.041 948.927 482.903 948.723 481.666 948.653L479.416 948.525V894.525V840.525L514.166 840.508C543.514 840.493 550.121 840.76 556.666 842.222ZM815.416 852.025V863.525H785.103H754.79L752.107 866.325C749.844 868.688 749.322 870.329 748.773 876.825L748.123 884.525H779.75H811.378L811.943 886.778C812.255 888.018 812.376 892.63 812.213 897.028L811.916 905.025L780.416 905.525L748.916 906.025L749.139 912.824C749.451 922.357 751.287 925.166 757.84 926.14C760.632 926.555 774.391 926.923 788.416 926.96C802.441 926.996 814.479 927.389 815.166 927.834C816.028 928.392 816.416 931.729 816.416 938.584V948.525L800.166 948.603C744.791 948.87 743.682 948.832 738.894 946.514C733.753 944.026 728.413 938.746 725.224 932.999C723.078 929.132 723.017 928.133 722.967 896.025C722.919 865.208 723.048 862.711 724.916 858.279C726.016 855.668 727.254 853.531 727.666 853.529C728.078 853.527 728.416 853.043 728.416 852.454C728.416 851.173 729.743 849.823 734.416 846.353C741.142 841.358 746.857 840.676 782.666 840.597L815.416 840.525V852.025ZM387.299 863.039C375.562 866.256 374.416 869.098 374.416 894.986C374.416 905.776 374.826 914.661 375.339 914.977C375.847 915.291 376.561 916.908 376.926 918.57C377.636 921.805 380.666 924.271 386.371 926.259C390.997 927.872 411.987 927.889 418.152 926.286C423.366 924.93 428.416 920.756 428.416 917.802C428.416 916.77 428.971 915.37 429.648 914.693C431.427 912.914 431.443 874.368 429.666 873.775C428.979 873.546 428.416 872.557 428.416 871.578C428.416 868.784 423.816 864.886 418.447 863.13C412.506 861.187 394.25 861.133 387.299 863.039ZM505.416 878.025V892.525H525.751H546.085L548.751 889.534C551.185 886.802 551.416 885.82 551.416 878.222C551.416 871.157 551.1 869.563 549.32 867.652C545.888 863.968 543.152 863.525 523.851 863.525H505.416V878.025ZM221.809 888.107C222.143 888.977 222.416 893.702 222.416 898.607V907.525H196.916H171.416V897.025V886.525H196.309C218.086 886.525 221.278 886.723 221.809 888.107Z"/>
</mask>
<path fill-rule="evenodd" clip-rule="evenodd" d="M424.916 839.992C431.874 841.044 439.781 843.85 443.818 846.702C448.111 849.735 454.416 857.945 454.416 860.501C454.416 861.394 454.799 862.552 455.267 863.075C458.477 866.66 460.007 903.19 457.525 917.025C456.192 924.459 455.874 925.462 452.604 932.531C450.114 937.913 444.935 943.525 442.458 943.525C441.885 943.525 441.416 943.882 441.416 944.318C441.416 945.201 433.08 948.003 426.916 949.192C421.505 950.236 384.273 950.176 377.416 949.112C365.041 947.194 354.05 939.122 350.673 929.473C347.584 920.649 347.032 915.338 347.036 894.525C347.041 873.92 348.115 863.522 350.493 861.075C351.001 860.552 351.416 859.315 351.416 858.325C351.416 857.335 351.866 856.525 352.416 856.525C352.966 856.525 353.416 855.938 353.416 855.221C353.416 853.75 358.399 848.842 362.916 845.864C366.748 843.338 375.589 840.559 380.281 840.407C382.28 840.342 385.266 839.926 386.916 839.483C390.14 838.617 418.314 838.994 424.916 839.992ZM150.076 840.525H156.416V851.475V862.425L134.166 861.844C116.121 861.372 110.337 861.564 103.564 862.858C94.2889 864.63 92.5149 865.944 89.2539 873.459C87.5459 877.394 87.3719 879.808 87.7019 894.959C87.9069 904.345 88.4889 913.503 88.9949 915.309C89.5019 917.115 91.3939 920.104 93.2009 921.95C96.2349 925.053 97.2309 925.403 106.287 926.558C112.65 927.369 123.163 927.637 136.253 927.322L156.416 926.836V937.575V948.314L140.666 949.057C108.106 950.592 87.0649 949.006 77.4159 944.289C73.7129 942.479 67.4989 935.587 65.4569 931.025C59.6609 918.082 58.1069 882.427 62.6229 866.025C64.0539 860.827 67.5419 853.525 68.5929 853.525C69.0459 853.525 69.4159 853.043 69.4159 852.454C69.4159 851.069 71.9599 848.525 73.3449 848.525C73.9339 848.525 74.4159 848.084 74.4159 847.544C74.4159 847.005 75.5409 846.281 76.9159 845.936C78.2909 845.591 79.4159 844.907 79.4159 844.417C79.4159 843.926 80.3459 843.525 81.4819 843.525C82.6179 843.525 84.5299 842.991 85.7319 842.338C88.9929 840.565 105.668 839.638 125.826 840.108C135.677 840.337 146.589 840.525 150.076 840.525ZM686.29 840.18L698.479 840.836L698.197 851.93C697.932 862.387 697.801 863.007 695.916 862.71C694.816 862.537 683.789 862.144 671.411 861.837C652.341 861.365 647.724 861.542 641.161 863.003C636.901 863.95 633.416 865.131 633.416 865.625C633.416 866.12 632.791 866.525 632.026 866.525C631.262 866.525 629.574 868.663 628.276 871.275C626.052 875.751 625.916 877.092 625.916 894.525C625.916 914.781 626.565 917.99 631.598 922.614C633.782 924.621 636.3 925.496 642.807 926.508C651.17 927.809 672.969 927.537 675.289 926.104C675.971 925.682 676.416 922.287 676.416 917.498V909.588L664.666 909.307L652.916 909.025L652.632 898.275L652.348 887.525H677.382H702.416L702.552 896.775C702.912 921.205 702.155 947.055 701.059 947.76C700.43 948.164 695.866 948.508 690.916 948.525C685.966 948.541 675.391 949.012 667.416 949.572C648.684 950.886 629.79 949.431 620.413 945.952C608.874 941.671 602.165 932.785 599.324 918.025C596.46 903.14 598.126 869.137 602.092 861.539C602.813 860.156 603.406 858.463 603.41 857.775C603.413 857.088 603.866 856.525 604.416 856.525C604.966 856.525 605.416 856.056 605.416 855.483C605.416 851.911 614.605 844.917 622.416 842.544C630.985 839.941 661.111 838.826 686.29 840.18ZM333.416 852.025V863.525H303.972H274.528L271.751 865.914C269.109 868.186 268.973 868.732 268.945 877.164L268.916 886.025L298.666 886.29L328.416 886.555V897.04V907.525H298.436H268.457L268.186 928.275L267.916 949.025L256.916 949.316C250.866 949.476 244.903 949.355 243.666 949.047L241.416 948.487V910.256C241.416 868.609 242.026 862.279 246.832 854.079C248.252 851.655 250.652 848.743 252.165 847.609C253.678 846.475 255.366 845.181 255.916 844.734C256.817 844.001 262.655 842.269 267.916 841.174C269.016 840.944 284.204 840.705 301.666 840.641L333.416 840.525V852.025ZM556.666 842.222C560.929 843.174 564.416 844.307 564.416 844.739C564.416 845.171 565.006 845.525 565.726 845.525C567.44 845.525 573.179 851.167 574.952 854.594C578.447 861.353 579.387 866.213 579.387 877.525C579.387 891.792 577.439 898.383 571.416 904.49C568.806 907.137 562.363 910.525 559.941 910.525C557.231 910.525 557.269 912.643 560.044 916.318C561.584 918.357 563.31 920.513 563.88 921.11C564.45 921.707 565.816 923.442 566.916 924.967C568.016 926.492 569.895 928.929 571.091 930.382C579.495 940.59 584.393 947.224 584.403 948.411C584.414 949.553 581.747 949.711 569.246 949.31C554.711 948.843 553.996 948.722 552.17 946.424C551.122 945.105 549.431 943.047 548.413 941.852C547.395 940.656 545.753 938.406 544.762 936.852C543.772 935.297 542.697 933.8 542.372 933.525C542.048 933.25 539.787 930.325 537.349 927.026C534.911 923.726 532.466 920.42 531.916 919.68C527.534 913.783 526.931 913.525 517.543 913.525C512.613 913.525 507.868 913.798 506.998 914.132C505.642 914.652 505.416 917.138 505.416 931.494V948.25L497.166 948.841C492.628 949.166 487.791 949.285 486.416 949.106C485.041 948.927 482.903 948.723 481.666 948.653L479.416 948.525V894.525V840.525L514.166 840.508C543.514 840.493 550.121 840.76 556.666 842.222ZM815.416 852.025V863.525H785.103H754.79L752.107 866.325C749.844 868.688 749.322 870.329 748.773 876.825L748.123 884.525H779.75H811.378L811.943 886.778C812.255 888.018 812.376 892.63 812.213 897.028L811.916 905.025L780.416 905.525L748.916 906.025L749.139 912.824C749.451 922.357 751.287 925.166 757.84 926.14C760.632 926.555 774.391 926.923 788.416 926.96C802.441 926.996 814.479 927.389 815.166 927.834C816.028 928.392 816.416 931.729 816.416 938.584V948.525L800.166 948.603C744.791 948.87 743.682 948.832 738.894 946.514C733.753 944.026 728.413 938.746 725.224 932.999C723.078 929.132 723.017 928.133 722.967 896.025C722.919 865.208 723.048 862.711 724.916 858.279C726.016 855.668 727.254 853.531 727.666 853.529C728.078 853.527 728.416 853.043 728.416 852.454C728.416 851.173 729.743 849.823 734.416 846.353C741.142 841.358 746.857 840.676 782.666 840.597L815.416 840.525V852.025ZM387.299 863.039C375.562 866.256 374.416 869.098 374.416 894.986C374.416 905.776 374.826 914.661 375.339 914.977C375.847 915.291 376.561 916.908 376.926 918.57C377.636 921.805 380.666 924.271 386.371 926.259C390.997 927.872 411.987 927.889 418.152 926.286C423.366 924.93 428.416 920.756 428.416 917.802C428.416 916.77 428.971 915.37 429.648 914.693C431.427 912.914 431.443 874.368 429.666 873.775C428.979 873.546 428.416 872.557 428.416 871.578C428.416 868.784 423.816 864.886 418.447 863.13C412.506 861.187 394.25 861.133 387.299 863.039ZM505.416 878.025V892.525H525.751H546.085L548.751 889.534C551.185 886.802 551.416 885.82 551.416 878.222C551.416 871.157 551.1 869.563 549.32 867.652C545.888 863.968 543.152 863.525 523.851 863.525H505.416V878.025ZM221.809 888.107C222.143 888.977 222.416 893.702 222.416 898.607V907.525H196.916H171.416V897.025V886.525H196.309C218.086 886.525 221.278 886.723 221.809 888.107Z" fill="#FF8235"/>
<path fill-rule="evenodd" clip-rule="evenodd" d="M424.916 839.992C431.874 841.044 439.781 843.85 443.818 846.702C448.111 849.735 454.416 857.945 454.416 860.501C454.416 861.394 454.799 862.552 455.267 863.075C458.477 866.66 460.007 903.19 457.525 917.025C456.192 924.459 455.874 925.462 452.604 932.531C450.114 937.913 444.935 943.525 442.458 943.525C441.885 943.525 441.416 943.882 441.416 944.318C441.416 945.201 433.08 948.003 426.916 949.192C421.505 950.236 384.273 950.176 377.416 949.112C365.041 947.194 354.05 939.122 350.673 929.473C347.584 920.649 347.032 915.338 347.036 894.525C347.041 873.92 348.115 863.522 350.493 861.075C351.001 860.552 351.416 859.315 351.416 858.325C351.416 857.335 351.866 856.525 352.416 856.525C352.966 856.525 353.416 855.938 353.416 855.221C353.416 853.75 358.399 848.842 362.916 845.864C366.748 843.338 375.589 840.559 380.281 840.407C382.28 840.342 385.266 839.926 386.916 839.483C390.14 838.617 418.314 838.994 424.916 839.992ZM150.076 840.525H156.416V851.475V862.425L134.166 861.844C116.121 861.372 110.337 861.564 103.564 862.858C94.2889 864.63 92.5149 865.944 89.2539 873.459C87.5459 877.394 87.3719 879.808 87.7019 894.959C87.9069 904.345 88.4889 913.503 88.9949 915.309C89.5019 917.115 91.3939 920.104 93.2009 921.95C96.2349 925.053 97.2309 925.403 106.287 926.558C112.65 927.369 123.163 927.637 136.253 927.322L156.416 926.836V937.575V948.314L140.666 949.057C108.106 950.592 87.0649 949.006 77.4159 944.289C73.7129 942.479 67.4989 935.587 65.4569 931.025C59.6609 918.082 58.1069 882.427 62.6229 866.025C64.0539 860.827 67.5419 853.525 68.5929 853.525C69.0459 853.525 69.4159 853.043 69.4159 852.454C69.4159 851.069 71.9599 848.525 73.3449 848.525C73.9339 848.525 74.4159 848.084 74.4159 847.544C74.4159 847.005 75.5409 846.281 76.9159 845.936C78.2909 845.591 79.4159 844.907 79.4159 844.417C79.4159 843.926 80.3459 843.525 81.4819 843.525C82.6179 843.525 84.5299 842.991 85.7319 842.338C88.9929 840.565 105.668 839.638 125.826 840.108C135.677 840.337 146.589 840.525 150.076 840.525ZM686.29 840.18L698.479 840.836L698.197 851.93C697.932 862.387 697.801 863.007 695.916 862.71C694.816 862.537 683.789 862.144 671.411 861.837C652.341 861.365 647.724 861.542 641.161 863.003C636.901 863.95 633.416 865.131 633.416 865.625C633.416 866.12 632.791 866.525 632.026 866.525C631.262 866.525 629.574 868.663 628.276 871.275C626.052 875.751 625.916 877.092 625.916 894.525C625.916 914.781 626.565 917.99 631.598 922.614C633.782 924.621 636.3 925.496 642.807 926.508C651.17 927.809 672.969 927.537 675.289 926.104C675.971 925.682 676.416 922.287 676.416 917.498V909.588L664.666 909.307L652.916 909.025L652.632 898.275L652.348 887.525H677.382H702.416L702.552 896.775C702.912 921.205 702.155 947.055 701.059 947.76C700.43 948.164 695.866 948.508 690.916 948.525C685.966 948.541 675.391 949.012 667.416 949.572C648.684 950.886 629.79 949.431 620.413 945.952C608.874 941.671 602.165 932.785 599.324 918.025C596.46 903.14 598.126 869.137 602.092 861.539C602.813 860.156 603.406 858.463 603.41 857.775C603.413 857.088 603.866 856.525 604.416 856.525C604.966 856.525 605.416 856.056 605.416 855.483C605.416 851.911 614.605 844.917 622.416 842.544C630.985 839.941 661.111 838.826 686.29 840.18ZM333.416 852.025V863.525H303.972H274.528L271.751 865.914C269.109 868.186 268.973 868.732 268.945 877.164L268.916 886.025L298.666 886.29L328.416 886.555V897.04V907.525H298.436H268.457L268.186 928.275L267.916 949.025L256.916 949.316C250.866 949.476 244.903 949.355 243.666 949.047L241.416 948.487V910.256C241.416 868.609 242.026 862.279 246.832 854.079C248.252 851.655 250.652 848.743 252.165 847.609C253.678 846.475 255.366 845.181 255.916 844.734C256.817 844.001 262.655 842.269 267.916 841.174C269.016 840.944 284.204 840.705 301.666 840.641L333.416 840.525V852.025ZM556.666 842.222C560.929 843.174 564.416 844.307 564.416 844.739C564.416 845.171 565.006 845.525 565.726 845.525C567.44 845.525 573.179 851.167 574.952 854.594C578.447 861.353 579.387 866.213 579.387 877.525C579.387 891.792 577.439 898.383 571.416 904.49C568.806 907.137 562.363 910.525 559.941 910.525C557.231 910.525 557.269 912.643 560.044 916.318C561.584 918.357 563.31 920.513 563.88 921.11C564.45 921.707 565.816 923.442 566.916 924.967C568.016 926.492 569.895 928.929 571.091 930.382C579.495 940.59 584.393 947.224 584.403 948.411C584.414 949.553 581.747 949.711 569.246 949.31C554.711 948.843 553.996 948.722 552.17 946.424C551.122 945.105 549.431 943.047 548.413 941.852C547.395 940.656 545.753 938.406 544.762 936.852C543.772 935.297 542.697 933.8 542.372 933.525C542.048 933.25 539.787 930.325 537.349 927.026C534.911 923.726 532.466 920.42 531.916 919.68C527.534 913.783 526.931 913.525 517.543 913.525C512.613 913.525 507.868 913.798 506.998 914.132C505.642 914.652 505.416 917.138 505.416 931.494V948.25L497.166 948.841C492.628 949.166 487.791 949.285 486.416 949.106C485.041 948.927 482.903 948.723 481.666 948.653L479.416 948.525V894.525V840.525L514.166 840.508C543.514 840.493 550.121 840.76 556.666 842.222ZM815.416 852.025V863.525H785.103H754.79L752.107 866.325C749.844 868.688 749.322 870.329 748.773 876.825L748.123 884.525H779.75H811.378L811.943 886.778C812.255 888.018 812.376 892.63 812.213 897.028L811.916 905.025L780.416 905.525L748.916 906.025L749.139 912.824C749.451 922.357 751.287 925.166 757.84 926.14C760.632 926.555 774.391 926.923 788.416 926.96C802.441 926.996 814.479 927.389 815.166 927.834C816.028 928.392 816.416 931.729 816.416 938.584V948.525L800.166 948.603C744.791 948.87 743.682 948.832 738.894 946.514C733.753 944.026 728.413 938.746 725.224 932.999C723.078 929.132 723.017 928.133 722.967 896.025C722.919 865.208 723.048 862.711 724.916 858.279C726.016 855.668 727.254 853.531 727.666 853.529C728.078 853.527 728.416 853.043 728.416 852.454C728.416 851.173 729.743 849.823 734.416 846.353C741.142 841.358 746.857 840.676 782.666 840.597L815.416 840.525V852.025ZM387.299 863.039C375.562 866.256 374.416 869.098 374.416 894.986C374.416 905.776 374.826 914.661 375.339 914.977C375.847 915.291 376.561 916.908 376.926 918.57C377.636 921.805 380.666 924.271 386.371 926.259C390.997 927.872 411.987 927.889 418.152 926.286C423.366 924.93 428.416 920.756 428.416 917.802C428.416 916.77 428.971 915.37 429.648 914.693C431.427 912.914 431.443 874.368 429.666 873.775C428.979 873.546 428.416 872.557 428.416 871.578C428.416 868.784 423.816 864.886 418.447 863.13C412.506 861.187 394.25 861.133 387.299 863.039ZM505.416 878.025V892.525H525.751H546.085L548.751 889.534C551.185 886.802 551.416 885.82 551.416 878.222C551.416 871.157 551.1 869.563 549.32 867.652C545.888 863.968 543.152 863.525 523.851 863.525H505.416V878.025ZM221.809 888.107C222.143 888.977 222.416 893.702 222.416 898.607V907.525H196.916H171.416V897.025V886.525H196.309C218.086 886.525 221.278 886.723 221.809 888.107Z" stroke="black" stroke-opacity="0.5" stroke-width="2" mask="url(#path-59-inside-1_3281_3879)"/>
</g>
</g>
<defs>
<filter id="filter0_d_3281_3879" x="0" y="0.81543" width="877" height="989.235" filterUnits="userSpaceOnUse" color-interpolation-filters="sRGB">
<feFlood flood-opacity="0" result="BackgroundImageFix"/>
<feColorMatrix in="SourceAlpha" type="matrix" values="0 0 0 0 0 0 0 0 0 0 0 0 0 0 0 0 0 0 127 0" result="hardAlpha"/>
<feOffset dx="10" dy="10"/>
<feGaussianBlur stdDeviation="15"/>
<feComposite in2="hardAlpha" operator="out"/>
<feColorMatrix type="matrix" values="0 0 0 0 0 0 0 0 0 0 0 0 0 0 0 0 0 0 0.5 0"/>
<feBlend mode="normal" in2="BackgroundImageFix" result="effect1_dropShadow_3281_3879"/>
<feBlend mode="normal" in="SourceGraphic" in2="effect1_dropShadow_3281_3879" result="shape"/>
</filter>
<filter id="filter1_d_3281_3879" x="57" y="469" width="67.9277" height="67.7068" filterUnits="userSpaceOnUse" color-interpolation-filters="sRGB">
<feFlood flood-opacity="0" result="BackgroundImageFix"/>
<feColorMatrix in="SourceAlpha" type="matrix" values="0 0 0 0 0 0 0 0 0 0 0 0 0 0 0 0 0 0 127 0" result="hardAlpha"/>
<feOffset dy="4"/>
<feGaussianBlur stdDeviation="2"/>
<feComposite in2="hardAlpha" operator="out"/>
<feColorMatrix type="matrix" values="0 0 0 0 0 0 0 0 0 0 0 0 0 0 0 0 0 0 0.25 0"/>
<feBlend mode="normal" in2="BackgroundImageFix" result="effect1_dropShadow_3281_3879"/>
<feBlend mode="normal" in="SourceGraphic" in2="effect1_dropShadow_3281_3879" result="shape"/>
</filter>
<filter id="filter2_d_3281_3879" x="56.3" y="835.3" width="771.816" height="126.45" filterUnits="userSpaceOnUse" color-interpolation-filters="sRGB">
<feFlood flood-opacity="0" result="BackgroundImageFix"/>
<feColorMatrix in="SourceAlpha" type="matrix" values="0 0 0 0 0 0 0 0 0 0 0 0 0 0 0 0 0 0 127 0" result="hardAlpha"/>
<feOffset dx="4" dy="4"/>
<feGaussianBlur stdDeviation="3.85"/>
<feComposite in2="hardAlpha" operator="out"/>
<feColorMatrix type="matrix" values="0 0 0 0 0 0 0 0 0 0 0 0 0 0 0 0 0 0 0.25 0"/>
<feBlend mode="normal" in2="BackgroundImageFix" result="effect1_dropShadow_3281_3879"/>
<feBlend mode="normal" in="SourceGraphic" in2="effect1_dropShadow_3281_3879" result="shape"/>
</filter>
</defs>
</svg>
