<svg width="100" height="100" viewBox="0 0 100 100" fill="none" xmlns="http://www.w3.org/2000/svg">
<path d="M38.8864 96.5076C37.3411 96.1412 36.0473 95.2841 34.2372 93.4271C31.2137 90.3248 28.7591 89.0334 24.4942 88.299C20.0692 87.5373 18.1036 85.8927 16.9216 81.9646C15.4622 77.1162 13.9372 74.7943 10.5864 72.3193C6.78483 69.5115 5.80983 67.0349 6.73718 62.5482C7.59655 58.3927 7.26765 55.438 5.52233 51.6388C3.43952 47.1068 3.69655 44.6849 6.65436 40.9708C9.36608 37.5669 10.2169 35.3162 10.6231 30.4779C11.0325 25.5943 12.3911 23.5912 16.3926 21.9701C19.7317 20.6169 22.5887 18.2677 24.1723 15.5732C26.0036 12.4568 26.2708 12.0998 27.4059 11.2529C29.2372 9.88648 30.7176 9.50835 33.5372 9.68491C38.4356 9.99194 41.0606 9.40366 44.3497 7.26226C48.638 4.47085 51.2387 4.47085 55.527 7.26226C58.8169 9.40366 61.4419 9.99194 66.3395 9.68491C70.9716 9.39429 72.8989 10.6099 75.7223 15.6044C77.1216 18.0787 79.9809 20.4873 83.1114 21.8271C87.5692 23.7349 88.8645 25.4763 89.1934 30.0013C89.5497 34.9021 90.5544 37.6419 93.2161 40.9708C96.1801 44.6779 96.4387 47.1021 94.3544 51.6388C92.6098 55.438 92.2801 58.3927 93.1395 62.5482C94.0676 67.0349 93.0919 69.5115 89.2911 72.3193C85.9403 74.7943 84.4153 77.1162 82.9559 81.9646C81.7739 85.8927 79.8075 87.5373 75.3833 88.299C71.1083 89.0349 68.652 90.3302 65.6395 93.4373C62.3005 96.8802 59.9067 97.449 55.2387 95.9052C51.4208 94.6435 48.4809 94.638 44.6786 95.8865C42.0145 96.7607 40.595 96.913 38.8864 96.5076Z" fill="black" fill-opacity="0.2"/>
<path d="M38.8864 95.5928C37.3411 95.2256 36.0473 94.3686 34.2372 92.5116C31.2137 89.41 28.7591 88.1178 24.4942 87.3842C20.0692 86.6225 18.1036 84.9772 16.9216 81.0498C15.4622 76.2006 13.9372 73.8788 10.5864 71.4038C6.78483 68.5959 5.80983 66.1202 6.73718 61.6327C7.59655 57.4772 7.26765 54.5225 5.52233 50.7233C3.43952 46.1913 3.69655 43.7694 6.65436 40.0561C9.36608 36.6514 10.2169 34.4014 10.6231 29.5624C11.0325 24.6788 12.3911 22.6756 16.3926 21.0545C19.7317 19.7014 22.5887 17.3522 24.1723 14.6577C26.0036 11.5413 26.2708 11.1842 27.4059 10.3374C29.2372 8.97095 30.7176 8.59282 33.5372 8.76938C38.4356 9.07642 41.0606 8.48813 44.3497 6.34673C48.638 3.55532 51.2387 3.55532 55.527 6.34673C58.8169 8.48813 61.4419 9.07642 66.3395 8.76938C70.9716 8.47876 72.8989 9.69438 75.7223 14.6889C77.1216 17.1631 79.9809 19.5717 83.1114 20.9116C87.5692 22.8194 88.8645 24.5608 89.1934 29.0858C89.5497 33.9866 90.5544 36.7264 93.2161 40.0561C96.1801 43.7624 96.4387 46.1866 94.3544 50.7233C92.6098 54.5225 92.2801 57.4772 93.1395 61.6327C94.0676 66.1202 93.0919 68.5959 89.2911 71.4038C85.9403 73.8788 84.4153 76.2006 82.9559 81.0498C81.7739 84.9772 79.8075 86.6225 75.3833 87.3842C71.1083 88.1194 68.652 89.4155 65.6395 92.5217C62.3005 95.9655 59.9067 96.5334 55.2387 94.9905C51.4208 93.728 48.4809 93.7225 44.6786 94.9709C42.0145 95.8452 40.595 95.9975 38.8864 95.5928Z" fill="white"/>
<path d="M66.3484 46.1467C66.0602 45.5576 66.307 44.8522 66.8953 44.5639C67.4836 44.2756 68.1898 44.5225 68.4781 45.1107C68.7664 45.699 68.5195 46.4053 67.9312 46.6936C67.343 46.9818 66.6367 46.735 66.3484 46.1467ZM72.0727 57.9123C71.7844 57.324 72.0312 56.6178 72.6195 56.3295C73.2078 56.0412 73.9141 56.2889 74.2023 56.8772C74.4906 57.4654 74.2438 58.1709 73.6555 58.4592C73.0672 58.7475 72.3609 58.5006 72.0727 57.9123ZM72.5727 42.6459C68.8078 39.9576 63.8953 39.2631 59.3477 41.0225L71.7781 66.5834C75.9672 64.0951 78.45 59.7951 78.6617 55.1764L83.3797 55.5123C83.4443 55.5169 83.5092 55.5086 83.5706 55.4879C83.632 55.4673 83.6886 55.4346 83.7373 55.3919C83.786 55.3492 83.8257 55.2972 83.8542 55.239C83.8827 55.1809 83.8993 55.1176 83.9031 55.0529C83.9078 54.9884 83.8996 54.9235 83.8791 54.8621C83.8585 54.8007 83.8259 54.744 83.7833 54.6953C83.7406 54.6467 83.6887 54.6069 83.6305 54.5784C83.5724 54.55 83.5092 54.5333 83.4445 54.5295L78.6672 54.1881C78.6203 52.1764 78.1383 50.1232 77.1789 48.1467C76.2203 46.1756 74.9023 44.5287 73.3492 43.2459L76.032 39.2748C76.1026 39.1671 76.128 39.0361 76.1029 38.9098C76.0778 38.7835 76.0041 38.6722 75.8978 38.5997C75.7914 38.5272 75.6608 38.4994 75.5341 38.5222C75.4074 38.545 75.2947 38.6166 75.2203 38.7217L72.5727 42.6404" fill="#3DDC84"/>
<path d="M61.1125 52.2701C57.6062 53.9646 53.8351 54.8232 49.9054 54.8232C45.6235 54.8264 41.4082 53.7633 37.6399 51.7298C33.8716 49.6963 30.669 46.7564 28.3211 43.1756C27.9508 42.6107 27.1859 42.4756 26.639 42.8756L22.1265 46.199C21.6148 46.5756 21.4969 47.2936 21.8554 47.8232C24.9424 52.4285 29.1167 56.2022 34.0091 58.8104C38.9015 61.4186 44.3612 62.781 49.9054 62.7772C55.0414 62.7772 59.9773 61.6537 64.5719 59.4357L61.1125 52.2701ZM47.4234 23.9912H52.3062V18.5967C52.3062 17.249 51.2117 16.1553 49.8648 16.1553C48.5172 16.1553 47.4234 17.249 47.4234 18.5967V23.9912Z" fill="#4285F4"/>
<path d="M43.512 34.5216L26.7276 69.0662C26.3649 69.8111 26.1681 70.626 26.1511 71.4544L26.0511 75.9787C26.0276 77.1498 27.3808 77.8084 28.287 77.0669L31.7815 74.1958C32.4229 73.6706 32.9427 73.0125 33.305 72.2669L49.848 38.2099L43.5175 34.5271L43.512 34.5216ZM73.5855 71.449C73.5683 70.6193 73.3683 69.8076 73.0089 69.0607L56.2253 34.5154L49.8948 38.2099L66.4378 72.2544C66.8016 72.9993 67.3211 73.6574 67.9612 74.1841L71.4558 77.0552C72.362 77.7966 73.7206 77.1373 73.6917 75.9669L73.5917 71.4427L73.5855 71.449Z" fill="#4285F4"/>
<path d="M49.8652 23.5615C45.8238 23.5615 42.541 26.8506 42.541 30.8857C42.541 34.9217 45.8301 38.21 49.8652 38.21C53.9012 38.21 57.1895 34.9217 57.1895 30.8857C57.1895 26.8506 53.9012 23.5615 49.8652 23.5615ZM49.8652 34.9154C47.648 34.9154 45.8355 33.11 45.8355 30.8857C45.8355 28.6623 47.6418 26.8561 49.8652 26.8561C52.0895 26.8561 53.8957 28.6623 53.8957 30.8857C53.8957 33.11 52.0895 34.9154 49.8652 34.9154Z" fill="#073042"/>
</svg>
