<svg width="100" height="100" viewBox="0 0 100 100" fill="none" xmlns="http://www.w3.org/2000/svg">
<g clip-path="url(#clip0_3419_989)">
<path d="M99.9642 49.9768C99.9642 77.5607 77.5935 99.9207 50.0044 99.9207C22.4064 99.9207 0.0371094 77.5607 0.0371094 49.9768C0.0371094 22.3994 22.4064 0.0375977 50.0044 0.0375977C77.5947 0.0376705 99.9642 22.3994 99.9642 49.9768Z" fill="#00979D" stroke="#81C9CB" stroke-width="1.69732" stroke-miterlimit="10"/>
<path opacity="0.5" d="M99.9642 50.0185C99.9642 77.6018 77.5935 99.9625 50.0044 99.9625C22.4064 99.9625 0.0371094 77.6008 0.0371094 50.0185C0.0371094 22.4406 22.4064 0.0788574 50.0044 0.0788574C77.5947 0.080023 99.9642 22.4405 99.9642 50.0185Z" fill="url(#paint0_linear_3419_989)" stroke="url(#paint1_linear_3419_989)" stroke-width="1.82116" stroke-miterlimit="10"/>
<path d="M69.0823 67.8367C68.1416 67.8367 67.1783 67.769 66.2309 67.628C58.2891 66.495 52.9786 60.7934 50.0041 56.4105C47.0201 60.7934 41.71 66.5006 33.7718 67.6321C32.8272 67.7673 31.8741 67.8351 30.9199 67.835C25.9824 67.835 21.3471 65.998 17.8605 62.6627C14.3407 59.2997 12.3984 54.7869 12.3984 49.9749C12.3984 45.1569 14.3406 40.6503 17.8656 37.2812C21.3489 33.9453 25.9876 32.1138 30.9272 32.1138C31.8686 32.1138 32.8269 32.1814 33.771 32.3165C41.7095 33.4482 47.0194 39.1504 50.0036 43.5341C52.9787 39.1504 58.2887 33.4498 66.2299 32.3165C67.1773 32.1808 68.1355 32.1138 69.0769 32.1138C74.0144 32.1138 78.6528 33.9501 82.136 37.2812C85.6591 40.6503 87.597 45.1569 87.597 49.9749C87.597 54.7869 85.6641 59.2997 82.141 62.6627C78.6516 65.9979 74.0202 67.8367 69.0823 67.8367ZM53.5205 49.9767C55.0716 52.9295 59.647 60.2973 67.1258 61.3681C67.7805 61.4581 68.4396 61.5082 69.0817 61.5082C75.7998 61.5082 81.2684 56.336 81.2684 49.975C81.2684 43.614 75.801 38.4419 69.0769 38.4419C68.4348 38.4419 67.7759 38.4877 67.1273 38.5818C59.647 39.65 55.0716 47.0179 53.5205 49.9767ZM30.9271 38.4435C24.2001 38.4435 18.7307 43.6155 18.7307 49.9767C18.7307 56.3365 24.1979 61.5099 30.9188 61.5099C31.5639 61.5099 32.223 61.4598 32.8776 61.3699C40.3567 60.2992 44.9308 52.9355 46.4827 49.9785C44.935 47.0257 40.3567 39.6517 32.8776 38.5871C32.2307 38.4894 31.5698 38.4435 30.9271 38.4435Z" fill="white"/>
<path d="M25.8242 48.2303H36.9469V51.8129H25.8242V48.2303ZM74.0762 48.2303H70.3106V44.4607H66.7144V48.2303H62.9505V51.8129H66.7144V55.5818H70.3106V51.8129H74.0762V48.2303Z" fill="white"/>
</g>
<defs>
<linearGradient id="paint0_linear_3419_989" x1="0.0371094" y1="50.0207" x2="99.9642" y2="50.0207" gradientUnits="userSpaceOnUse">
<stop offset="0.117" stop-color="white" stop-opacity="0"/>
<stop offset="0.252" stop-color="#C0D1D3" stop-opacity="0.153"/>
<stop offset="0.387" stop-color="#91B3B7" stop-opacity="0.306"/>
<stop offset="0.52" stop-color="#6D9FA3" stop-opacity="0.457"/>
<stop offset="0.65" stop-color="#4D9195" stop-opacity="0.604"/>
<stop offset="0.776" stop-color="#30888B" stop-opacity="0.746"/>
<stop offset="0.895" stop-color="#148386" stop-opacity="0.881"/>
<stop offset="1" stop-color="#008184"/>
</linearGradient>
<linearGradient id="paint1_linear_3419_989" x1="0.000671562" y1="50.0207" x2="100.001" y2="50.0207" gradientUnits="userSpaceOnUse">
<stop stop-color="white" stop-opacity="0"/>
<stop offset="0.153" stop-color="#C0D1D3" stop-opacity="0.153"/>
<stop offset="0.306" stop-color="#91B3B7" stop-opacity="0.306"/>
<stop offset="0.457" stop-color="#6D9FA3" stop-opacity="0.457"/>
<stop offset="0.604" stop-color="#4D9195" stop-opacity="0.604"/>
<stop offset="0.746" stop-color="#30888B" stop-opacity="0.746"/>
<stop offset="0.881" stop-color="#148386" stop-opacity="0.881"/>
<stop offset="1" stop-color="#008184"/>
</linearGradient>
<clipPath id="clip0_3419_989">
<rect width="100" height="100" fill="white"/>
</clipPath>
</defs>
</svg>
