<svg width="100" height="100" viewBox="0 0 100 100" fill="none" xmlns="http://www.w3.org/2000/svg">
<path fill-rule="evenodd" clip-rule="evenodd" d="M47.8083 31.8549C46.0405 36.2795 44.3376 43.6023 42.281 35.1783C40.7382 29.1949 37.4425 38.9271 35.046 40.5963C30.2122 44.2705 27.5368 49.4486 25.3899 54.9961C19.7048 50.1621 21.837 57.9205 21.4886 61.7148C21.7983 67.4023 20.8714 73.6217 21.9464 78.9805C26.4573 82.9119 29.7214 89.1166 36.4347 89.0363C41.0265 90.6322 40.4517 83.6887 44.6157 89.451C48.447 94.7033 50.8134 91.6316 53.3155 89.048C56.9702 94.6432 58.0899 82.3539 61.173 87.8658C65.9382 89.7207 70.2108 90.6029 70.9931 84.3135C71.9716 79.3463 80.5118 79.2455 78.5107 73.2734C78.2317 67.0771 79.0648 60.4387 78.1015 54.5144C74.8667 51.99 72.3716 46.1607 68.686 45.6529C64.1257 47.8658 65.8833 38.1088 64.0064 35.2377C63.3931 27.6967 61.7778 31.1066 60.0218 36.2771C59.0501 43.7224 54.9659 40.1732 52.8792 35.301C51.0237 33.7404 48.9087 25.4969 47.8083 31.8549Z" fill="#F3E517"/>
<mask id="mask0_3419_772" style="mask-type:luminance" maskUnits="userSpaceOnUse" x="23" y="32" width="54" height="56">
<path d="M23.8008 71.7322L25.3419 73.2733L27.6536 80.9791L28.4242 71.7322L30.7359 83.2909V68.6499L32.277 72.5028L34.5887 83.2909V68.6499L36.1299 70.191L38.4416 83.2909L40.7533 65.5676L45.8514 85.541L46.1473 73.2733L47.6884 68.6499L49.2295 87.9143L53.8529 68.6499L55.3941 84.832L59.2469 67.8793L63.0998 86.3732L63.8703 72.5028L66.182 67.8793L66.9526 85.6026L70.8055 68.6499L73.1172 76.3557L73.8877 69.4205L76.1994 74.0439V59.4029L73.8877 65.5676L73.1172 52.4677L71.576 62.4853L70.0349 59.4029L69.2643 48.6148L65.4115 63.2558L64.6409 60.1735L62.3292 37.0562L60.0175 57.0912L58.4764 63.2558L55.3941 42.4502L52.3118 60.1735L50.7707 64.797L50.0001 32.9683L45.3767 68.6499L40.7533 36.2856L38.4416 64.0264L36.9004 60.9441L35.3593 42.4502L34.5887 60.9441L32.277 66.3381L30.7359 47.8443L29.1948 62.4853L26.8831 58.6324V69.4205L23.8008 57.8618V71.7322Z" fill="white"/>
</mask>
<g mask="url(#mask0_3419_772)">
<path fill-rule="evenodd" clip-rule="evenodd" d="M22.2598 32.4326H77.7407V88.6848H22.2598V32.4326Z" fill="#FF7901"/>
<path fill-rule="evenodd" clip-rule="evenodd" d="M23.0312 60.944L29.1958 64.7968L31.5075 57.8616L35.3603 62.4851L39.9838 54.7793L41.5249 64.0263L43.066 57.8616L45.3777 62.4851L46.1483 57.8616C46.1483 57.8616 48.46 64.0263 48.46 63.2557C48.46 62.4851 51.5423 51.697 51.5423 51.697L54.6246 61.7145L59.248 52.4676L61.5597 62.4851L65.4125 55.5499L67.7242 62.4851L71.5771 58.6322L76.2005 63.2557V69.4203L73.1182 71.7321L68.4948 70.1909L65.4125 68.6497L64.6419 76.3555L63.1008 68.6497L60.0185 75.5849L55.3951 68.6497L53.854 75.5849L50.7717 70.9615L46.9189 80.979L44.6072 69.4203L39.9838 71.7321L36.9015 67.1086L35.3603 74.8144L32.2781 70.9615L29.1958 74.8144L27.6547 72.5026L23.0312 73.2732V60.944Z" fill="#FF0101"/>
</g>
<mask id="mask1_3419_772" style="mask-type:luminance" maskUnits="userSpaceOnUse" x="0" y="7" width="100" height="82">
<path d="M50 7.67773C39.7799 7.67773 30.4591 10.8687 23.5841 16.2265C16.7083 21.5844 12.2421 29.2501 12.2421 37.7788V40.8611C5.41565 44.3195 0.683594 53.3923 0.683594 64.0263C0.683594 77.6378 8.42704 88.6848 18.4067 88.6848V37.7788C18.4067 31.3915 21.7124 25.5143 27.3884 21.0904C33.0652 16.6673 41.0806 13.8424 50 13.8424C58.9193 13.8424 66.9348 16.6673 72.6115 21.0904C78.2875 25.5143 81.5933 31.3915 81.5933 37.7788V88.6848C91.5729 88.6848 99.3163 77.6378 99.3163 64.0263C99.3163 53.3923 94.5843 44.3195 87.7578 40.8611V37.7788C87.7578 29.2501 83.2916 21.5844 76.4158 16.2265C69.5408 10.8687 60.22 7.67773 50 7.67773ZM20.7184 40.1383V88.6848C22.2595 88.6848 23.8006 87.9142 24.5712 86.373V41.6795C23.8006 40.9089 22.2595 40.1383 20.7184 40.1383ZM79.2816 40.1383C77.7404 40.1383 76.1993 40.9089 75.4287 41.6795V86.373C76.1993 87.9142 77.7404 88.6848 79.2816 88.6848V40.1383Z" fill="white"/>
</mask>
<g mask="url(#mask1_3419_772)">
<path d="M50 7.67773C39.7799 7.67773 30.4591 10.8687 23.5841 16.2265C16.7083 21.5844 12.2421 29.2501 12.2421 37.7788V40.8611C5.41565 44.3195 0.683594 53.3923 0.683594 64.0263C0.683594 77.6378 8.42704 88.6848 18.4067 88.6848V37.7788C18.4067 31.3915 21.7124 25.5143 27.3884 21.0904C33.0652 16.6673 41.0806 13.8424 50 13.8424C58.9193 13.8424 66.9348 16.6673 72.6115 21.0904C78.2875 25.5143 81.5933 31.3915 81.5933 37.7788V88.6848C91.5729 88.6848 99.3163 77.6378 99.3163 64.0263C99.3163 53.3923 94.5843 44.3195 87.7578 40.8611V37.7788C87.7578 29.2501 83.2916 21.5844 76.4158 16.2265C69.5408 10.8687 60.22 7.67773 50 7.67773Z" fill="#0000CC"/>
<path d="M20.7188 40.1384V88.6848C22.2599 88.6848 23.801 87.9143 24.5716 86.3731V41.6796C23.801 40.909 22.2599 40.1384 20.7188 40.1384ZM79.2819 40.1384C77.7408 40.1384 76.1997 40.909 75.4291 41.6796V86.3731C76.1997 87.9143 77.7408 88.6848 79.2819 88.6848V40.1384Z" fill="#0000CC"/>
</g>
</svg>
