<svg width="123" height="100" viewBox="0 0 123 100" fill="none" xmlns="http://www.w3.org/2000/svg">
<g clip-path="url(#clip0_3419_1021)">
<path d="M48.3594 55.5076C48.8073 47.5047 52.723 40.4551 58.6297 35.4573C64.4232 30.5507 72.2201 27.5505 80.7257 27.5505C89.2314 27.5505 97.0209 30.5433 102.819 35.4696C108.726 40.4674 112.637 47.517 113.09 55.5125C113.538 63.7346 110.235 71.3729 104.441 77.0333C98.5345 82.7922 90.1346 86.4081 80.7257 86.4081C71.3168 86.4081 62.8997 82.7922 56.9979 77.0333C51.1921 71.3606 47.909 63.7223 48.3594 55.5076Z" fill="white"/>
<path d="M64.1207 56.227C64.3495 52.1209 66.3603 48.5025 69.3899 45.9383C72.5867 43.3148 76.5931 41.8811 80.7271 41.8811C84.8612 41.8811 88.8676 43.3148 92.0644 45.9383C95.0915 48.5025 97.1023 52.1209 97.3336 56.222C97.5625 60.4415 95.857 64.3505 92.9036 67.2645C89.8739 70.2203 85.562 72.075 80.7358 72.075C75.9095 72.075 71.5902 70.2203 68.5605 67.2645C65.5777 64.3604 63.8893 60.4415 64.1207 56.227Z" fill="#265787"/>
<path d="M37.675 64.5351C37.7021 66.1411 38.214 69.2644 38.9819 71.703C40.6408 76.956 43.4261 81.783 47.143 85.8465C51.128 90.2334 55.9919 93.7307 61.4176 96.1106C67.3368 98.6956 73.7274 100.023 80.1855 100.01C86.6437 99.9972 93.0289 98.6433 98.9375 96.0342C104.363 93.6308 109.226 90.1168 113.212 85.7185C116.924 81.6411 119.707 76.8064 121.371 71.5478C122.178 68.9776 122.693 66.3244 122.907 63.6385C123.11 61.0182 123.027 58.3835 122.66 55.781C121.94 50.7176 120.167 45.8616 117.455 41.5266C114.941 37.495 111.725 33.947 107.96 31.0507L69.527 1.52712C69.4925 1.50002 69.463 1.47293 69.4261 1.4483C66.9059 -0.48776 62.6654 -0.480371 59.8941 1.4483C57.1229 3.37696 56.771 6.65545 59.2641 8.70481L75.2885 21.7596L26.4449 21.8114H26.3784C22.3323 21.8261 18.4585 24.4765 17.6833 27.8338C16.8932 31.2478 19.6349 34.0804 23.8361 34.0952V34.11L48.5951 34.0632L4.40544 67.9836L4.23563 68.1092C0.0689283 71.3138 -1.27977 76.6244 1.34626 79.9866C4.0092 83.4031 9.67473 83.4105 13.898 80.0064L38.0171 60.2566C37.8215 61.6751 37.7073 63.1036 37.675 64.5351ZM99.6316 73.4518C94.665 78.5161 87.7098 81.3882 80.1886 81.403C72.6674 81.4178 65.695 78.5703 60.7285 73.5208C58.3804 71.1621 56.5688 68.3239 55.4173 65.2002C54.3319 62.2291 53.9118 59.0557 54.1868 55.9042C54.4498 52.8286 55.358 49.8431 56.8522 47.1427C58.3531 44.4417 60.3583 42.0544 62.7589 40.1103C67.5876 36.1692 73.7355 34.0386 80.1665 34.0312C86.5974 34.0238 92.7478 36.1347 97.5814 40.061C99.982 41.9964 101.987 44.3765 103.488 47.0712C104.983 49.7676 105.893 52.7486 106.161 55.8204C106.434 58.9703 106.014 62.1417 104.93 65.1115C103.782 68.2398 101.975 71.0842 99.6316 73.4518Z" fill="#EA7600"/>
</g>
<defs>
<clipPath id="clip0_3419_1021">
<rect width="123" height="100" fill="white"/>
</clipPath>
</defs>
</svg>
