<svg width="88" height="100" viewBox="0 0 88 100" fill="none" xmlns="http://www.w3.org/2000/svg">
<g clip-path="url(#clip0_3419_879)">
<path fill-rule="evenodd" clip-rule="evenodd" d="M86.8877 75C87.5808 73.7956 88.0079 72.4284 88.0079 71.2077V28.7923C88.0079 27.5716 87.5808 26.2126 86.8877 25L44.0039 50L86.8877 75Z" fill="#3949AB"/>
<path fill-rule="evenodd" clip-rule="evenodd" d="M47.8169 99.0804L84.1968 77.8727C85.2445 77.2624 86.1955 76.2044 86.8886 75L44.0049 50L1.12109 75C1.8142 76.2044 2.7652 77.2624 3.81292 77.8727L40.1928 99.0804C42.2882 100.301 45.7135 100.301 47.8169 99.0804Z" fill="#283593"/>
<path fill-rule="evenodd" clip-rule="evenodd" d="M86.8878 25.0001C86.1947 23.7957 85.2437 22.7377 84.196 22.1274L47.8161 0.919678C45.7207 -0.301025 42.2874 -0.301025 40.192 0.919678L3.81207 22.1274C1.71664 23.3481 0 26.351 0 28.7924V71.2078C0 72.4285 0.427145 73.7875 1.12025 75.0001L44.004 50.0001L86.8878 25.0001Z" fill="#5C6BC0"/>
<path fill-rule="evenodd" clip-rule="evenodd" d="M44.004 79.6225C27.8289 79.6225 14.668 66.3331 14.668 50.0001C14.668 33.6671 27.8289 20.3777 44.004 20.3777C54.4408 20.3777 64.1765 26.0499 69.407 35.1807L56.7136 42.6026C54.0943 38.0291 49.2264 35.197 44.004 35.197C35.9124 35.197 29.336 41.8376 29.336 50.0082C29.336 58.1707 35.9124 64.8194 44.004 64.8194C49.2264 64.8194 54.0943 61.9792 56.7136 57.4138L69.407 64.8357C64.1765 73.9503 54.4408 79.6225 44.004 79.6225Z" fill="white"/>
</g>
<defs>
<clipPath id="clip0_3419_879">
<rect width="88" height="100" fill="white"/>
</clipPath>
</defs>
</svg>
