<svg width="89" height="100" viewBox="0 0 89 100" fill="none" xmlns="http://www.w3.org/2000/svg">
<g clip-path="url(#clip0_3419_971)">
<path fill-rule="evenodd" clip-rule="evenodd" d="M80.6556 90.2767L44.4999 100L8.3435 90.2767L0 0H89L80.6556 90.2767Z" fill="#2062AF"/>
<path fill-rule="evenodd" clip-rule="evenodd" d="M44.5 7.31226V92.2451L44.582 92.2673L73.8412 84.3986L80.5951 7.31226H44.5Z" fill="#3C9CD7"/>
<path fill-rule="evenodd" clip-rule="evenodd" d="M44.468 29.8851L18.5898 40.6491L19.448 51.3063L44.468 40.6221L71.0823 29.2572L72.1859 18.3555L44.468 29.8851Z" fill="white"/>
<mask id="mask0_3419_971" style="mask-type:luminance" maskUnits="userSpaceOnUse" x="18" y="29" width="27" height="23">
<path fill-rule="evenodd" clip-rule="evenodd" d="M18.5449 29.8401H44.5132V51.3513H18.5449V29.8401Z" fill="url(#paint0_linear_3419_971)"/>
</mask>
<g mask="url(#mask0_3419_971)">
<path fill-rule="evenodd" clip-rule="evenodd" d="M18.5898 40.649L19.448 51.3062L44.4677 40.622V29.885L18.5898 40.649Z" fill="url(#paint1_linear_3419_971)"/>
</g>
<mask id="mask1_3419_971" style="mask-type:luminance" maskUnits="userSpaceOnUse" x="44" y="18" width="29" height="23">
<path fill-rule="evenodd" clip-rule="evenodd" d="M44.4219 18.3108H72.2297V40.6672H44.4219V18.3108Z" fill="url(#paint2_linear_3419_971)"/>
</mask>
<g mask="url(#mask1_3419_971)">
<path fill-rule="evenodd" clip-rule="evenodd" d="M72.1847 18.3557L44.4668 29.8848V40.6216L71.0811 29.2569L72.1847 18.3557Z" fill="url(#paint3_linear_3419_971)"/>
</g>
<path fill-rule="evenodd" clip-rule="evenodd" d="M18.6289 40.6494L19.4874 51.3066L57.877 51.4287L57.0183 65.6382L44.386 69.1902L32.2425 66.1278L31.5066 57.3081H20.2233L21.6951 74.3349L44.5086 81.072L67.1983 74.457L70.1419 40.6494H18.6289Z" fill="url(#paint4_linear_3419_971)"/>
<path fill-rule="evenodd" clip-rule="evenodd" d="M44.4677 40.6494H18.5898L19.448 51.3066L44.4677 51.3864V40.6494ZM44.4677 69.156L44.3451 69.1902L32.2034 66.1278L31.4675 57.3081H20.1845L21.6561 74.3349L44.4677 81.072V69.156Z" fill="black" fill-opacity="0.05098"/>
<path fill-rule="evenodd" clip-rule="evenodd" d="M16.2598 18.3557H72.1861L71.0825 29.2574H17.6087L16.2598 18.3557Z" fill="url(#paint5_linear_3419_971)"/>
<path fill-rule="evenodd" clip-rule="evenodd" d="M44.4682 18.3557H16.2598L17.6087 29.2574H44.4682V18.3557Z" fill="black" fill-opacity="0.05098"/>
</g>
<defs>
<linearGradient id="paint0_linear_3419_971" x1="31.5289" y1="29.8851" x2="31.5289" y2="51.3063" gradientUnits="userSpaceOnUse">
<stop stop-color="white" stop-opacity="0"/>
<stop offset="0.388" stop-color="white"/>
<stop offset="1" stop-color="white" stop-opacity="0.831"/>
</linearGradient>
<linearGradient id="paint1_linear_3419_971" x1="31.5288" y1="29.885" x2="31.5288" y2="51.3062" gradientUnits="userSpaceOnUse">
<stop stop-color="#D1D3D4"/>
<stop offset="0.388" stop-color="#D1D3D4"/>
<stop offset="1" stop-color="#D1D3D4"/>
</linearGradient>
<linearGradient id="paint2_linear_3419_971" x1="58.3258" y1="18.3557" x2="58.3258" y2="40.6222" gradientUnits="userSpaceOnUse">
<stop stop-color="white" stop-opacity="0"/>
<stop offset="0.388" stop-color="white"/>
<stop offset="1" stop-color="white" stop-opacity="0.831"/>
</linearGradient>
<linearGradient id="paint3_linear_3419_971" x1="58.3257" y1="18.3557" x2="58.3257" y2="40.6216" gradientUnits="userSpaceOnUse">
<stop stop-color="#D1D3D4"/>
<stop offset="0.388" stop-color="#D1D3D4"/>
<stop offset="1" stop-color="#D1D3D4"/>
</linearGradient>
<linearGradient id="paint4_linear_3419_971" x1="18.629" y1="60.8607" x2="70.1419" y2="60.8607" gradientUnits="userSpaceOnUse">
<stop stop-color="#E8E7E5"/>
<stop offset="1" stop-color="white"/>
</linearGradient>
<linearGradient id="paint5_linear_3419_971" x1="16.2597" y1="23.8066" x2="72.1861" y2="23.8066" gradientUnits="userSpaceOnUse">
<stop stop-color="#E8E7E5"/>
<stop offset="1" stop-color="white"/>
</linearGradient>
<clipPath id="clip0_3419_971">
<rect width="89" height="100" fill="white"/>
</clipPath>
</defs>
</svg>
