<svg width="68" height="100" viewBox="0 0 68 100" fill="none" xmlns="http://www.w3.org/2000/svg">
<g clip-path="url(#clip0_3419_1060)">
<path d="M33.9082 48.1888C33.9082 39.9836 40.608 33.334 48.8682 33.334H51.032C51.091 33.3359 51.1558 33.332 51.2168 33.332C60.4852 33.332 68.0006 40.7975 68.0006 50C68.0006 59.2025 60.4852 66.666 51.2168 66.666C51.1558 66.666 51.091 66.6641 51.0301 66.6641L48.8682 66.666C40.608 66.666 33.9082 60.0125 33.9082 51.8093V48.1888Z" fill="#00B6FF"/>
<path d="M0 83.3359C0 74.1315 7.51538 66.666 16.7838 66.666L33.9076 66.668V83.1642C33.9076 92.4643 26.2311 100 16.8664 100C7.59988 100 0 92.5385 0 83.3359Z" fill="#24CB71"/>
<path d="M33.9082 0.00195175V33.334H51.032C51.091 33.332 51.1558 33.3359 51.2168 33.3359C60.4852 33.3359 68.0006 25.8705 68.0006 16.668C68.0006 7.4635 60.4852 0 51.2168 0C51.1558 0 51.091 0.00195175 51.0301 0.00195175H33.9082Z" fill="#FF7237"/>
<path d="M0 16.666C0 25.8705 7.51538 33.334 16.7838 33.334H33.9076V0.00195312H16.7819C7.51538 0.00195312 0 7.4635 0 16.666Z" fill="#FF3737"/>
<path d="M0 50C0 59.2045 7.51538 66.668 16.7838 66.668H33.9076V33.3359H16.7819C7.51538 33.3359 0 40.7975 0 50Z" fill="#874FFF"/>
</g>
<defs>
<clipPath id="clip0_3419_1060">
<rect width="68" height="100" fill="white"/>
</clipPath>
</defs>
</svg>
