<svg width="100" height="100" viewBox="0 0 100 100" fill="none" xmlns="http://www.w3.org/2000/svg">
<g clip-path="url(#clip0_3419_1068)">
<path d="M98.1119 45.544L54.4514 1.88809C51.9368 -0.62676 47.8596 -0.62676 45.345 1.88809L36.2792 10.9546L47.7782 22.4545C50.4557 21.5512 53.5155 22.1534 55.6477 24.2857C57.788 26.4262 58.3902 29.5189 57.4625 32.2047L68.5465 43.2896C71.232 42.3618 74.3245 42.964 76.4648 45.1045C79.4596 48.0995 79.4596 52.9502 76.4648 55.9371C73.47 58.9321 68.6197 58.9321 65.6249 55.9371C63.3707 53.6827 62.8173 50.3784 63.9566 47.6031L53.6213 37.2669V64.4746C54.3538 64.8327 55.0374 65.321 55.6477 65.9232C58.6425 68.9183 58.6425 73.7689 55.6477 76.764C52.6529 79.759 47.8027 79.759 44.816 76.764C41.8212 73.7689 41.8212 68.9183 44.816 65.9232C45.5566 65.1826 46.4111 64.6292 47.3225 64.2548V36.7949C46.4111 36.4205 45.5566 35.8671 44.816 35.1265C42.5455 32.8639 42.0002 29.5352 43.164 26.7518L31.8196 15.4064L1.88794 45.3487C-0.626709 47.8635 -0.626709 51.941 1.88794 54.4558L45.5484 98.1199C48.0631 100.635 52.1402 100.635 54.6549 98.1199L98.1119 54.6674C100.627 52.1445 100.627 48.067 98.1119 45.544Z" fill="#F05133"/>
</g>
<defs>
<clipPath id="clip0_3419_1068">
<rect width="100" height="100" fill="white"/>
</clipPath>
</defs>
</svg>
