<svg width="100" height="97" viewBox="0 0 100 97" fill="none" xmlns="http://www.w3.org/2000/svg">
<g clip-path="url(#clip0_3419_1016)">
<path d="M82.2915 0H17.7085C7.92835 0 0 7.88776 0 17.6178V79.3822C0 89.1122 7.92835 97 17.7085 97H82.2915C92.0716 97 100 89.1122 100 79.3822V17.6178C100 7.88776 92.0716 0 82.2915 0Z" fill="#330000"/>
<path d="M48.4579 58.2124H32.9608L29.809 67.956C29.7673 68.1345 29.6637 68.2927 29.5163 68.4027C29.369 68.5126 29.1873 68.5673 29.0034 68.5571H21.1551C20.7067 68.5571 20.5503 68.312 20.6859 67.8218L34.1026 29.3727C34.233 28.972 34.3672 28.5181 34.5054 28.011C34.6796 27.1201 34.7693 26.2148 34.7733 25.3072C34.7653 25.2535 34.768 25.1988 34.7814 25.1462C34.7948 25.0936 34.8186 25.0441 34.8513 25.0007C34.8841 24.9573 34.9251 24.9208 34.9721 24.8932C35.0191 24.8657 35.0712 24.8477 35.1252 24.8403C35.1641 24.8345 35.2036 24.8345 35.2425 24.8403H45.9083C46.2211 24.8403 46.399 24.9512 46.446 25.173L61.6733 67.8879C61.8082 68.3314 61.6733 68.5551 61.2705 68.5551H52.5502C52.4005 68.5717 52.2498 68.5334 52.1264 68.4475C52.003 68.3616 51.9152 68.2339 51.8795 68.0883L48.4579 58.2124ZM35.3774 49.7974H45.9748C45.7075 48.9065 45.3947 47.9054 45.0363 46.794C44.6778 45.6826 44.2978 44.4922 43.8964 43.2226L42.688 39.4197C42.2853 38.1514 41.9164 36.9272 41.5814 35.7472C41.2464 34.5671 40.942 33.4907 40.6683 32.5181H40.6018C40.2239 34.3201 39.7534 36.1017 39.1921 37.8558C38.5664 39.8593 37.929 41.9063 37.2799 43.9968C36.6307 46.0873 35.9966 48.0208 35.3774 49.7974Z" fill="#FF9A00"/>
<path d="M70.7288 31.9172C70.0446 31.9443 69.3624 31.8275 68.7266 31.5744C68.0909 31.3213 67.5159 30.9377 67.0393 30.4485C66.564 29.938 66.195 29.339 65.9534 28.686C65.7118 28.033 65.6024 27.3389 65.6316 26.6437C65.6083 25.9568 65.7307 25.2726 65.9908 24.6359C66.2508 23.9991 66.6427 23.4239 67.141 22.9478C67.6344 22.4766 68.2167 22.1071 68.8543 21.8608C69.4919 21.6144 70.1721 21.4959 70.8559 21.5122C72.4657 21.5122 73.7288 21.9907 74.6451 22.9478C75.5748 23.9512 76.0669 25.2801 76.0138 26.6437C76.042 27.3418 75.9288 28.0383 75.6809 28.692C75.433 29.3456 75.0555 29.943 74.5709 30.4485C74.0665 30.9432 73.4649 31.3289 72.8038 31.5816C72.1428 31.8343 71.4363 31.9486 70.7288 31.9172ZM66.1008 67.8881V35.9866C66.1008 35.5858 66.2787 35.3855 66.6365 35.3855H74.8856C75.2415 35.3855 75.4214 35.58 75.4214 35.9866V67.8881C75.4214 68.3316 75.2435 68.5553 74.8856 68.5553H66.705C66.3022 68.5572 66.1008 68.3335 66.1008 67.8881Z" fill="#FF9A00"/>
</g>
<defs>
<clipPath id="clip0_3419_1016">
<rect width="100" height="97" fill="white"/>
</clipPath>
</defs>
</svg>
