<svg width="100" height="100" viewBox="0 0 100 100" fill="none" xmlns="http://www.w3.org/2000/svg">
<g clip-path="url(#clip0_3419_795)">
<path fill-rule="evenodd" clip-rule="evenodd" d="M0 0H100V100H0V0Z" fill="#F7DF1E"/>
<path fill-rule="evenodd" clip-rule="evenodd" d="M26.2949 83.5694L33.9447 78.9389C35.4176 81.5593 36.7604 83.7729 39.9831 83.7729C43.0674 83.7729 45.0205 82.5684 45.0205 77.8647V45.9067H54.4199V77.9949C54.4199 87.7279 48.7152 92.155 40.39 92.155C32.8704 92.155 28.5085 88.2651 26.2949 83.5694ZM59.5225 82.5603L67.1722 78.1332C69.1904 81.421 71.8027 83.838 76.4333 83.838C80.3232 83.838 82.8135 81.893 82.8135 79.2074C82.8135 75.9848 80.2663 74.8455 75.9694 72.9656L73.6175 71.9565C66.8385 69.0675 62.3382 65.446 62.3382 57.7963C62.3382 50.7488 67.7093 45.3777 76.0996 45.3777C82.0729 45.3777 86.3698 47.461 89.4541 52.8972L82.138 57.5929C80.5267 54.7039 78.7852 53.5645 76.0996 53.5645C73.349 53.5645 71.5993 55.3061 71.5993 57.5929C71.5993 60.4086 73.3408 61.5561 77.3691 63.2976L79.721 64.3067C87.7126 67.7328 92.2048 71.224 92.2048 79.0772C92.2048 87.5326 85.556 92.1632 76.6286 92.1632C67.9128 92.1632 62.2731 87.9965 59.5225 82.5603Z" fill="black"/>
</g>
<defs>
<clipPath id="clip0_3419_795">
<rect width="100" height="100" fill="white"/>
</clipPath>
</defs>
</svg>
