<svg width="100" height="98" viewBox="0 0 100 98" fill="none" xmlns="http://www.w3.org/2000/svg">
<g clip-path="url(#clip0_3419_1011)">
<path d="M82.2925 0H17.7075C7.92793 0 0 7.96852 0 17.7982V80.2018C0 90.0315 7.92793 98 17.7075 98H82.2925C92.0721 98 100 90.0315 100 80.2018V17.7982C100 7.96852 92.0721 0 82.2925 0Z" fill="#001E36"/>
<path d="M22.5176 68.724V25.6368C22.5176 25.3245 22.6505 25.1654 22.9201 25.1654C23.6333 25.1654 24.2879 25.1654 25.265 25.132C26.242 25.0987 27.3108 25.0869 28.452 25.0653L32.0748 24.9965C33.3488 24.9743 34.6118 24.9631 35.8637 24.9631C39.2624 24.9631 42.1283 25.39 44.4615 26.2437C46.5589 26.9583 48.4719 28.1331 50.0617 29.6827C51.4099 31.0267 52.4513 32.6492 53.114 34.4377C53.7408 36.1793 54.0577 38.0182 54.0499 39.8702C54.0499 43.4684 53.2227 46.4354 51.5683 48.7713C49.9022 51.1173 47.5611 52.8939 44.8601 53.8621C42.0424 54.9188 38.91 55.2762 35.467 55.2762C34.49 55.2762 33.7904 55.2664 33.3879 55.2428C32.9854 55.2193 32.3816 55.2094 31.5765 55.2094V68.6612C31.5867 68.731 31.5831 68.8022 31.5658 68.8705C31.5485 68.9389 31.5178 69.0032 31.4757 69.0596C31.4335 69.116 31.3807 69.1635 31.3202 69.1993C31.2597 69.2351 31.1927 69.2585 31.1232 69.2681C31.0733 69.2759 31.0226 69.2759 30.9727 69.2681H22.9865C22.6661 69.2622 22.5176 69.0835 22.5176 68.724ZM31.5765 33.2573V47.3101C32.1575 47.3559 32.6942 47.3781 33.1866 47.3768H35.4006C37.0296 47.3712 38.648 47.1115 40.1977 46.6069C41.5262 46.2119 42.7139 45.4416 43.6193 44.3875C44.4908 43.3545 44.9265 41.9142 44.9265 40.0666C44.9603 38.7621 44.6213 37.4752 43.9495 36.3585C43.2455 35.2784 42.2275 34.4424 41.0341 33.9644C39.4784 33.3571 37.8171 33.0705 36.149 33.1218C35.0742 33.1218 34.1239 33.1329 33.298 33.1552C32.4721 33.1774 31.9015 33.2115 31.5863 33.2573H31.5765Z" fill="#31A8FF"/>
<path d="M79.9894 44.7548C78.7288 44.103 77.3858 43.6266 75.9973 43.3387C74.468 42.9855 72.9042 42.8043 71.335 42.7986C70.4864 42.7758 69.6391 42.8784 68.8201 43.1031C68.2982 43.2192 67.8343 43.5178 67.5109 43.9456C67.2924 44.2878 67.1764 44.686 67.1768 45.0926C67.1886 45.4869 67.3302 45.8661 67.5793 46.1709C67.9709 46.6317 68.4498 47.0096 68.9882 47.2825C69.9441 47.7985 70.9293 48.2576 71.9388 48.6574C74.1903 49.4154 76.3418 50.4455 78.3461 51.7252C79.7102 52.5921 80.8394 53.7851 81.6328 55.1977C82.3014 56.5373 82.6367 58.02 82.6098 59.5186C82.6494 61.4948 82.0877 63.4361 80.9997 65.0827C79.8341 66.7529 78.2159 68.0516 76.3373 68.8242C74.2973 69.725 71.7792 70.1755 68.783 70.1755C66.8806 70.1932 64.9815 70.0122 63.1163 69.6353C61.6463 69.3644 60.2154 68.9112 58.8565 68.286C58.7095 68.2102 58.5871 68.0938 58.5036 67.9505C58.4202 67.8071 58.3793 67.6428 58.3856 67.4769V60.1961C58.3771 60.1247 58.3883 60.0524 58.4179 59.9869C58.4475 59.9214 58.4945 59.8654 58.5536 59.8249C58.6112 59.7919 58.6775 59.7774 58.7435 59.7834C58.8095 59.7893 58.8721 59.8155 58.9229 59.8583C60.5293 60.8103 62.2738 61.5041 64.0933 61.9147C65.6959 62.319 67.34 62.5338 68.9921 62.555C70.5553 62.555 71.7069 62.3527 72.4468 61.9481C72.7799 61.7947 73.0617 61.5476 73.2579 61.2367C73.4542 60.9258 73.5567 60.5644 73.5528 60.1961C73.5528 59.6109 73.2174 59.0485 72.5465 58.509C71.8756 57.9696 70.5104 57.3214 68.4508 56.5646C66.3445 55.8279 64.3475 54.8071 62.5145 53.5302C61.2035 52.6148 60.1235 51.4042 59.3606 49.9949C58.6995 48.6666 58.3644 47.1984 58.3836 45.7133C58.3779 43.9242 58.8663 42.1687 59.7944 40.6421C60.849 38.9649 62.3636 37.6301 64.1558 36.7985C66.1229 35.8099 68.5824 35.3156 71.5343 35.3156C73.2635 35.301 74.9911 35.4245 76.7008 35.6849C77.9384 35.8448 79.1483 36.1753 80.2962 36.6669C80.3874 36.6932 80.4712 36.7404 80.541 36.8048C80.6109 36.8692 80.6649 36.9491 80.6988 37.0381C80.7442 37.2024 80.7666 37.3723 80.7652 37.5428V44.3542C80.7706 44.4329 80.7554 44.5116 80.7211 44.5826C80.6869 44.6536 80.6347 44.7143 80.5698 44.7587C80.4794 44.8033 80.3799 44.8261 80.2792 44.8254C80.1785 44.8247 80.0793 44.8006 79.9894 44.7548Z" fill="#31A8FF"/>
</g>
<defs>
<clipPath id="clip0_3419_1011">
<rect width="100" height="98" fill="white"/>
</clipPath>
</defs>
</svg>
