<svg width="100" height="100" viewBox="0 0 100 100" fill="none" xmlns="http://www.w3.org/2000/svg">
<path d="M32.0482 0.00141315C31.5427 0.0170095 30.9983 0.20386 30.3806 0.691016C28.8681 0.107835 27.4011 -0.0949171 26.0895 1.09254C24.0641 0.829853 23.406 1.37206 22.9072 2.00508C22.4626 1.99591 19.5803 1.5479 18.2583 3.51976C14.9366 3.1268 13.8867 5.47358 15.0763 7.66227C14.3977 8.71242 13.6947 9.75004 15.2812 11.7525C14.7201 12.8675 15.0681 14.0773 16.3901 15.5412C16.0412 17.1091 16.7271 18.2149 17.9574 19.0769C17.7271 21.2222 19.9246 22.4696 20.5806 22.914C20.8326 24.1638 21.3577 25.3436 23.8675 25.9956C24.2815 27.8586 25.7898 28.1803 27.2506 28.5711C22.4228 31.3776 18.2827 35.0696 18.3109 44.1292L17.6035 45.3907C12.0678 48.7571 7.08733 59.5773 14.8757 68.3717C15.3843 71.1247 16.2375 73.102 16.9971 75.2904C18.1332 84.1087 25.5482 88.2381 27.5042 88.7265C30.3699 90.9094 33.4222 92.9806 37.5528 94.4317C41.4464 98.4473 45.6647 99.9779 49.906 99.9754C49.9684 99.9754 58.5534 98.4476 62.4473 94.4317C66.5775 92.9806 69.6298 90.9094 72.4959 88.7265C74.4516 88.2381 81.8665 84.1087 83.0026 75.2904C83.7623 73.102 84.6155 71.1247 85.1243 68.3717C92.9121 59.5763 87.932 48.7558 82.3962 45.3895L81.6879 44.128C81.7161 35.0693 77.576 31.3769 72.7482 28.5699C74.2087 28.1791 75.7173 27.8574 76.1311 25.9944C78.6408 25.3421 79.1662 24.1626 79.4179 22.9127C80.0742 22.4684 82.2714 21.221 82.0415 19.0757C83.2714 18.2136 83.9574 17.1075 83.6084 15.5399C84.9308 14.076 85.2785 12.8662 84.7173 11.751C86.3042 9.74973 85.6002 8.71212 84.9225 7.66196C86.1115 5.47328 85.0623 3.12618 81.7393 3.51946C80.4179 1.54759 77.5363 1.9953 77.0904 2.00447C76.5919 1.37175 75.9338 0.829548 73.9084 1.09224C72.5968 -0.0952229 71.1301 0.107224 69.6173 0.69071C67.821 -0.726721 66.6323 0.409364 65.2745 0.839028C63.0999 0.128324 62.6023 1.10172 61.5338 1.49836C59.1619 0.997132 58.4412 2.08826 57.3042 3.23995L55.9815 3.21365C52.4042 5.3219 50.6268 9.61487 49.9968 11.8219C49.3665 9.61456 47.5934 5.3216 44.0167 3.21365L42.6941 3.23995C41.5555 2.08826 40.835 0.997132 38.4632 1.49836C37.3944 1.10172 36.8986 0.128324 34.7222 0.839028C33.8311 0.557071 33.0115 -0.0288621 32.0467 0.00110734L7.49219 43.1191" fill="black"/>
<path d="M24.9257 9.27632C34.4169 14.1696 39.9346 18.128 42.9576 21.4993C41.4095 27.7038 33.3337 27.987 30.3808 27.813C30.9854 27.5317 31.49 27.1944 31.6689 26.6766C30.9279 26.15 28.3007 26.621 26.4664 25.5907C27.171 25.4445 27.5007 25.3023 27.83 24.7824C26.0973 24.2298 24.2306 23.7534 23.1328 22.8378C23.7251 22.8451 24.2783 22.9705 25.052 22.4338C23.5001 21.5974 21.8438 20.9344 20.5569 19.6558C21.3594 19.6363 22.2245 19.6479 22.4762 19.3528C21.0557 18.4727 19.8569 17.4941 18.8649 16.4234C19.9878 16.5589 20.4621 16.4424 20.7337 16.2467C19.6597 15.1467 18.3007 14.2179 17.6527 12.8626C18.4863 13.15 19.2493 13.2601 19.7991 12.8375C19.4343 12.0142 17.871 11.5286 16.9707 9.60476C17.8487 9.69008 18.7796 9.7962 18.9658 9.60476C18.5585 7.94482 17.8594 7.01149 17.1738 6.04452C19.0524 6.01669 21.8988 6.05185 21.7701 5.89314L20.6083 4.70629C22.4435 4.2121 24.3212 4.78549 25.6845 5.21118C26.2964 4.72831 25.6735 4.1176 24.9267 3.49406C26.4863 3.70231 27.8955 4.06072 29.1695 4.55461C29.8499 3.94023 28.7276 3.32556 28.1845 2.71118C30.5939 3.16806 31.6147 3.81057 32.6291 4.45369C33.3652 3.74819 32.6713 3.14849 32.1747 2.53442C33.9915 3.20721 34.9273 4.07601 35.9123 4.93351C36.2462 4.48274 36.7609 4.15216 36.1395 3.0647C37.4294 3.80812 38.401 4.68427 39.1196 5.66592C39.9178 5.15767 39.5952 4.46286 39.5994 3.82219C40.9401 4.91271 41.7909 6.07326 42.8322 7.20629C43.042 7.05338 43.2254 6.53565 43.3878 5.71638C46.5857 8.81883 51.1046 16.6338 44.5493 19.7323C38.9704 15.1311 32.3074 11.7864 24.9236 9.27754L24.9257 9.27632Z" fill="#75A928"/>
<path d="M75.2865 9.27644C65.7966 14.1703 60.2788 18.1275 57.2562 21.4994C58.8042 27.704 66.8797 27.9871 69.8326 27.8131C69.2281 27.5318 68.7235 27.1945 68.5449 26.6767C69.2859 26.1501 71.9131 26.6211 73.747 25.5908C73.0424 25.4446 72.7131 25.3024 72.3834 24.7826C74.1164 24.23 75.9831 23.7535 77.0807 22.8379C76.4883 22.8452 75.9351 22.9706 75.1614 22.4339C76.7137 21.5975 78.37 20.9345 79.6568 19.656C78.854 19.6364 77.9889 19.648 77.7375 19.3529C79.158 18.4728 80.3568 17.4942 81.3488 16.4235C80.2256 16.559 79.7516 16.4425 79.48 16.2468C80.5537 15.1468 81.9131 14.218 82.5611 12.8627C81.7271 13.1501 80.9641 13.2602 80.4143 12.8376C80.7791 12.0144 82.3427 11.5287 83.2427 9.60488C82.3651 9.69021 81.4339 9.79632 81.2476 9.60488C81.6559 7.94433 82.355 7.011 83.0406 6.04403C81.162 6.0162 78.3155 6.05137 78.4443 5.89265L79.606 4.7055C77.7709 4.21161 75.8932 4.78501 74.5299 5.21069C73.918 4.72782 74.5406 4.11712 75.2874 3.49357C73.7281 3.70152 72.3186 4.06024 71.0449 4.55412C70.3641 3.93975 71.4868 3.32507 72.0299 2.71069C69.6204 3.16757 68.5996 3.81008 67.5849 4.4532C66.8489 3.7477 67.543 3.148 68.0397 2.53394C66.2229 3.20672 65.2871 4.07553 64.3021 4.93302C63.9678 4.48225 63.4534 4.15167 64.0745 3.06421C62.7849 3.80764 61.8134 4.68378 61.0947 5.66543C60.2966 5.15718 60.6192 4.46207 60.6149 3.8217C59.2742 4.91222 58.4235 6.07247 57.3822 7.2058C57.1724 7.0529 56.9889 6.53516 56.8265 5.71559C53.6287 8.81834 49.1097 16.6333 55.6651 19.7318C61.2409 15.1293 67.9036 11.7853 75.2877 9.27644H75.2865Z" fill="#75A928"/>
<path d="M61.5992 72.4564C61.6322 78.2463 56.5689 82.9647 50.2903 82.9949C44.0114 83.0255 38.8946 78.3567 38.8616 72.5668C38.8613 72.5301 38.8613 72.4934 38.8616 72.4564C38.8285 66.6668 43.8915 61.9485 50.1704 61.9179C56.4493 61.8873 61.5658 66.5561 61.5992 72.346V72.4564Z" fill="#BC1142"/>
<path d="M43.6531 42.5087C48.3638 45.5952 49.213 52.591 45.5497 58.1341C41.8864 63.6775 35.098 65.6695 30.3873 62.5833C25.6766 59.4968 24.8277 52.501 28.4907 46.9579C32.154 41.4145 38.9424 39.4225 43.6531 42.5087Z" fill="#BC1142"/>
<path d="M56.3677 41.9501C51.6573 45.0363 50.8081 52.0324 54.4711 57.5755C58.1344 63.1189 64.9228 65.111 69.6335 62.0244C74.3442 58.9382 75.1934 51.9425 71.5301 46.399C67.8671 40.8559 61.0787 38.8639 56.3677 41.9501Z" fill="#BC1142"/>
<path d="M20.1084 47.5547C25.1943 46.1914 21.8255 68.5954 17.6873 66.7572C13.1353 63.096 11.6692 52.374 20.1084 47.5547Z" fill="#BC1142"/>
<path d="M78.8848 47.2754C73.7982 45.9124 77.1676 68.3173 81.3059 66.479C85.8578 62.8176 87.3239 52.0943 78.8848 47.2754Z" fill="#BC1142"/>
<path d="M61.6036 30.5914C70.3806 29.1094 77.684 34.3241 77.3892 43.8415C77.1005 47.4904 58.3699 31.1348 61.6036 30.5914Z" fill="#BC1142"/>
<path d="M37.3528 30.3121C28.5752 28.8298 21.2724 34.0457 21.5672 43.5626C21.8559 47.2112 40.5868 30.8555 37.3528 30.3121Z" fill="#BC1142"/>
<path d="M49.9619 28.0925C44.7234 27.9561 39.6959 31.9803 39.6836 34.3145C39.6693 37.1506 43.8255 40.0546 49.9977 40.1283C56.3004 40.1732 60.3225 37.8038 60.3427 34.8769C60.3659 31.5607 54.6102 28.0414 49.9619 28.0925Z" fill="#BC1142"/>
<path d="M50.2807 86.2515C54.848 86.0521 60.9764 87.7225 60.9886 89.9387C61.0645 92.0903 55.4305 96.9521 49.9779 96.8582C44.3308 97.102 38.7935 92.2325 38.866 90.5448C38.7813 88.0702 45.7418 86.138 50.2807 86.2515Z" fill="#BC1142"/>
<path d="M33.4121 73.1185C36.6638 77.036 38.1464 83.9185 35.4326 85.9476C32.8654 87.4965 26.6308 86.8586 22.1996 80.4925C19.2109 75.1506 19.5959 69.7148 21.6944 68.1179C24.8323 66.2066 29.6807 68.7886 33.4125 73.1185H33.4121Z" fill="#BC1142"/>
<path d="M66.4998 71.8766C62.9815 75.9974 61.0225 83.5136 63.5888 85.9344C66.0429 87.8152 72.6307 87.5522 77.4968 80.8002C81.0301 76.2653 79.8463 68.6919 77.828 66.6809C74.8298 64.3619 70.5255 67.3298 66.4998 71.8754V71.8766Z" fill="#BC1142"/>
</svg>
