<svg width="100" height="82" viewBox="0 0 100 82" fill="none" xmlns="http://www.w3.org/2000/svg">
<g clip-path="url(#clip0_3419_768)">
<path fill-rule="evenodd" clip-rule="evenodd" d="M100 41.0771C100 35.0628 91.7074 29.3662 78.9876 25.827C81.9255 14.0569 80.6152 4.69552 74.8698 1.69573C73.5433 0.993815 71.9971 0.661326 70.3044 0.661326V4.79157C71.2402 4.79157 71.9971 4.96151 72.6318 5.27183C75.4069 6.71262 76.6032 12.2098 75.6673 19.2807C75.4395 21.017 75.0732 22.8494 74.6257 24.7187C70.6299 23.8321 66.2679 23.1449 61.6862 22.7016C58.9356 19.2807 56.0791 16.1701 53.2064 13.451C59.847 7.83569 66.0807 4.76941 70.3206 4.76941V0.63916C64.7135 0.63916 57.3812 4.26698 49.9593 10.5621C42.5374 4.30392 35.2051 0.713046 29.598 0.713046V4.84329C33.8135 4.84329 40.0716 7.8948 46.7204 13.4658C43.8639 16.1848 41.0156 19.2733 38.3057 22.7016C33.6995 23.1449 29.3376 23.8321 25.3418 24.7335C24.8698 22.8863 24.528 21.0909 24.2839 19.3693C23.3236 12.2984 24.5117 6.80128 27.2624 5.33833C27.8727 5.00584 28.6702 4.85807 29.6061 4.85807V0.735212C27.8971 0.735212 26.3428 1.0677 25 1.76962C19.2708 4.76941 17.985 14.116 20.9473 25.8492C8.25195 29.3957 0 35.0776 0 41.0771C0 47.0915 8.29264 52.7881 21.0124 56.3273C18.0745 68.0974 19.3848 77.4588 25.1302 80.4586C26.4567 81.1605 28.0029 81.493 29.7201 81.493C35.3272 81.493 42.6595 77.8652 50.0814 71.57C57.5033 77.8282 64.8356 81.4191 70.4427 81.4191C72.1517 81.4191 73.7061 81.0866 75.0488 80.3847C80.778 77.3849 82.0638 68.0383 79.1016 56.3051C91.748 52.7734 100 47.0693 100 41.0771ZM59.2936 41.0771C59.2936 36.4075 55.127 32.6172 49.9756 32.6172C44.8324 32.6172 40.6576 36.4001 40.6576 41.0771C40.6576 45.7542 44.8242 49.5371 49.9756 49.5371C55.127 49.5297 59.2936 45.7468 59.2936 41.0771ZM73.4619 28.7307C72.7051 31.1173 71.7692 33.5777 70.7113 36.0381C69.873 34.5604 69.0023 33.0753 68.042 31.5975C67.1061 30.1198 66.1051 28.6716 65.1042 27.2678C68.0013 27.6594 70.7926 28.1397 73.4619 28.7307ZM64.1276 48.4436C62.5407 50.941 60.905 53.3127 59.2122 55.5145C56.1768 55.7584 53.1006 55.884 50 55.884C46.9238 55.884 43.8477 55.751 40.8285 55.5293C39.1357 53.3275 37.4837 50.9779 35.8968 48.4953C34.3506 46.0719 32.9427 43.6114 31.6569 41.1289C32.9183 38.6463 34.3506 36.1711 35.8724 33.7476C37.4593 31.2503 39.0951 28.8785 40.7878 26.6767C43.8232 26.4329 46.8994 26.3073 50 26.3073C53.0762 26.3073 56.1523 26.4403 59.1716 26.6619C60.8643 28.8637 62.5163 31.2133 64.1032 33.6959C65.6494 36.1194 67.0573 38.5798 68.3431 41.0624C67.0573 43.5376 65.6576 46.0128 64.1276 48.4436ZM70.7113 46.0349C71.8099 48.5175 72.7458 50.9927 73.527 53.4014C70.8577 53.9925 68.042 54.4949 65.1286 54.8791C66.1296 53.4531 67.1224 51.9902 68.0664 50.4903C68.9941 49.0125 69.873 47.5126 70.7113 46.0349ZM50.0407 65.7774C48.1445 64.0041 46.2484 62.0239 44.3766 59.8591C46.2077 59.9329 48.0876 59.992 49.9837 59.992C51.8962 59.992 53.7923 59.9551 55.6478 59.8591C53.8086 62.0239 51.9124 64.0041 50.0407 65.7774ZM34.8796 54.8791C31.9824 54.4875 29.1911 54.0073 26.5218 53.4162C27.2786 51.0296 28.2145 48.5692 29.2725 46.1088C30.1107 47.5865 30.9814 49.0717 31.9417 50.5494C32.902 52.0345 33.8786 53.4753 34.8796 54.8791ZM49.9349 16.3696C51.8311 18.1428 53.7272 20.123 55.599 22.2879C53.7679 22.214 51.888 22.1549 49.9919 22.1549C48.0794 22.1549 46.1833 22.1918 44.3278 22.2879C46.167 20.123 48.0632 18.1428 49.9349 16.3696ZM34.8551 27.2678C33.8542 28.6938 32.8613 30.1567 31.9173 31.6566C30.9814 33.1344 30.1025 34.6195 29.2643 36.0972C28.1657 33.6146 27.2298 31.1394 26.4486 28.7307C29.126 28.1544 31.9417 27.6594 34.8551 27.2678ZM16.4063 50.4385C9.18783 47.6456 4.52474 43.9809 4.52474 41.0771C4.52474 38.1734 9.19596 34.4865 16.4063 31.7158C18.1559 31.0286 20.0765 30.4227 22.054 29.8464C23.2178 33.4742 24.7477 37.2498 26.6439 41.1141C24.7721 44.9636 23.2585 48.717 22.1191 52.33C20.1009 51.7537 18.1803 51.1257 16.4063 50.4385ZM27.3763 76.8825C24.6012 75.4417 23.4049 69.9445 24.3408 62.8736C24.5687 61.1373 24.9349 59.3049 25.3825 57.4356C29.3783 58.3222 33.7402 59.0094 38.3219 59.4527C41.0726 62.8736 43.929 65.9842 46.8018 68.7032C40.153 74.3112 33.9193 77.3849 29.6794 77.3849C28.7598 77.3627 27.9867 77.2002 27.3763 76.8825ZM75.7243 62.785C76.6846 69.8559 75.4964 75.353 72.7458 76.816C72.1354 77.1485 71.3379 77.2962 70.402 77.2962C66.1865 77.2962 59.9284 74.2447 53.2796 68.6737C56.1361 65.9547 58.9844 62.8662 61.6943 59.4379C66.3005 58.9946 70.6624 58.3074 74.6582 57.3986C75.1302 59.268 75.4964 61.0634 75.7243 62.785ZM83.5693 50.4385C81.8197 51.1257 79.8991 51.7316 77.9216 52.3079C76.7578 48.6801 75.2279 44.9045 73.3317 41.0402C75.2035 37.1907 76.7171 33.4373 77.8564 29.8243C79.8747 30.4006 81.7871 31.0286 83.5856 31.7084C90.804 34.5013 95.4671 38.166 95.4671 41.0698C95.4508 43.9809 90.7878 47.6604 83.5693 50.4385Z" fill="#00D8FF"/>
</g>
<defs>
<clipPath id="clip0_3419_768">
<rect width="100" height="80.8538" fill="white" transform="translate(0 0.63916)"/>
</clipPath>
</defs>
</svg>
