<svg width="100" height="100" viewBox="0 0 100 100" fill="none" xmlns="http://www.w3.org/2000/svg">
<g clip-path="url(#clip0_3419_1072)">
<path d="M21.0863 62.876C21.0863 68.6913 16.3906 73.3826 10.5882 73.3826C4.78581 73.3826 0.0820312 68.6831 0.0820312 62.876C0.0820312 57.0607 4.77767 52.3694 10.5801 52.3694H21.0781V62.876H21.0863ZM26.3353 62.876C26.3353 57.0607 31.0309 52.3694 36.8333 52.3694C42.6357 52.3694 47.3314 57.0688 47.3314 62.876V89.1506C47.3314 94.9659 42.6357 99.6572 36.8333 99.6572C31.0309 99.6572 26.3353 94.9578 26.3353 89.1506V62.876Z" fill="#E01E5A"/>
<path d="M36.8327 21.0213C31.0221 21.0213 26.3346 16.3218 26.3346 10.5147C26.3346 4.69937 31.0303 0.00805664 36.8327 0.00805664C42.6351 0.00805664 47.3307 4.70752 47.3307 10.5147V21.0213H36.8327ZM36.8327 26.356C42.6432 26.356 47.3307 31.0555 47.3307 36.8626C47.3307 42.6779 42.6351 47.3692 36.8327 47.3692H10.498C4.69564 47.3773 0 42.6779 0 36.8626C0 31.0473 4.69564 26.356 10.498 26.356H36.8327Z" fill="#36C5F0"/>
<path d="M78.915 36.8627C78.915 31.0474 83.6107 26.3561 89.4131 26.3561C95.2236 26.3561 99.9111 31.0555 99.9111 36.8627C99.9111 42.678 95.2155 47.3693 89.4131 47.3693H78.915V36.8627ZM73.666 36.8627C73.666 42.678 68.9704 47.3693 63.168 47.3693C57.3574 47.3693 52.6699 42.6698 52.6699 36.8627V10.5066C52.6699 4.69132 57.3656 0 63.168 0C68.9785 0 73.666 4.69946 73.666 10.5066V36.8627Z" fill="#2EB67D"/>
<path d="M63.168 78.6359C68.9785 78.6359 73.666 83.3353 73.666 89.1425C73.666 94.9578 68.9704 99.6491 63.168 99.6491C57.3574 99.6491 52.6699 94.9496 52.6699 89.1425V78.6359H63.168ZM63.168 73.3826C57.3574 73.3826 52.6699 68.6831 52.6699 62.876C52.6699 57.0607 57.3656 52.3694 63.168 52.3694H89.5026C95.3132 52.3694 100.001 57.0688 100.001 62.876C100.001 68.6913 95.305 73.3826 89.5026 73.3826H63.168Z" fill="#ECB22E"/>
</g>
<defs>
<clipPath id="clip0_3419_1072">
<rect width="100" height="100" fill="white"/>
</clipPath>
</defs>
</svg>
