<svg width="103" height="100" viewBox="0 0 103 100" fill="none" xmlns="http://www.w3.org/2000/svg">
<g clip-path="url(#clip0_3419_1052)">
<path d="M18.2396 0H84.7664C89.6039 0 94.2432 1.91353 97.6638 5.31963C101.084 8.72573 103.006 13.3454 103.006 18.1624V81.8377C103.006 86.6546 101.084 91.2743 97.6638 94.6804C94.2432 98.0865 89.6039 100 84.7664 100H18.2396C13.4022 100 8.76285 98.0865 5.34226 94.6804C1.92167 91.2743 0 86.6546 0 81.8377L0 18.1624C0 13.3454 1.92167 8.72573 5.34226 5.31963C8.76285 1.91353 13.4022 0 18.2396 0Z" fill="#1E3101"/>
<path d="M22.2793 70.1258V26.1599C22.2793 25.8397 22.416 25.6796 22.6933 25.6796C23.4289 25.6796 24.3039 25.6682 25.3182 25.6456C26.3325 25.6229 27.4266 25.5995 28.6004 25.5755L32.3327 25.5075C33.6458 25.4834 34.9469 25.4714 36.2359 25.4714C39.7371 25.4714 42.6849 25.9077 45.0793 26.7803C47.2413 27.507 49.2128 28.7057 50.8497 30.2887C52.2374 31.6605 53.3099 33.3156 53.9931 35.14C54.64 36.915 54.9679 38.7895 54.9618 40.6778C54.9618 44.3483 54.1097 47.3757 52.4053 49.76C50.6897 52.1564 48.2783 53.9723 45.4953 54.9635C42.394 56.0745 39.1175 56.6222 35.8218 56.5806C34.8075 56.5806 34.0933 56.5686 33.6793 56.5446C33.2653 56.5226 32.6422 56.5105 31.8141 56.5105V70.0658C31.8342 70.2093 31.7965 70.3549 31.7091 70.4708C31.6217 70.5866 31.4919 70.6634 31.3478 70.6842C31.2966 70.6922 31.2444 70.6922 31.1931 70.6842H22.7617C22.4401 70.6762 22.2793 70.4941 22.2793 70.1258ZM31.8141 33.9352V48.1789C32.4117 48.2256 32.9645 48.2483 33.4723 48.2469H35.7515C37.4239 48.2709 39.0902 48.0387 40.6918 47.5585C42.0608 47.1536 43.2844 46.3659 44.2171 45.2889C45.1148 44.2349 45.5637 42.7672 45.5637 40.8859C45.5985 39.5554 45.2497 38.2427 44.5587 37.1033C43.8296 35.9999 42.777 35.1467 41.5439 34.6597C39.938 34.0391 38.2229 33.7471 36.5012 33.8011C35.3957 33.8011 34.4169 33.8124 33.5647 33.8351C32.7126 33.8578 32.125 33.8918 31.8021 33.9372L31.8141 33.9352Z" fill="#99E83F"/>
<path d="M80.5951 63.8655V69.5074C80.5951 70.0117 80.4108 70.3099 80.0424 70.402C79.1352 70.6843 78.2125 70.9141 77.2788 71.0905C76.1844 71.2845 75.0741 71.3763 73.9625 71.3646C70.9678 71.3646 68.6189 70.5848 66.9159 69.0251C65.2128 67.4653 64.3607 64.9656 64.3593 61.526V44.4623H60.2793C59.9115 44.4623 59.7266 44.2622 59.7266 43.8439V37.0253C59.7266 36.659 59.9275 36.4749 60.3496 36.4749H64.4256C64.4712 35.6957 64.5288 34.7898 64.5985 33.7571C64.6688 32.7264 64.7593 31.6937 64.8759 30.661C64.9924 29.6283 65.0929 28.7917 65.1854 28.1513C65.2294 28.0144 65.2975 27.8863 65.3864 27.773C65.476 27.661 65.5959 27.577 65.7321 27.5308L73.9625 26.5061C74.0875 26.4692 74.2214 26.4756 74.3424 26.5241C74.4348 26.5702 74.4469 26.6903 74.4469 26.9244C74.3544 27.9798 74.2874 29.4134 74.2459 31.2253C74.2044 33.0372 74.1581 34.7911 74.1072 36.4869H80.5388C80.8162 36.4869 80.9548 36.671 80.9548 37.0373V43.988C80.9712 44.0971 80.9443 44.2083 80.8798 44.298C80.8152 44.3876 80.7182 44.4487 80.6092 44.4683H74.0308V59.1924C74.0308 60.7534 74.2988 61.8662 74.8348 62.5306C75.3707 63.1951 76.3496 63.5286 77.7712 63.5313C78.1852 63.5313 78.5752 63.5213 78.947 63.4973C79.3188 63.4733 79.6826 63.4392 80.0524 63.3932C80.1143 63.3704 80.1805 63.3617 80.2462 63.3676C80.3119 63.3735 80.3755 63.3938 80.4323 63.4272C80.494 63.4809 80.5413 63.5492 80.5697 63.6257C80.5982 63.7023 80.6069 63.7848 80.5951 63.8655Z" fill="#99E83F"/>
</g>
<defs>
<clipPath id="clip0_3419_1052">
<rect width="103" height="100" fill="white"/>
</clipPath>
</defs>
</svg>
