<svg width="100" height="100" viewBox="0 0 100 100" fill="none" xmlns="http://www.w3.org/2000/svg">
<g clip-path="url(#clip0_3419_757)">
<path d="M94.2057 70V23.3334L53.7889 0V17.9166L69.6225 27.0834C70.2475 27.4998 70.2475 28.3334 69.6225 28.5418L50.8725 39.3752C50.2475 39.7916 49.6225 39.5834 49.2057 39.3752L30.4557 28.5418C29.8307 28.3334 29.8307 27.2918 30.4557 27.0834L46.2891 17.9166V0L5.66406 23.3334V70L21.0807 61.0416V42.7082C21.0807 42.0832 21.9141 41.6668 22.3307 41.875L41.0807 52.7084C41.7057 53.125 41.9141 53.5418 41.9141 54.1668V75.8332C41.9141 76.4582 41.0807 76.8752 40.6641 76.6666L24.8309 67.5L9.41406 76.4584L49.8307 100L90.2475 76.6666L74.8307 67.7082L58.9975 76.8752C58.3725 77.2916 57.7475 76.8752 57.7475 76.0416V54.375C57.7475 53.75 58.1639 53.125 58.5807 52.9166L77.3309 42.0832C77.9557 41.6668 78.5807 42.0832 78.5807 42.9166V61.25L94.2057 70Z" fill="#4C4C4C"/>
<path d="M49.8301 100L90.2469 76.6667L74.8301 67.7083L58.9969 76.8753C58.3719 77.2917 57.7469 76.8753 57.7469 76.0417V54.3751C57.7469 53.7501 58.1633 53.1251 58.5801 52.9167L77.3303 42.0833C77.9551 41.6669 78.5801 42.0833 78.5801 42.9167V61.2501L93.9967 70.2085V23.3335L49.8301 48.9585V100Z" fill="black"/>
<path d="M53.7891 0V17.9166L69.6225 27.0834C70.2475 27.4998 70.2475 28.3334 69.6225 28.5418L50.8725 39.3752C50.2475 39.7916 49.6225 39.5834 49.2057 39.3752L30.4557 28.5418C29.8307 28.3334 29.8307 27.2918 30.4557 27.0834L46.2891 17.9166V0L5.66406 23.3334L49.8307 48.9584L93.9973 23.3334L53.7891 0Z" fill="#808080"/>
<path d="M40.8725 76.8751L25.0389 67.7083L9.62227 76.6667L50.0391 100V48.9585L5.66406 23.3335V70.0001L21.0807 61.0417V42.7083C21.0807 42.0833 21.9141 41.6669 22.3307 41.8751L41.0807 52.7085C41.7057 53.1251 41.9141 53.5419 41.9141 54.1669V75.8333C42.1225 76.6667 41.4975 77.2917 40.8725 76.8753V76.8751Z" fill="#4C4C4C"/>
</g>
<defs>
<clipPath id="clip0_3419_757">
<rect width="100" height="100" fill="white"/>
</clipPath>
</defs>
</svg>
