<svg width="100" height="100" viewBox="0 0 100 100" fill="none" xmlns="http://www.w3.org/2000/svg">
<g clip-path="url(#clip0_3419_764)">
<path fill-rule="evenodd" clip-rule="evenodd" d="M50 0C77.6143 0 100 22.3857 100 50C100 77.6143 77.6143 100 50 100C22.3857 100 0 77.6143 0 50C0 22.3857 22.3857 0 50 0Z" fill="black"/>
<path fill-rule="evenodd" clip-rule="evenodd" d="M11.8379 49.9999C11.8379 28.9228 28.9223 11.8384 49.9994 11.8384C71.0764 11.8384 88.1609 28.9228 88.1609 49.9999C88.1609 71.0769 71.0764 88.1614 49.9994 88.1614C28.9223 88.1614 11.8379 71.0769 11.8379 49.9999ZM56.0176 67.0032L59.7621 71.2157C69.0932 66.8103 72.0193 58.6675 72.6801 55.4952C69.2672 58.9892 65.4937 62.5312 62.9533 60.079C62.9533 60.079 62.8154 46.9972 62.8154 41.6298C62.8154 34.4126 69.6557 29.0362 69.6557 29.0362C65.8947 29.7062 61.3748 31.0466 56.5809 35.7532C56.1483 36.1834 55.7376 36.635 55.3504 37.1063C53.2941 35.5323 50.6303 36.0063 50.6303 36.0063C52.0709 36.7962 53.5096 39.1003 53.5096 41.006V59.7411C53.5096 59.7411 50.3707 62.5003 47.9521 62.5003C47.9414 62.4995 47.9305 62.4995 47.9197 62.4995C47.3797 62.4994 46.8474 62.3712 46.3666 62.1253C45.8858 61.8794 45.4702 61.5229 45.1541 61.0851C44.9629 60.8341 44.8042 60.56 44.6816 60.2692V37.1198C43.9658 37.7112 41.55 38.198 41.55 34.1864C41.55 31.6938 43.3482 28.7245 46.5439 26.9026C42.154 27.5722 38.0428 29.4691 34.6844 32.3745C29.5803 36.7835 26.6451 43.2011 26.6451 49.9485V50.172C26.6451 50.246 28.9854 42.8665 31.9115 42.194C32.1478 42.1334 32.3907 42.1025 32.6346 42.1021C34.1967 42.1021 35.4633 43.3687 35.4633 44.931C35.4633 44.9626 35.4623 44.9958 35.4615 45.0274V62.1831C35.4615 63.922 34.34 64.3015 33.3053 64.2817C32.6027 64.2324 31.9084 64.1011 31.2363 63.8905C35.567 69.7554 42.4027 73.2612 49.692 73.3585L56.0176 67.0032Z" fill="white"/>
</g>
<defs>
<clipPath id="clip0_3419_764">
<rect width="100" height="100" fill="white"/>
</clipPath>
</defs>
</svg>
