<svg width="100" height="100" viewBox="0 0 100 100" fill="none" xmlns="http://www.w3.org/2000/svg">
<g clip-path="url(#clip0_3419_1035)">
<path d="M96.4605 10.7969L75.855 0.875024C73.4722 -0.273413 70.6206 0.210962 68.7495 2.08206L1.29639 63.5821C-0.516113 65.2383 -0.516113 68.0938 1.30029 69.7461L6.80811 74.7539C8.29248 76.1055 10.5308 76.2031 12.1284 74.9922L93.3589 13.3711C96.0855 11.3047 99.9995 13.2461 99.9995 16.668V16.4297C99.9995 14.0274 98.6245 11.836 96.4605 10.7969Z" fill="#0065A9"/>
<path d="M96.4605 89.2031L75.855 99.125C73.4722 100.273 70.6206 99.789 68.7495 97.9179L1.29639 36.4179C-0.516113 34.7656 -0.516113 31.9062 1.30029 30.2578L6.80811 25.25C8.29248 23.8984 10.5308 23.8008 12.1284 25.0117L93.3589 86.6289C96.0855 88.6953 99.9995 86.7539 99.9995 83.332V83.5703C99.9995 85.9726 98.6245 88.164 96.4605 89.2031Z" fill="#007ACC"/>
<path d="M75.8594 99.1251C73.4727 100.274 70.625 99.7891 68.75 97.9141C71.0547 100.219 75 98.586 75 95.3243V4.67194C75 1.41022 71.0547 -0.222591 68.75 2.0821C70.6211 0.211003 73.4727 -0.273372 75.8594 0.871159L96.4609 10.7774C98.625 11.8204 100.004 14.0079 100.004 16.4102V83.586C100.004 85.9883 98.6289 88.1758 96.4609 89.2188L75.8594 99.1251Z" fill="#1F9CF0"/>
<g opacity="0.25">
<path fill-rule="evenodd" clip-rule="evenodd" d="M70.8511 99.3164C72.4253 99.9297 74.2222 99.8907 75.812 99.125L96.4019 89.2188C98.5659 88.1797 99.9409 85.9883 99.9409 83.586V16.4141C99.9409 14.0118 98.5659 11.8243 96.4019 10.7813L75.812 0.875041C73.7261 -0.128865 71.2847 0.117228 69.4526 1.44926C69.1909 1.64067 68.9409 1.8516 68.7065 2.08598L29.2925 38.043L12.1245 25.0079C10.5269 23.793 8.29248 23.8946 6.80811 25.2461L1.30029 30.2539C-0.516113 31.9063 -0.516113 34.7618 1.29639 36.418L16.187 50L1.29639 63.5821C-0.516113 65.2383 -0.516113 68.0938 1.30029 69.7461L6.80811 74.7539C8.29248 76.1055 10.5269 76.2032 12.1245 74.9922L29.2925 61.961L68.7065 97.918C69.3315 98.5391 70.062 99.0118 70.8511 99.3164ZM74.9526 27.3008L45.0464 50L74.9526 72.7032V27.3008Z" fill="url(#paint0_linear_3419_1035)"/>
</g>
</g>
<defs>
<linearGradient id="paint0_linear_3419_1035" x1="49.9385" y1="0.257854" x2="49.9385" y2="99.7423" gradientUnits="userSpaceOnUse">
<stop stop-color="white"/>
<stop offset="1" stop-color="white" stop-opacity="0"/>
</linearGradient>
<clipPath id="clip0_3419_1035">
<rect width="100" height="100" fill="white"/>
</clipPath>
</defs>
</svg>
