<svg width="100" height="100" viewBox="0 0 100 100" fill="none" xmlns="http://www.w3.org/2000/svg">
<path d="M51.3612 16.2615C50.9801 14.3537 51.4667 12.3761 52.786 10.3285C54.3464 7.8644 56.1848 6.51225 58.3016 6.23393C61.043 5.92202 63.5755 7.37866 65.9348 10.5367C68.1208 13.4855 69.0928 16.2615 68.8501 18.7945C68.8145 20.321 66.5604 21.2576 62.0841 21.5695C58.579 21.8478 56.0466 21.5003 54.4143 20.4939C52.7149 19.4884 51.7085 18.0664 51.3612 16.2615ZM99.7296 93.4636C99.487 93.9828 98.6212 93.9138 97.1274 93.2546C94.595 92.0406 91.7846 90.2011 88.6274 87.7025C85.1223 84.9275 83.0745 82.7416 82.5198 81.1449C82.4161 80.763 82.4514 80.2783 82.6589 79.6537L83.319 77.8833C83.7692 76.2531 83.179 74.6228 81.5487 72.9906C80.7514 72.1931 79.6757 71.4304 78.3563 70.7009C75.2692 69.0707 70.8274 67.6832 64.9637 66.572C58.8907 65.4273 53.0977 64.7681 47.5803 64.6298L40.8837 64.9771C39.1141 67.0238 37.4147 68.9316 35.7827 70.7009C34.3952 72.1585 33.043 73.5117 31.7237 74.7609C26.4153 79.5146 21.2462 83.1234 16.1798 85.621C9.27468 88.9871 4.10476 89.9583 0.600265 88.4662C0.149288 88.1542 0.0102259 87.6341 0.149288 86.9048L0.773898 84.9619C3.16804 79.7574 7.08874 75.0037 12.4671 70.7007C12.918 70.3199 13.4036 69.9724 13.8546 69.6261C18.1225 66.4681 23.8819 63.1374 31.1343 59.7023C35.887 57.6556 39.8087 56.3025 42.862 55.6433L45.7417 51.6525C46.8864 50.2304 48.1003 48.8773 49.3151 47.5925C51.9173 44.782 54.588 42.1806 57.4003 39.8556C57.6423 39.7511 57.6776 39.6128 57.5376 39.4392C56.1157 38.6417 53.7913 37.1486 50.6344 34.9628C47.9266 33.1244 45.8108 31.8404 44.2831 31.1457C39.4958 28.9953 34.603 29.6199 29.5729 33.0199C26.5534 35.032 24.9229 37.2533 24.7495 39.682L24.5757 42.6662C24.7495 43.4982 22.078 44.8865 16.596 46.8294C15.5895 47.1415 14.7567 47.4189 14.0628 47.5923C12.8479 47.8351 12.0151 47.8707 11.5995 47.6615L11.4604 47.5923L11.0794 47.3496C10.593 46.3785 12.8835 43.047 17.9145 37.3222C18.2618 36.9333 18.6126 36.5558 18.9653 36.1835L18.977 36.1685L18.9885 36.1607C28.0971 26.5796 38.8397 22.8716 51.1883 25.0744C54.5882 25.6644 60.211 27.7458 68.087 31.2855C68.9528 30.4173 70.4466 29.3771 72.4934 28.1968C75.0958 26.7056 77.2462 25.9064 78.8774 25.8728C82.4518 25.8374 84.7059 27.1904 85.6434 30.0011C86.1981 31.7023 84.9487 34.0964 81.8618 37.1841C78.6702 40.4457 75.6507 42.4925 72.8055 43.3244C69.2311 44.4009 65.345 43.7761 61.2161 41.5214C59.3784 42.9435 57.2962 44.9912 55.0403 47.5925C54.9366 47.697 54.8321 47.8353 54.7284 47.9398L49.3856 54.3246L49.3157 54.7748L52.9936 54.6367C55.6305 54.7066 58.302 55.1566 61.0434 56.0242C68.504 58.4183 74.7489 61.3669 79.779 64.8724C82.1731 66.5718 84.4999 68.5158 86.6846 70.7007C88.9397 72.9904 91.1255 75.5581 93.1723 78.3687C94.9782 80.8683 96.504 83.3998 97.787 85.933C99.5915 89.473 100.25 91.9707 99.7296 93.4636ZM72.3889 32.6736C73.0481 33.1937 74.6093 33.4027 77.1426 33.2982C79.9522 33.1937 81.8616 32.639 82.9364 31.5632C83.4575 31.0423 83.4575 30.5222 82.8673 30.0367C82.2081 29.4466 80.994 29.3083 79.2593 29.5503C77.7671 29.7931 76.1706 30.3132 74.4364 31.1124C72.7362 31.9099 72.0417 32.4308 72.3889 32.6736ZM34.5341 65.9128L33.7358 65.8093C31.3417 66.2957 29.1212 66.8503 27.0745 67.4759C24.195 68.4117 21.5225 69.4873 19.0594 70.7011C17.0817 71.6386 15.2423 72.6798 13.5428 73.7892C8.12917 77.2935 5.63132 80.6951 6.0823 83.9902L6.60319 84.5802C8.02526 85.5177 10.8358 84.7882 14.9993 82.3943C20.6559 79.0992 25.7206 75.2128 30.1969 70.7011C31.6891 69.1744 33.1458 67.5787 34.5341 65.9128Z" fill="black"/>
</svg>
